Titillium Sans Pro-Bold Italic.ufo
<glyph name="exclam" format="2">
  <advance width="263"/>
  <unicode hex="0021"/>
  <note>
exclam
</note>
  <outline>
    <contour>
      <point x="303" y="710" type="line"/>
      <point x="157" y="710" type="line"/>
      <point x="72" y="260" type="line"/>
      <point x="190" y="260" type="line"/>
    </contour>
    <contour>
      <point x="183" y="155" type="line"/>
      <point x="39" y="155" type="line"/>
      <point x="6" y="0" type="line"/>
      <point x="150" y="0" type="line"/>
    </contour>
  </outline>
</glyph>
<glyph name="quotedbl" format="2">
	<advance width="419"/>
	<unicode hex="0022"/>
	<note>
		quotedbl
	</note>
	<outline>
		<contour>
			<point x="281" y="730" type="line"/>
			<point x="149" y="730" type="line"/>
			<point x="102" y="480" type="line"/>
			<point x="220" y="480" type="line"/>
		</contour>
		<contour>
			<point x="471" y="730" type="line"/>
			<point x="339" y="730" type="line"/>
			<point x="292" y="480" type="line"/>
			<point x="410" y="480" type="line"/>
		</contour>
	</outline>
</glyph>
<glyph name="numbersign" format="2">
	<advance width="625"/>
	<unicode hex="0023"/>
	<note>
		numbersign
	</note>
	<outline>
		<contour>
			<point x="427" y="0" type="line"/>
			<point x="459" y="149" type="line"/>
			<point x="555" y="149" type="line"/>
			<point x="578" y="261" type="line"/>
			<point x="482" y="261" type="line"/>
			<point x="509" y="387" type="line"/>
			<point x="605" y="387" type="line"/>
			<point x="629" y="499" type="line"/>
			<point x="533" y="499" type="line"/>
			<point x="567" y="660" type="line"/>
			<point x="451" y="660" type="line"/>
			<point x="417" y="499" type="line"/>
			<point x="313" y="499" type="line"/>
			<point x="347" y="660" type="line"/>
			<point x="231" y="660" type="line"/>
			<point x="197" y="499" type="line"/>
			<point x="101" y="499" type="line"/>
			<point x="77" y="387" type="line"/>
			<point x="173" y="387" type="line"/>
			<point x="146" y="261" type="line"/>
			<point x="50" y="261" type="line"/>
			<point x="27" y="149" type="line"/>
			<point x="123" y="149" type="line"/>
			<point x="91" y="0" type="line"/>
			<point x="207" y="0" type="line"/>
			<point x="239" y="149" type="line"/>
			<point x="343" y="149" type="line"/>
			<point x="311" y="0" type="line"/>
		</contour>
		<contour>
			<point x="286" y="391" type="line"/>
			<point x="398" y="391" type="line"/>
			<point x="369" y="257" type="line"/>
			<point x="257" y="257" type="line"/>
		</contour>
	</outline>
</glyph>
<glyph name="dollar" format="2">
	<advance width="502"/>
	<unicode hex="0024"/>
	<note>
		dollar
	</note>
	<outline>
		<contour>
			<point x="494" y="532" type="curve"/>
			<point x="526" y="634" type="line"/>
			<point x="526" y="634"/>
			<point x="478" y="646"/>
			<point x="414" y="653" type="curve"/>
			<point x="469" y="810" type="line"/>
			<point x="395" y="810" type="line"/>
			<point x="345" y="659" type="line"/>
			<point x="332" y="659" type="line" smooth="yes"/>
			<point x="162" y="659"/>
			<point x="77" y="563"/>
			<point x="77" y="442" type="curve" smooth="yes"/>
			<point x="77" y="375"/>
			<point x="117" y="315"/>
			<point x="213" y="283" type="curve"/>
			<point x="156" y="116" type="line"/>
			<point x="92" y="120"/>
			<point x="23" y="130"/>
			<point x="23" y="130" type="curve"/>
			<point x="-10" y="30" type="line"/>
			<point x="-10" y="30"/>
			<point x="55" y="14"/>
			<point x="123" y="6" type="curve"/>
			<point x="78" y="-126" type="line"/>
			<point x="152" y="-126" type="line"/>
			<point x="194" y="1" type="line"/>
			<point x="196" y="1" type="line" smooth="yes"/>
			<point x="363" y="1"/>
			<point x="463" y="102"/>
			<point x="463" y="240" type="curve" smooth="yes"/>
			<point x="463" y="308"/>
			<point x="420" y="354"/>
			<point x="319" y="389" type="curve"/>
			<point x="372" y="543" type="line"/>
			<point x="430" y="540"/>
			<point x="494" y="532"/>
		</contour>
		<contour>
			<point x="296" y="545" type="curve" smooth="yes"/>
			<point x="300" y="545" type="line"/>
			<point x="256" y="412" type="line"/>
			<point x="221" y="429"/>
			<point x="210" y="442"/>
			<point x="210" y="462" type="curve" smooth="yes"/>
			<point x="210" y="497"/>
			<point x="235" y="545"/>
		</contour>
		<contour>
			<point x="233" y="115" type="curve" smooth="yes"/>
			<point x="228" y="115" type="line"/>
			<point x="277" y="262" type="line"/>
			<point x="313" y="246"/>
			<point x="328" y="230"/>
			<point x="328" y="207" type="curve" smooth="yes"/>
			<point x="328" y="169"/>
			<point x="292" y="115"/>
		</contour>
	</outline>
</glyph>
<glyph name="percent" format="2">
  <advance width="678"/>
  <unicode hex="0025"/>
  <note>
percent
</note>
  <outline>
    <contour>
      <point x="248" y="716" type="curve" smooth="yes"/>
      <point x="115" y="716"/>
      <point x="85" y="570"/>
      <point x="85" y="482" type="curve" smooth="yes"/>
      <point x="85" y="402"/>
      <point x="131" y="372"/>
      <point x="197" y="372" type="curve" smooth="yes"/>
      <point x="334" y="372"/>
      <point x="361" y="531"/>
      <point x="361" y="605" type="curve" smooth="yes"/>
      <point x="361" y="686"/>
      <point x="314" y="716"/>
    </contour>
    <contour>
      <point x="675" y="657" type="line"/>
      <point x="616" y="710" type="line"/>
      <point x="43" y="43" type="line"/>
      <point x="99" y="-11" type="line"/>
    </contour>
    <contour>
      <point x="242" y="626" type="curve" smooth="yes"/>
      <point x="250" y="626"/>
      <point x="256" y="624"/>
      <point x="256" y="607" type="curve" smooth="yes"/>
      <point x="256" y="591"/>
      <point x="244" y="462"/>
      <point x="204" y="462" type="curve" smooth="yes"/>
      <point x="196" y="462"/>
      <point x="190" y="465"/>
      <point x="190" y="482" type="curve" smooth="yes"/>
      <point x="190" y="501"/>
      <point x="206" y="626"/>
    </contour>
    <contour>
      <point x="522" y="330" type="curve" smooth="yes"/>
      <point x="389" y="330"/>
      <point x="359" y="184"/>
      <point x="359" y="96" type="curve" smooth="yes"/>
      <point x="359" y="16"/>
      <point x="405" y="-14"/>
      <point x="471" y="-14" type="curve" smooth="yes"/>
      <point x="608" y="-14"/>
      <point x="635" y="145"/>
      <point x="635" y="219" type="curve" smooth="yes"/>
      <point x="635" y="300"/>
      <point x="588" y="330"/>
    </contour>
    <contour>
      <point x="516" y="240" type="curve" smooth="yes"/>
      <point x="524" y="240"/>
      <point x="530" y="238"/>
      <point x="530" y="221" type="curve" smooth="yes"/>
      <point x="530" y="205"/>
      <point x="518" y="76"/>
      <point x="478" y="76" type="curve" smooth="yes"/>
      <point x="470" y="76"/>
      <point x="464" y="79"/>
      <point x="464" y="96" type="curve" smooth="yes"/>
      <point x="464" y="115"/>
      <point x="480" y="240"/>
    </contour>
  </outline>
</glyph>
<glyph name="ampersand" format="2">
	<advance width="661"/>
	<unicode hex="0026"/>
	<note>
		ampersand
	</note>
	<outline>
		<contour>
			<point x="388" y="726" type="curve" smooth="yes"/>
			<point x="275" y="726"/>
			<point x="187" y="673"/>
			<point x="187" y="543" type="curve" smooth="yes"/>
			<point x="187" y="500"/>
			<point x="199" y="463"/>
			<point x="218" y="430" type="curve"/>
			<point x="80" y="379"/>
			<point x="21" y="325"/>
			<point x="21" y="192" type="curve" smooth="yes"/>
			<point x="21" y="75"/>
			<point x="96" y="-14"/>
			<point x="237" y="-14" type="curve" smooth="yes"/>
			<point x="328" y="-14"/>
			<point x="391" y="24"/>
			<point x="443" y="76" type="curve"/>
			<point x="518" y="-29" type="line"/>
			<point x="613" y="42" type="line"/>
			<point x="529" y="157" type="line"/>
			<point x="568" y="202"/>
			<point x="620" y="309"/>
			<point x="636" y="380" type="curve"/>
			<point x="513" y="380" type="line"/>
			<point x="506" y="337"/>
			<point x="480" y="268"/>
			<point x="464" y="245" type="curve"/>
			<point x="386" y="383" type="line"/>
			<point x="496" y="436"/>
			<point x="562" y="479"/>
			<point x="562" y="582" type="curve" smooth="yes"/>
			<point x="562" y="677"/>
			<point x="493" y="726"/>
		</contour>
		<contour>
			<point x="315" y="539" type="curve" smooth="yes"/>
			<point x="315" y="588"/>
			<point x="338" y="619"/>
			<point x="383" y="619" type="curve" smooth="yes"/>
			<point x="416" y="619"/>
			<point x="432" y="599"/>
			<point x="432" y="563" type="curve" smooth="yes"/>
			<point x="432" y="516"/>
			<point x="416" y="495"/>
			<point x="339" y="455" type="curve"/>
			<point x="329" y="472"/>
			<point x="315" y="504"/>
		</contour>
		<contour>
			<point x="255" y="100" type="curve" smooth="yes"/>
			<point x="195" y="100"/>
			<point x="158" y="132"/>
			<point x="158" y="199" type="curve" smooth="yes"/>
			<point x="158" y="275"/>
			<point x="182" y="314"/>
			<point x="266" y="353" type="curve"/>
			<point x="383" y="158" type="line"/>
			<point x="357" y="129"/>
			<point x="309" y="100"/>
		</contour>
	</outline>
</glyph>
<glyph name="quotesingle" format="2">
	<advance width="229"/>
	<unicode hex="0027"/>
	<note>
		quotesingle
	</note>
	<outline>
		<contour>
			<point x="281" y="730" type="line"/>
			<point x="149" y="730" type="line"/>
			<point x="102" y="480" type="line"/>
			<point x="220" y="480" type="line"/>
		</contour>
	</outline>
</glyph>
<glyph name="parenleft" format="2">
	<advance width="304"/>
	<unicode hex="0028"/>
	<note>
		parenleft
	</note>
	<outline>
		<contour>
			<point x="380" y="750" type="curve"/>
			<point x="263" y="750" type="line"/>
			<point x="123" y="553"/>
			<point x="34" y="357"/>
			<point x="34" y="143" type="curve" smooth="yes"/>
			<point x="34" y="-10"/>
			<point x="77" y="-125"/>
			<point x="77" y="-125" type="curve"/>
			<point x="194" y="-125" type="line"/>
			<point x="194" y="-125"/>
			<point x="172" y="-18"/>
			<point x="172" y="121" type="curve" smooth="yes"/>
			<point x="172" y="340"/>
			<point x="250" y="513"/>
		</contour>
	</outline>
</glyph>
<glyph name="parenright" format="2">
	<advance width="305"/>
	<unicode hex="0029"/>
	<note>
		parenright
	</note>
	<outline>
		<contour>
			<point x="-51" y="-125" type="curve"/>
			<point x="66" y="-125" type="line"/>
			<point x="206" y="72"/>
			<point x="295" y="268"/>
			<point x="295" y="482" type="curve" smooth="yes"/>
			<point x="295" y="635"/>
			<point x="252" y="750"/>
			<point x="252" y="750" type="curve"/>
			<point x="135" y="750" type="line"/>
			<point x="135" y="750"/>
			<point x="157" y="643"/>
			<point x="157" y="504" type="curve" smooth="yes"/>
			<point x="157" y="285"/>
			<point x="79" y="112"/>
		</contour>
	</outline>
</glyph>
<glyph name="asterisk" format="2">
  <advance width="437"/>
  <unicode hex="002A"/>
  <note>
asterisk
</note>
  <outline>
    <contour>
      <point x="367" y="369" type="line"/>
      <point x="329" y="489" type="line"/>
      <point x="452" y="489" type="line"/>
      <point x="452" y="563" type="line"/>
      <point x="329" y="563" type="line"/>
      <point x="367" y="685" type="line"/>
      <point x="292" y="710" type="line"/>
      <point x="253" y="589" type="line"/>
      <point x="152" y="662" type="line"/>
      <point x="106" y="599" type="line"/>
      <point x="208" y="526" type="line"/>
      <point x="103" y="448" type="line"/>
      <point x="150" y="389" type="line"/>
      <point x="253" y="468" type="line"/>
      <point x="294" y="347" type="line"/>
    </contour>
  </outline>
</glyph>
<glyph name="plus" format="2">
  <advance width="560"/>
  <unicode hex="002B"/>
  <note>
plus
</note>
  <outline>
    <contour>
      <point x="237" y="335" type="line"/>
      <point x="67" y="335" type="line"/>
      <point x="43" y="219" type="line"/>
      <point x="213" y="219" type="line"/>
      <point x="174" y="39" type="line"/>
      <point x="294" y="39" type="line"/>
      <point x="333" y="219" type="line"/>
      <point x="503" y="219" type="line"/>
      <point x="527" y="335" type="line"/>
      <point x="357" y="335" type="line"/>
      <point x="396" y="515" type="line"/>
      <point x="276" y="515" type="line"/>
    </contour>
  </outline>
</glyph>
<glyph name="comma" format="2">
  <advance width="258"/>
  <unicode hex="002C"/>
  <note>
comma
</note>
  <outline>
    <contour>
      <point x="200" y="165" type="line"/>
      <point x="52" y="165" type="line"/>
      <point x="-60" y="-123" type="line"/>
      <point x="48" y="-123" type="line"/>
    </contour>
  </outline>
</glyph>
<glyph name="hyphen" format="2">
	<advance width="416"/>
	<unicode hex="002D"/>
	<note>
		hyphen
	</note>
	<outline>
		<contour>
			<point x="386" y="337" type="line"/>
			<point x="66" y="337" type="line"/>
			<point x="40" y="217" type="line"/>
			<point x="360" y="217" type="line"/>
		</contour>
	</outline>
</glyph>
<glyph name="period" format="2">
	<advance width="251"/>
	<unicode hex="002E"/>
	<note>
		period
	</note>
	<outline>
		<contour>
			<point x="180" y="165" type="line"/>
			<point x="36" y="165" type="line"/>
			<point x="0" y="0" type="line"/>
			<point x="144" y="0" type="line"/>
		</contour>
	</outline>
</glyph>
<glyph name="slash" format="2">
  <advance width="430"/>
  <unicode hex="002F"/>
  <note>
slash
</note>
  <outline>
    <contour>
      <point x="501" y="658" type="line"/>
      <point x="404" y="718" type="line"/>
      <point x="-34" y="20" type="line"/>
      <point x="62" y="-40" type="line"/>
    </contour>
  </outline>
</glyph>
<glyph name="one" format="2">
	<advance width="417"/>
	<unicode hex="0031"/>
	<note>
		one
	</note>
	<outline>
		<contour>
			<point x="431" y="670" type="line"/>
			<point x="308" y="670" type="line"/>
			<point x="63" y="525" type="line"/>
			<point x="104" y="421" type="line"/>
			<point x="265" y="514" type="line"/>
			<point x="155" y="0" type="line"/>
			<point x="289" y="0" type="line"/>
		</contour>
	</outline>
</glyph>
<glyph name="two" format="2">
	<advance width="503"/>
	<unicode hex="0032"/>
	<note>
		two
	</note>
	<outline>
		<contour>
			<point x="16" y="117" type="line"/>
			<point x="-9" y="0" type="line"/>
			<point x="410" y="0" type="line"/>
			<point x="436" y="120" type="line"/>
			<point x="167" y="120" type="line"/>
			<point x="302" y="234" type="line" smooth="yes"/>
			<point x="412" y="327"/>
			<point x="499" y="399"/>
			<point x="499" y="524" type="curve" smooth="yes"/>
			<point x="499" y="625"/>
			<point x="449" y="682"/>
			<point x="313" y="682" type="curve" smooth="yes"/>
			<point x="219" y="682"/>
			<point x="131" y="652"/>
			<point x="131" y="652" type="curve"/>
			<point x="115" y="545" type="line"/>
			<point x="115" y="545"/>
			<point x="205" y="560"/>
			<point x="263" y="560" type="curve" smooth="yes"/>
			<point x="335" y="560"/>
			<point x="364" y="538"/>
			<point x="364" y="493" type="curve" smooth="yes"/>
			<point x="364" y="408"/>
			<point x="274" y="352"/>
			<point x="184" y="270" type="curve" smooth="yes"/>
		</contour>
	</outline>
</glyph>
<glyph name="three" format="2">
  <advance width="530"/>
  <unicode hex="0033"/>
  <note>
three
</note>
  <outline>
    <contour>
      <point x="126" y="659" type="curve"/>
      <point x="113" y="549" type="line"/>
      <point x="113" y="549"/>
      <point x="219" y="562"/>
      <point x="285" y="562" type="curve" smooth="yes"/>
      <point x="350" y="562"/>
      <point x="378" y="536"/>
      <point x="378" y="481" type="curve" smooth="yes"/>
      <point x="378" y="432"/>
      <point x="346" y="394"/>
      <point x="276" y="394" type="curve" smooth="yes"/>
      <point x="146" y="394" type="line"/>
      <point x="121" y="280" type="line"/>
      <point x="252" y="280" type="line" smooth="yes"/>
      <point x="306" y="280"/>
      <point x="331" y="254"/>
      <point x="331" y="203" type="curve" smooth="yes"/>
      <point x="331" y="130"/>
      <point x="279" y="106"/>
      <point x="205" y="106" type="curve" smooth="yes"/>
      <point x="137" y="106"/>
      <point x="29" y="127"/>
      <point x="29" y="127" type="curve"/>
      <point x="-1" y="22" type="line"/>
      <point x="-1" y="22"/>
      <point x="101" y="-14"/>
      <point x="209" y="-14" type="curve" smooth="yes"/>
      <point x="400" y="-14"/>
      <point x="471" y="91"/>
      <point x="471" y="203" type="curve" smooth="yes"/>
      <point x="471" y="281"/>
      <point x="438" y="323"/>
      <point x="388" y="339" type="curve"/>
      <point x="483" y="374"/>
      <point x="508" y="462"/>
      <point x="508" y="520" type="curve" smooth="yes"/>
      <point x="508" y="616"/>
      <point x="447" y="682"/>
      <point x="312" y="682" type="curve" smooth="yes"/>
      <point x="232" y="682"/>
      <point x="126" y="659"/>
    </contour>
  </outline>
</glyph>
<glyph name="four" format="2">
  <advance width="538"/>
  <unicode hex="0034"/>
  <note>
four
</note>
  <outline>
    <contour>
      <point x="9" y="109" type="line"/>
      <point x="284" y="109" type="line"/>
      <point x="261" y="0" type="line"/>
      <point x="396" y="0" type="line"/>
      <point x="419" y="109" type="line"/>
      <point x="481" y="109" type="line"/>
      <point x="506" y="229" type="line"/>
      <point x="440" y="229" type="line"/>
      <point x="480" y="414" type="line"/>
      <point x="351" y="414" type="line"/>
      <point x="311" y="229" type="line"/>
      <point x="165" y="229" type="line"/>
      <point x="437" y="670" type="line"/>
      <point x="286" y="670" type="line"/>
      <point x="32" y="214" type="line"/>
    </contour>
  </outline>
</glyph>
<glyph name="five" format="2">
  <advance width="543"/>
  <unicode hex="0035"/>
  <note>
five
</note>
  <outline>
    <contour>
      <point x="529" y="550" type="line"/>
      <point x="554" y="670" type="line"/>
      <point x="162" y="670" type="line"/>
      <point x="68" y="313" type="line"/>
      <point x="155" y="296" type="line"/>
      <point x="155" y="296"/>
      <point x="206" y="318"/>
      <point x="259" y="318" type="curve" smooth="yes"/>
      <point x="327" y="318"/>
      <point x="356" y="282"/>
      <point x="356" y="219" type="curve" smooth="yes"/>
      <point x="356" y="156"/>
      <point x="311" y="105"/>
      <point x="197" y="105" type="curve" smooth="yes"/>
      <point x="129" y="105"/>
      <point x="37" y="126"/>
      <point x="37" y="126" type="curve"/>
      <point x="3" y="18" type="line"/>
      <point x="3" y="18"/>
      <point x="104" y="-14"/>
      <point x="211" y="-14" type="curve" smooth="yes"/>
      <point x="403" y="-14"/>
      <point x="495" y="100"/>
      <point x="495" y="241" type="curve" smooth="yes"/>
      <point x="495" y="373"/>
      <point x="427" y="426"/>
      <point x="316" y="426" type="curve" smooth="yes"/>
      <point x="251" y="426"/>
      <point x="190" y="400"/>
      <point x="190" y="400" type="curve"/>
      <point x="242" y="550" type="line"/>
    </contour>
  </outline>
</glyph>
<glyph name="six" format="2">
  <advance width="574"/>
  <unicode hex="0036"/>
  <note>
six
</note>
  <outline>
    <contour>
      <point x="556" y="547" type="curve"/>
      <point x="590" y="653" type="line"/>
      <point x="590" y="653"/>
      <point x="489" y="682"/>
      <point x="406" y="682" type="curve" smooth="yes"/>
      <point x="141" y="682"/>
      <point x="55" y="418"/>
      <point x="55" y="221" type="curve" smooth="yes"/>
      <point x="55" y="92"/>
      <point x="121" y="-14"/>
      <point x="274" y="-14" type="curve" smooth="yes"/>
      <point x="444" y="-14"/>
      <point x="528" y="119"/>
      <point x="528" y="255" type="curve" smooth="yes"/>
      <point x="528" y="366"/>
      <point x="460" y="427"/>
      <point x="356" y="427" type="curve" smooth="yes"/>
      <point x="282" y="427"/>
      <point x="216" y="403"/>
      <point x="216" y="403" type="curve"/>
      <point x="239" y="494"/>
      <point x="279" y="562"/>
      <point x="395" y="562" type="curve" smooth="yes"/>
      <point x="443" y="562"/>
      <point x="556" y="547"/>
    </contour>
    <contour>
      <point x="310" y="313" type="curve" smooth="yes"/>
      <point x="362" y="313"/>
      <point x="391" y="287"/>
      <point x="391" y="233" type="curve" smooth="yes"/>
      <point x="391" y="167"/>
      <point x="359" y="104"/>
      <point x="282" y="104" type="curve" smooth="yes"/>
      <point x="217" y="104"/>
      <point x="187" y="149"/>
      <point x="187" y="210" type="curve" smooth="yes"/>
      <point x="187" y="242"/>
      <point x="190" y="270"/>
      <point x="195" y="295" type="curve"/>
      <point x="195" y="295"/>
      <point x="259" y="313"/>
    </contour>
  </outline>
</glyph>
<glyph name="seven" format="2">
  <advance width="480"/>
  <unicode hex="0037"/>
  <note>
seven
</note>
  <outline>
    <contour>
      <point x="533" y="670" type="line"/>
      <point x="112" y="670" type="line"/>
      <point x="86" y="547" type="line"/>
      <point x="365" y="547" type="line"/>
      <point x="359" y="522" type="line"/>
      <point x="59" y="48" type="line"/>
      <point x="168" y="-16" type="line"/>
      <point x="501" y="521" type="line"/>
    </contour>
  </outline>
</glyph>
<glyph name="eight" format="2">
	<advance width="615"/>
	<unicode hex="0038"/>
	<note>
		eight
	</note>
	<outline>
		<contour>
			<point x="31" y="154" type="curve" smooth="yes"/>
			<point x="31" y="55"/>
			<point x="111" y="-14"/>
			<point x="277" y="-14" type="curve" smooth="yes"/>
			<point x="455" y="-14"/>
			<point x="556" y="69"/>
			<point x="556" y="201" type="curve" smooth="yes"/>
			<point x="556" y="261"/>
			<point x="531" y="307"/>
			<point x="479" y="336" type="curve"/>
			<point x="558" y="362"/>
			<point x="590" y="443"/>
			<point x="590" y="514" type="curve" smooth="yes"/>
			<point x="590" y="605"/>
			<point x="514" y="682"/>
			<point x="368" y="682" type="curve" smooth="yes"/>
			<point x="214" y="682"/>
			<point x="106" y="599"/>
			<point x="106" y="467" type="curve" smooth="yes"/>
			<point x="106" y="424"/>
			<point x="123" y="373"/>
			<point x="163" y="340" type="curve"/>
			<point x="62" y="293"/>
			<point x="31" y="219"/>
		</contour>
		<contour>
			<point x="360" y="562" type="curve" smooth="yes"/>
			<point x="433" y="562"/>
			<point x="460" y="532"/>
			<point x="460" y="491" type="curve" smooth="yes"/>
			<point x="460" y="458"/>
			<point x="444" y="418"/>
			<point x="378" y="395" type="curve"/>
			<point x="282" y="395" type="line"/>
			<point x="249" y="408"/>
			<point x="236" y="439"/>
			<point x="236" y="465" type="curve" smooth="yes"/>
			<point x="236" y="507"/>
			<point x="261" y="562"/>
		</contour>
		<contour>
			<point x="170" y="184" type="curve" smooth="yes"/>
			<point x="170" y="213"/>
			<point x="184" y="259"/>
			<point x="254" y="282" type="curve"/>
			<point x="354" y="282" type="line"/>
			<point x="402" y="268"/>
			<point x="418" y="241"/>
			<point x="418" y="207" type="curve" smooth="yes"/>
			<point x="418" y="145"/>
			<point x="374" y="108"/>
			<point x="285" y="108" type="curve" smooth="yes"/>
			<point x="202" y="108"/>
			<point x="170" y="142"/>
		</contour>
	</outline>
</glyph>
<glyph name="nine" format="2">
  <advance width="577"/>
  <unicode hex="0039"/>
  <note>
nine
</note>
  <outline>
    <contour>
      <point x="58" y="115" type="curve"/>
      <point x="24" y="9" type="line"/>
      <point x="24" y="9"/>
      <point x="140" y="-14"/>
      <point x="223" y="-14" type="curve" smooth="yes"/>
      <point x="488" y="-14"/>
      <point x="553" y="264"/>
      <point x="553" y="431" type="curve" smooth="yes"/>
      <point x="553" y="580"/>
      <point x="487" y="682"/>
      <point x="331" y="682" type="curve" smooth="yes"/>
      <point x="164" y="682"/>
      <point x="80" y="567"/>
      <point x="80" y="442" type="curve" smooth="yes"/>
      <point x="80" y="330"/>
      <point x="148" y="257"/>
      <point x="263" y="257" type="curve" smooth="yes"/>
      <point x="326" y="257"/>
      <point x="392" y="279"/>
      <point x="392" y="279" type="curve"/>
      <point x="369" y="188"/>
      <point x="348" y="106"/>
      <point x="204" y="106" type="curve" smooth="yes"/>
      <point x="164" y="106"/>
      <point x="58" y="115"/>
    </contour>
    <contour>
      <point x="298" y="369" type="curve" smooth="yes"/>
      <point x="246" y="369"/>
      <point x="217" y="397"/>
      <point x="217" y="450" type="curve" smooth="yes"/>
      <point x="217" y="507"/>
      <point x="249" y="564"/>
      <point x="326" y="564" type="curve" smooth="yes"/>
      <point x="391" y="564"/>
      <point x="421" y="523"/>
      <point x="421" y="462" type="curve" smooth="yes"/>
      <point x="421" y="440"/>
      <point x="418" y="412"/>
      <point x="413" y="387" type="curve"/>
      <point x="413" y="387"/>
      <point x="349" y="369"/>
    </contour>
  </outline>
</glyph>
<glyph name="colon" format="2">
	<advance width="258"/>
	<unicode hex="003A"/>
	<note>
		colon
	</note>
	<outline>
		<contour>
			<point x="245" y="460" type="line"/>
			<point x="101" y="460" type="line"/>
			<point x="65" y="295" type="line"/>
			<point x="209" y="295" type="line"/>
		</contour>
		<contour>
			<point x="182" y="165" type="line"/>
			<point x="38" y="165" type="line"/>
			<point x="2" y="0" type="line"/>
			<point x="146" y="0" type="line"/>
		</contour>
	</outline>
</glyph>
<glyph name="semicolon" format="2">
	<advance width="276"/>
	<unicode hex="003B"/>
	<note>
		semicolon
	</note>
	<outline>
		<contour>
			<point x="257" y="460" type="line"/>
			<point x="113" y="460" type="line"/>
			<point x="77" y="295" type="line"/>
			<point x="221" y="295" type="line"/>
		</contour>
		<contour>
			<point x="206" y="165" type="line"/>
			<point x="58" y="165" type="line"/>
			<point x="-54" y="-123" type="line"/>
			<point x="54" y="-123" type="line"/>
		</contour>
	</outline>
</glyph>
<glyph name="less" format="2">
  <advance width="560"/>
  <unicode hex="003C"/>
  <note>
less
</note>
  <outline>
    <contour>
      <point x="468" y="143" type="line"/>
      <point x="214" y="267" type="line"/>
      <point x="520" y="391" type="line"/>
      <point x="548" y="532" type="line"/>
      <point x="79" y="328" type="line"/>
      <point x="57" y="226" type="line"/>
      <point x="440" y="22" type="line"/>
    </contour>
  </outline>
</glyph>
<glyph name="equal" format="2">
  <advance width="560"/>
  <unicode hex="003D"/>
  <note>
equal
</note>
  <outline>
    <contour>
      <point x="99" y="435" type="line"/>
      <point x="74" y="319" type="line"/>
      <point x="514" y="319" type="line"/>
      <point x="539" y="435" type="line"/>
    </contour>
    <contour>
      <point x="56" y="235" type="line"/>
      <point x="31" y="119" type="line"/>
      <point x="471" y="119" type="line"/>
      <point x="496" y="235" type="line"/>
    </contour>
  </outline>
</glyph>
<glyph name="greater" format="2">
  <advance width="560"/>
  <unicode hex="003E"/>
  <note>
greater
</note>
  <outline>
    <contour>
      <point x="102" y="411" type="line"/>
      <point x="356" y="287" type="line"/>
      <point x="50" y="163" type="line"/>
      <point x="22" y="22" type="line"/>
      <point x="491" y="226" type="line"/>
      <point x="513" y="328" type="line"/>
      <point x="130" y="532" type="line"/>
    </contour>
  </outline>
</glyph>
<glyph name="question" format="2">
	<advance width="425"/>
	<unicode hex="003F"/>
	<note>
		question
	</note>
	<outline>
		<contour>
			<point x="462" y="570" type="curve" smooth="yes"/>
			<point x="462" y="665"/>
			<point x="394" y="710"/>
			<point x="298" y="710" type="curve" smooth="yes"/>
			<point x="184" y="710"/>
			<point x="110" y="675"/>
			<point x="110" y="675" type="curve"/>
			<point x="96" y="574" type="line"/>
			<point x="96" y="574"/>
			<point x="174" y="592"/>
			<point x="239" y="592" type="curve" smooth="yes"/>
			<point x="297" y="592"/>
			<point x="317" y="576"/>
			<point x="317" y="546" type="curve" smooth="yes"/>
			<point x="317" y="510"/>
			<point x="293" y="479"/>
			<point x="208" y="420" type="curve" smooth="yes"/>
			<point x="134" y="369"/>
			<point x="113" y="337"/>
			<point x="113" y="292" type="curve" smooth="yes"/>
			<point x="113" y="261"/>
			<point x="123" y="235"/>
			<point x="123" y="235" type="curve"/>
			<point x="234" y="235" type="line"/>
			<point x="238" y="266" type="line" smooth="yes"/>
			<point x="242" y="294"/>
			<point x="254" y="313"/>
			<point x="338" y="367" type="curve" smooth="yes"/>
			<point x="424" y="422"/>
			<point x="462" y="486"/>
		</contour>
		<contour>
			<point x="242" y="155" type="line"/>
			<point x="98" y="155" type="line"/>
			<point x="65" y="0" type="line"/>
			<point x="209" y="0" type="line"/>
		</contour>
	</outline>
</glyph>
<glyph name="at" format="2">
  <advance width="999"/>
  <unicode hex="0040"/>
  <note>
at
</note>
  <outline>
    <contour>
      <point x="701" y="-1" type="curve" smooth="yes"/>
      <point x="883" y="-1"/>
      <point x="977" y="201"/>
      <point x="977" y="412" type="curve" smooth="yes"/>
      <point x="977" y="616"/>
      <point x="845" y="729"/>
      <point x="589" y="729" type="curve" smooth="yes"/>
      <point x="133" y="729"/>
      <point x="27" y="341"/>
      <point x="27" y="136" type="curve" smooth="yes"/>
      <point x="27" y="-114"/>
      <point x="169" y="-209"/>
      <point x="412" y="-209" type="curve" smooth="yes"/>
      <point x="470" y="-209"/>
      <point x="562" y="-199"/>
      <point x="562" y="-199" type="curve"/>
      <point x="582" y="-82" type="line"/>
      <point x="582" y="-82"/>
      <point x="487" y="-91"/>
      <point x="437" y="-91" type="curve" smooth="yes"/>
      <point x="245" y="-91"/>
      <point x="165" y="-22"/>
      <point x="165" y="143" type="curve" smooth="yes"/>
      <point x="165" y="305"/>
      <point x="233" y="611"/>
      <point x="582" y="611" type="curve" smooth="yes"/>
      <point x="754" y="611"/>
      <point x="841" y="541"/>
      <point x="841" y="396" type="curve" smooth="yes"/>
      <point x="841" y="290"/>
      <point x="807" y="112"/>
      <point x="727" y="112" type="curve" smooth="yes"/>
      <point x="703" y="112"/>
      <point x="690" y="123"/>
      <point x="690" y="147" type="curve" smooth="yes"/>
      <point x="690" y="174"/>
      <point x="701" y="223"/>
      <point x="720" y="309" type="curve" smooth="yes"/>
      <point x="754" y="464" type="line"/>
      <point x="684" y="481"/>
      <point x="596" y="498"/>
      <point x="534" y="498" type="curve" smooth="yes"/>
      <point x="348" y="498"/>
      <point x="280" y="289"/>
      <point x="280" y="167" type="curve" smooth="yes"/>
      <point x="280" y="62"/>
      <point x="332" y="-1"/>
      <point x="407" y="-1" type="curve" smooth="yes"/>
      <point x="495" y="-1"/>
      <point x="571" y="82"/>
      <point x="571" y="82" type="curve"/>
      <point x="581" y="32"/>
      <point x="622" y="-1"/>
    </contour>
    <contour>
      <point x="460" y="104" type="curve" smooth="yes"/>
      <point x="425" y="103"/>
      <point x="413" y="122"/>
      <point x="413" y="179" type="curve" smooth="yes"/>
      <point x="413" y="274"/>
      <point x="445" y="391"/>
      <point x="529" y="391" type="curve" smooth="yes"/>
      <point x="547" y="391"/>
      <point x="607" y="378"/>
      <point x="607" y="378" type="curve"/>
      <point x="566" y="187" type="line"/>
      <point x="543" y="157"/>
      <point x="501" y="105"/>
    </contour>
  </outline>
</glyph>
<glyph name="G" format="2">
  <advance width="604"/>
  <unicode hex="0047"/>
  <note>
G
</note>
  <outline>
    <contour>
      <point x="575" y="364" type="line"/>
      <point x="355" y="364" type="line"/>
      <point x="330" y="244" type="line"/>
      <point x="422" y="244" type="line"/>
      <point x="394" y="110" type="line"/>
      <point x="394" y="110"/>
      <point x="344" y="104"/>
      <point x="305" y="104" type="curve" smooth="yes"/>
      <point x="220" y="104"/>
      <point x="188" y="129"/>
      <point x="188" y="208" type="curve" smooth="yes"/>
      <point x="188" y="347"/>
      <point x="253" y="604"/>
      <point x="421" y="604" type="curve" smooth="yes"/>
      <point x="497" y="604"/>
      <point x="602" y="585"/>
      <point x="602" y="585" type="curve"/>
      <point x="629" y="692" type="line"/>
      <point x="629" y="692"/>
      <point x="522" y="726"/>
      <point x="421" y="726" type="curve" smooth="yes"/>
      <point x="141" y="726"/>
      <point x="48" y="392"/>
      <point x="48" y="195" type="curve" smooth="yes"/>
      <point x="48" y="63"/>
      <point x="105" y="-14"/>
      <point x="266" y="-14" type="curve" smooth="yes"/>
      <point x="356" y="-14"/>
      <point x="500" y="9"/>
      <point x="500" y="9" type="curve"/>
    </contour>
  </outline>
</glyph>
<glyph name="H" format="2">
  <advance width="669"/>
  <unicode hex="0048"/>
  <note>
H
</note>
  <outline>
    <contour>
      <point x="220" y="304" type="line"/>
      <point x="470" y="304" type="line"/>
      <point x="405" y="0" type="line"/>
      <point x="542" y="0" type="line"/>
      <point x="694" y="710" type="line"/>
      <point x="557" y="710" type="line"/>
      <point x="496" y="424" type="line"/>
      <point x="246" y="424" type="line"/>
      <point x="307" y="710" type="line"/>
      <point x="170" y="710" type="line"/>
      <point x="18" y="0" type="line"/>
      <point x="155" y="0" type="line"/>
    </contour>
  </outline>
</glyph>
<glyph name="I" format="2">
	<advance width="282"/>
	<unicode hex="0049"/>
	<note>
		I
	</note>
	<outline>
		<contour>
			<point x="307" y="710" type="line"/>
			<point x="170" y="710" type="line"/>
			<point x="18" y="0" type="line"/>
			<point x="155" y="0" type="line"/>
		</contour>
	</outline>
</glyph>
<glyph name="J" format="2">
	<advance width="312"/>
	<unicode hex="004A"/>
	<note>
		J
	</note>
	<outline>
		<contour>
			<point x="226" y="178" type="curve" smooth="yes"/>
			<point x="340" y="710" type="line"/>
			<point x="203" y="710" type="line"/>
			<point x="90" y="184" type="line" smooth="yes"/>
			<point x="78" y="127"/>
			<point x="49" y="113"/>
			<point x="0" y="113" type="curve"/>
			<point x="-25" y="-7" type="line"/>
			<point x="151" y="-7"/>
			<point x="194" y="28"/>
		</contour>
	</outline>
</glyph>
<glyph name="K" format="2">
	<advance width="585"/>
	<unicode hex="004B"/>
	<note>
		K
	</note>
	<outline>
		<contour>
			<point x="216" y="284" type="line"/>
			<point x="311" y="289" type="line"/>
			<point x="391" y="0" type="line"/>
			<point x="526" y="0" type="line"/>
			<point x="427" y="359" type="line"/>
			<point x="653" y="710" type="line"/>
			<point x="505" y="710" type="line"/>
			<point x="320" y="408" type="line"/>
			<point x="241" y="404" type="line"/>
			<point x="307" y="710" type="line"/>
			<point x="170" y="710" type="line"/>
			<point x="18" y="0" type="line"/>
			<point x="155" y="0" type="line"/>
		</contour>
	</outline>
</glyph>
<glyph name="L" format="2">
  <advance width="484"/>
  <unicode hex="004C"/>
  <note>
L
</note>
  <outline>
    <contour>
      <point x="170" y="710" type="line"/>
      <point x="18" y="0" type="line"/>
      <point x="419" y="0" type="line"/>
      <point x="445" y="122" type="line"/>
      <point x="181" y="122" type="line"/>
      <point x="307" y="710" type="line"/>
    </contour>
  </outline>
</glyph>
<glyph name="M" format="2">
  <advance width="829"/>
  <unicode hex="004D"/>
  <note>
M
</note>
  <outline>
    <contour>
      <point x="409" y="710" type="line"/>
      <point x="169" y="710" type="line"/>
      <point x="18" y="0" type="line"/>
      <point x="149" y="0" type="line"/>
      <point x="267" y="556" type="line"/>
      <point x="297" y="556" type="line"/>
      <point x="291" y="0" type="line"/>
      <point x="435" y="0" type="line"/>
      <point x="664" y="556" type="line"/>
      <point x="694" y="556" type="line"/>
      <point x="576" y="0" type="line"/>
      <point x="703" y="0" type="line"/>
      <point x="854" y="710" type="line"/>
      <point x="621" y="710" type="line"/>
      <point x="395" y="152" type="line"/>
    </contour>
  </outline>
</glyph>
<glyph name="N" format="2">
  <advance width="704"/>
  <unicode hex="004E"/>
  <note>
N
</note>
  <outline>
    <contour>
      <point x="411" y="710" type="line"/>
      <point x="170" y="710" type="line"/>
      <point x="18" y="0" type="line"/>
      <point x="151" y="0" type="line"/>
      <point x="277" y="590" type="line"/>
      <point x="307" y="590" type="line"/>
      <point x="342" y="0" type="line"/>
      <point x="578" y="0" type="line"/>
      <point x="729" y="710" type="line"/>
      <point x="596" y="710" type="line"/>
      <point x="470" y="120" type="line"/>
      <point x="440" y="120" type="line"/>
    </contour>
  </outline>
</glyph>
<glyph name="P" format="2">
  <advance width="601"/>
  <unicode hex="0050"/>
  <note>
P
</note>
  <outline>
    <contour>
      <point x="155" y="0" type="line"/>
      <point x="197" y="198" type="line"/>
      <point x="317" y="198" type="line" smooth="yes"/>
      <point x="536" y="198"/>
      <point x="617" y="353"/>
      <point x="617" y="508" type="curve" smooth="yes"/>
      <point x="617" y="648"/>
      <point x="553" y="710"/>
      <point x="414" y="710" type="curve" smooth="yes"/>
      <point x="170" y="710" type="line"/>
      <point x="18" y="0" type="line"/>
    </contour>
    <contour>
      <point x="331" y="316" type="curve" smooth="yes"/>
      <point x="223" y="316" type="line"/>
      <point x="282" y="592" type="line"/>
      <point x="399" y="592" type="line" smooth="yes"/>
      <point x="457" y="592"/>
      <point x="478" y="563"/>
      <point x="478" y="488" type="curve" smooth="yes"/>
      <point x="478" y="396"/>
      <point x="435" y="316"/>
    </contour>
  </outline>
</glyph>
<glyph name="Q" format="2">
	<advance width="680"/>
	<unicode hex="0051"/>
	<note>
		Q
	</note>
	<outline>
		<contour>
			<point x="281" y="-12" type="curve" smooth="yes"/>
			<point x="298" y="-12"/>
			<point x="313" y="-11"/>
			<point x="327" y="-9" type="curve"/>
			<point x="375" y="-126" type="line"/>
			<point x="516" y="-72" type="line"/>
			<point x="471" y="33" type="line"/>
			<point x="608" y="122"/>
			<point x="670" y="309"/>
			<point x="670" y="481" type="curve" smooth="yes"/>
			<point x="670" y="632"/>
			<point x="589" y="726"/>
			<point x="424" y="726" type="curve" smooth="yes"/>
			<point x="157" y="726"/>
			<point x="54" y="454"/>
			<point x="54" y="231" type="curve" smooth="yes"/>
			<point x="54" y="83"/>
			<point x="136" y="-12"/>
		</contour>
		<contour>
			<point x="305" y="107" type="curve" smooth="yes"/>
			<point x="232" y="107"/>
			<point x="196" y="146"/>
			<point x="196" y="228" type="curve" smooth="yes"/>
			<point x="196" y="387"/>
			<point x="261" y="606"/>
			<point x="419" y="606" type="curve" smooth="yes"/>
			<point x="492" y="606"/>
			<point x="528" y="566"/>
			<point x="528" y="483" type="curve" smooth="yes"/>
			<point x="528" y="382"/>
			<point x="482" y="107"/>
		</contour>
	</outline>
</glyph>
<glyph name="R" format="2">
	<advance width="611"/>
	<unicode hex="0052"/>
	<note>
		R
	</note>
	<outline>
		<contour>
			<point x="155" y="0" type="line"/>
			<point x="206" y="238" type="line"/>
			<point x="330" y="238" type="line"/>
			<point x="385" y="0" type="line"/>
			<point x="521" y="0" type="line"/>
			<point x="455" y="273" type="line"/>
			<point x="564" y="311"/>
			<point x="619" y="395"/>
			<point x="619" y="507" type="curve" smooth="yes"/>
			<point x="619" y="641"/>
			<point x="555" y="710"/>
			<point x="421" y="710" type="curve" smooth="yes"/>
			<point x="170" y="710" type="line"/>
			<point x="18" y="0" type="line"/>
		</contour>
		<contour>
			<point x="348" y="356" type="curve" smooth="yes"/>
			<point x="231" y="356" type="line"/>
			<point x="282" y="592" type="line"/>
			<point x="403" y="592" type="line" smooth="yes"/>
			<point x="455" y="592"/>
			<point x="477" y="567"/>
			<point x="477" y="498" type="curve" smooth="yes"/>
			<point x="477" y="421"/>
			<point x="441" y="356"/>
		</contour>
	</outline>
</glyph>
<glyph name="U" format="2">
	<advance width="643"/>
	<unicode hex="0055"/>
	<note>
		U
	</note>
	<outline>
		<contour>
			<point x="199" y="234" type="curve" smooth="yes"/>
			<point x="301" y="710" type="line"/>
			<point x="164" y="710" type="line"/>
			<point x="66" y="251" type="line" smooth="yes"/>
			<point x="31" y="88"/>
			<point x="104" y="-14"/>
			<point x="295" y="-14" type="curve" smooth="yes"/>
			<point x="461" y="-14"/>
			<point x="532" y="52"/>
			<point x="567" y="218" type="curve" smooth="yes"/>
			<point x="672" y="710" type="line"/>
			<point x="535" y="710" type="line"/>
			<point x="432" y="227" type="line" smooth="yes"/>
			<point x="413" y="137"/>
			<point x="373" y="106"/>
			<point x="301" y="106" type="curve" smooth="yes"/>
			<point x="213" y="106"/>
			<point x="181" y="151"/>
		</contour>
	</outline>
</glyph>
<glyph name="V" format="2">
	<advance width="625"/>
	<unicode hex="0056"/>
	<note>
		V
	</note>
	<outline>
		<contour>
			<point x="374" y="0" type="line"/>
			<point x="710" y="710" type="line"/>
			<point x="568" y="710" type="line"/>
			<point x="293" y="120" type="line"/>
			<point x="263" y="120" type="line"/>
			<point x="253" y="710" type="line"/>
			<point x="119" y="710" type="line"/>
			<point x="133" y="0" type="line"/>
		</contour>
	</outline>
</glyph>
<glyph name="W" format="2">
  <advance width="922"/>
  <unicode hex="0057"/>
  <note>
W
</note>
  <outline>
    <contour>
      <point x="221" y="118" type="line"/>
      <point x="262" y="710" type="line"/>
      <point x="127" y="710" type="line"/>
      <point x="84" y="0" type="line"/>
      <point x="316" y="0" type="line"/>
      <point x="523" y="539" type="line"/>
      <point x="502" y="0" type="line"/>
      <point x="723" y="0" type="line"/>
      <point x="990" y="710" type="line"/>
      <point x="852" y="710" type="line"/>
      <point x="646" y="118" type="line"/>
      <point x="616" y="118" type="line"/>
      <point x="638" y="696" type="line"/>
      <point x="473" y="696" type="line"/>
      <point x="251" y="118" type="line"/>
    </contour>
  </outline>
</glyph>
<glyph name="X" format="2">
	<advance width="596"/>
	<unicode hex="0058"/>
	<note>
		X
	</note>
	<outline>
		<contour>
			<point x="244" y="367" type="line"/>
			<point x="-44" y="0" type="line"/>
			<point x="113" y="0" type="line"/>
			<point x="291" y="248" type="line"/>
			<point x="375" y="0" type="line"/>
			<point x="514" y="0" type="line"/>
			<point x="391" y="336" type="line"/>
			<point x="688" y="710" type="line"/>
			<point x="536" y="714" type="line"/>
			<point x="344" y="454" type="line"/>
			<point x="255" y="710" type="line"/>
			<point x="116" y="710" type="line"/>
		</contour>
	</outline>
</glyph>
<glyph name="Y" format="2">
	<advance width="547"/>
	<unicode hex="0059"/>
	<note>
		Y
	</note>
	<outline>
		<contour>
			<point x="215" y="298" type="line"/>
			<point x="154" y="0" type="line"/>
			<point x="289" y="0" type="line"/>
			<point x="350" y="298" type="line"/>
			<point x="641" y="710" type="line"/>
			<point x="484" y="710" type="line"/>
			<point x="306" y="434" type="line"/>
			<point x="236" y="710" type="line"/>
			<point x="97" y="710" type="line"/>
		</contour>
	</outline>
</glyph>
<glyph name="Z" format="2">
  <advance width="525"/>
  <unicode hex="005A"/>
  <note>
Z
</note>
  <outline>
    <contour>
      <point x="574" y="710" type="line"/>
      <point x="138" y="710" type="line"/>
      <point x="112" y="590" type="line"/>
      <point x="379" y="590" type="line"/>
      <point x="373" y="565" type="line"/>
      <point x="14" y="119" type="line"/>
      <point x="-11" y="0" type="line"/>
      <point x="435" y="0" type="line"/>
      <point x="460" y="120" type="line"/>
      <point x="186" y="120" type="line"/>
      <point x="191" y="145" type="line"/>
      <point x="548" y="590" type="line"/>
    </contour>
  </outline>
</glyph>
<glyph name="bracketleft" format="2">
	<advance width="354"/>
	<unicode hex="005B"/>
	<note>
		bracketleft
	</note>
	<outline>
		<contour>
			<point x="282" y="628" type="line"/>
			<point x="402" y="628" type="line"/>
			<point x="428" y="748" type="line"/>
			<point x="176" y="748" type="line"/>
			<point x="-10" y="-123" type="line"/>
			<point x="242" y="-123" type="line"/>
			<point x="268" y="-3" type="line"/>
			<point x="148" y="-3" type="line"/>
		</contour>
	</outline>
</glyph>
<glyph name="backslash" format="2">
  <advance width="692"/>
  <unicode hex="005C"/>
  <note>
backslash
</note>
  <outline>
    <contour>
      <point x="631" y="20" type="line"/>
      <point x="193" y="718" type="line"/>
      <point x="96" y="658" type="line"/>
      <point x="535" y="-40" type="line"/>
    </contour>
  </outline>
</glyph>
<glyph name="bracketright" format="2">
  <advance width="354"/>
  <unicode hex="005D"/>
  <note>
bracketright
</note>
  <outline>
    <contour>
      <point x="97" y="-3" type="line"/>
      <point x="-23" y="-3" type="line"/>
      <point x="-49" y="-123" type="line"/>
      <point x="203" y="-123" type="line"/>
      <point x="389" y="748" type="line"/>
      <point x="137" y="748" type="line"/>
      <point x="111" y="628" type="line"/>
      <point x="231" y="628" type="line"/>
    </contour>
  </outline>
</glyph>
<glyph name="asciicircum" format="2">
	<advance width="560"/>
	<unicode hex="005E"/>
	<note>
		asciicircum
	</note>
	<outline>
		<contour>
			<point x="190" y="313" type="line"/>
			<point x="349" y="530" type="line"/>
			<point x="416" y="313" type="line"/>
			<point x="547" y="313" type="line"/>
			<point x="427" y="660" type="line"/>
			<point x="309" y="660" type="line"/>
			<point x="41" y="313" type="line"/>
		</contour>
	</outline>
</glyph>
<glyph name="underscore" format="2">
  <advance width="545"/>
  <unicode hex="005F"/>
  <note>
underscore
</note>
  <outline>
    <contour>
      <point x="441" y="-42" type="line"/>
      <point x="-19" y="-42" type="line"/>
      <point x="-41" y="-142" type="line"/>
      <point x="419" y="-142" type="line"/>
    </contour>
  </outline>
</glyph>
<glyph name="grave" format="2">
  <advance width="406"/>
  <unicode hex="0060"/>
  <note>
grave
</note>
  <outline>
    <contour>
      <point x="343" y="564" type="line"/>
      <point x="377" y="651" type="line"/>
      <point x="131" y="753" type="line"/>
      <point x="85" y="638" type="line"/>
    </contour>
  </outline>
</glyph>
<glyph name="b" format="2">
  <advance width="534"/>
  <unicode hex="0062"/>
  <note>
b
</note>
  <outline>
    <contour>
      <point x="374" y="526" type="curve" smooth="yes"/>
      <point x="300" y="526"/>
      <point x="237" y="465"/>
      <point x="237" y="465" type="curve"/>
      <point x="294" y="730" type="line"/>
      <point x="164" y="730" type="line"/>
      <point x="12" y="24" type="line"/>
      <point x="12" y="24"/>
      <point x="161" y="-14"/>
      <point x="253" y="-14" type="curve" smooth="yes"/>
      <point x="413" y="-14"/>
      <point x="505" y="166"/>
      <point x="505" y="345" type="curve" smooth="yes"/>
      <point x="505" y="446"/>
      <point x="458" y="526"/>
    </contour>
    <contour>
      <point x="257" y="98" type="curve" smooth="yes"/>
      <point x="224" y="98"/>
      <point x="163" y="112"/>
      <point x="163" y="112" type="curve"/>
      <point x="213" y="351" type="line"/>
      <point x="213" y="351"/>
      <point x="277" y="414"/>
      <point x="323" y="414" type="curve" smooth="yes"/>
      <point x="362" y="414"/>
      <point x="369" y="380"/>
      <point x="369" y="331" type="curve" smooth="yes"/>
      <point x="369" y="251"/>
      <point x="349" y="98"/>
    </contour>
  </outline>
</glyph>
<glyph name="c" format="2">
  <advance width="435"/>
  <unicode hex="0063"/>
  <note>
c
</note>
  <outline>
    <contour>
      <point x="303" y="526" type="curve" smooth="yes"/>
      <point x="94" y="526"/>
      <point x="32" y="328"/>
      <point x="32" y="170" type="curve" smooth="yes"/>
      <point x="32" y="54"/>
      <point x="94" y="-14"/>
      <point x="207" y="-14" type="curve" smooth="yes"/>
      <point x="277" y="-14"/>
      <point x="352" y="6"/>
      <point x="352" y="6" type="curve"/>
      <point x="369" y="111" type="line"/>
      <point x="369" y="111"/>
      <point x="293" y="100"/>
      <point x="238" y="100" type="curve" smooth="yes"/>
      <point x="178" y="100"/>
      <point x="164" y="119"/>
      <point x="164" y="184" type="curve" smooth="yes"/>
      <point x="164" y="304"/>
      <point x="203" y="411"/>
      <point x="311" y="411" type="curve" smooth="yes"/>
      <point x="361" y="411"/>
      <point x="418" y="399"/>
      <point x="418" y="399" type="curve"/>
      <point x="444" y="504" type="line"/>
      <point x="444" y="504"/>
      <point x="376" y="526"/>
    </contour>
  </outline>
</glyph>
<glyph name="d" format="2">
	<advance width="539"/>
	<unicode hex="0064"/>
	<note>
		d
	</note>
	<outline>
		<contour>
			<point x="305" y="0" type="line"/>
			<point x="423" y="0" type="line"/>
			<point x="579" y="730" type="line"/>
			<point x="448" y="730" type="line"/>
			<point x="400" y="506" type="line"/>
			<point x="400" y="506"/>
			<point x="313" y="526"/>
			<point x="271" y="526" type="curve" smooth="yes"/>
			<point x="115" y="526"/>
			<point x="32" y="339"/>
			<point x="30" y="165" type="curve" smooth="yes"/>
			<point x="29" y="54"/>
			<point x="79" y="-14"/>
			<point x="165" y="-14" type="curve" smooth="yes"/>
			<point x="250" y="-14"/>
			<point x="319" y="77"/>
			<point x="319" y="77" type="curve"/>
		</contour>
		<contour>
			<point x="379" y="400" type="curve"/>
			<point x="334" y="192" type="line"/>
			<point x="334" y="192"/>
			<point x="267" y="97"/>
			<point x="206" y="97" type="curve" smooth="yes"/>
			<point x="169" y="97"/>
			<point x="159" y="129"/>
			<point x="160" y="172" type="curve" smooth="yes"/>
			<point x="162" y="300"/>
			<point x="196" y="414"/>
			<point x="274" y="414" type="curve" smooth="yes"/>
			<point x="312" y="414"/>
			<point x="379" y="400"/>
		</contour>
	</outline>
</glyph>
<glyph name="f" format="2">
  <advance width="358"/>
  <unicode hex="0066"/>
  <note>
f
</note>
  <outline>
    <contour>
      <point x="-10" y="-230" type="line"/>
      <point x="100" y="-230" type="line"/>
      <point x="171" y="3" type="line"/>
      <point x="253" y="386" type="line"/>
      <point x="365" y="386" type="line"/>
      <point x="393" y="500" type="line"/>
      <point x="278" y="500" type="line"/>
      <point x="300" y="606"/>
      <point x="307" y="620"/>
      <point x="362" y="620" type="curve" smooth="yes"/>
      <point x="376" y="620"/>
      <point x="424" y="618"/>
      <point x="424" y="618" type="curve"/>
      <point x="449" y="727" type="line"/>
      <point x="449" y="727"/>
      <point x="383" y="740"/>
      <point x="338" y="740" type="curve" smooth="yes"/>
      <point x="241" y="740"/>
      <point x="190" y="701"/>
      <point x="167" y="589" type="curve" smooth="yes"/>
      <point x="149" y="500" type="line"/>
      <point x="83" y="500" type="line"/>
      <point x="55" y="386" type="line"/>
      <point x="124" y="386" type="line"/>
    </contour>
  </outline>
</glyph>
<glyph name="i" format="2">
	<advance width="254"/>
	<unicode hex="0069"/>
	<note>
		i
	</note>
	<outline>
		<contour>
			<point x="283" y="700" type="line"/>
			<point x="152" y="700" type="line"/>
			<point x="124" y="564" type="line"/>
			<point x="255" y="564" type="line"/>
		</contour>
		<contour>
			<point x="244" y="500" type="line"/>
			<point x="114" y="500" type="line"/>
			<point x="8" y="0" type="line"/>
			<point x="138" y="0" type="line"/>
		</contour>
	</outline>
</glyph>
<glyph name="j" format="2">
  <advance width="255"/>
  <unicode hex="006A"/>
  <note>
j
</note>
  <outline>
    <contour>
      <point x="282" y="700" type="line"/>
      <point x="151" y="700" type="line"/>
      <point x="123" y="564" type="line"/>
      <point x="254" y="564" type="line"/>
    </contour>
    <contour>
      <point x="245" y="500" type="line"/>
      <point x="114" y="500" type="line"/>
      <point x="10" y="14" type="line" smooth="yes"/>
      <point x="-8" y="-71"/>
      <point x="-26" y="-87"/>
      <point x="-118" y="-141" type="curve"/>
      <point x="-87" y="-240" type="line"/>
      <point x="64" y="-170"/>
      <point x="111" y="-126"/>
      <point x="141" y="13" type="curve" smooth="yes"/>
    </contour>
  </outline>
</glyph>
<glyph name="n" format="2">
	<advance width="523"/>
	<unicode hex="006E"/>
	<note>
		n
	</note>
	<outline>
		<contour>
			<point x="117" y="510" type="line"/>
			<point x="8" y="0" type="line"/>
			<point x="139" y="0" type="line"/>
			<point x="212" y="341" type="line"/>
			<point x="212" y="341"/>
			<point x="249" y="410"/>
			<point x="312" y="410" type="curve" smooth="yes"/>
			<point x="340" y="410"/>
			<point x="350" y="394"/>
			<point x="350" y="367" type="curve" smooth="yes"/>
			<point x="350" y="324"/>
			<point x="342" y="290"/>
			<point x="335" y="255" type="curve" smooth="yes"/>
			<point x="285" y="0" type="line"/>
			<point x="415" y="0" type="line"/>
			<point x="467" y="261" type="line" smooth="yes"/>
			<point x="473" y="291"/>
			<point x="486" y="357"/>
			<point x="486" y="407" type="curve" smooth="yes"/>
			<point x="486" y="468"/>
			<point x="457" y="526"/>
			<point x="379" y="526" type="curve" smooth="yes"/>
			<point x="291" y="526"/>
			<point x="228" y="451"/>
			<point x="228" y="451" type="curve"/>
			<point x="237" y="510" type="line"/>
		</contour>
	</outline>
</glyph>
<glyph name="p" format="2">
	<advance width="538"/>
	<unicode hex="0070"/>
	<note>
		p
	</note>
	<outline>
		<contour>
			<point x="235" y="510" type="line"/>
			<point x="117" y="510" type="line"/>
			<point x="-42" y="-230" type="line"/>
			<point x="89" y="-230" type="line"/>
			<point x="140" y="6" type="line"/>
			<point x="140" y="6"/>
			<point x="226" y="-14"/>
			<point x="268" y="-14" type="curve" smooth="yes"/>
			<point x="424" y="-14"/>
			<point x="510" y="189"/>
			<point x="510" y="347" type="curve" smooth="yes"/>
			<point x="510" y="458"/>
			<point x="461" y="526"/>
			<point x="375" y="526" type="curve" smooth="yes"/>
			<point x="290" y="526"/>
			<point x="221" y="433"/>
			<point x="221" y="433" type="curve"/>
		</contour>
		<contour>
			<point x="334" y="415" type="curve" smooth="yes"/>
			<point x="371" y="415"/>
			<point x="380" y="383"/>
			<point x="380" y="340" type="curve" smooth="yes"/>
			<point x="380" y="228"/>
			<point x="343" y="98"/>
			<point x="265" y="98" type="curve" smooth="yes"/>
			<point x="227" y="98"/>
			<point x="161" y="112"/>
			<point x="161" y="112" type="curve"/>
			<point x="206" y="318" type="line"/>
			<point x="206" y="318"/>
			<point x="273" y="415"/>
		</contour>
	</outline>
</glyph>
<glyph name="q" format="2">
	<advance width="537"/>
	<unicode hex="0071"/>
	<note>
		q
	</note>
	<outline>
		<contour>
			<point x="162" y="-14" type="curve" smooth="yes"/>
			<point x="236" y="-14"/>
			<point x="303" y="50"/>
			<point x="303" y="50" type="curve"/>
			<point x="243" y="-230" type="line"/>
			<point x="372" y="-230" type="line"/>
			<point x="526" y="488" type="line"/>
			<point x="526" y="488"/>
			<point x="377" y="526"/>
			<point x="285" y="526" type="curve" smooth="yes"/>
			<point x="125" y="526"/>
			<point x="31" y="358"/>
			<point x="31" y="167" type="curve" smooth="yes"/>
			<point x="31" y="66"/>
			<point x="78" y="-14"/>
		</contour>
		<contour>
			<point x="281" y="414" type="curve" smooth="yes"/>
			<point x="314" y="414"/>
			<point x="377" y="400"/>
			<point x="377" y="400" type="curve"/>
			<point x="327" y="161" type="line"/>
			<point x="327" y="161"/>
			<point x="259" y="98"/>
			<point x="213" y="98" type="curve" smooth="yes"/>
			<point x="174" y="98"/>
			<point x="167" y="132"/>
			<point x="167" y="181" type="curve" smooth="yes"/>
			<point x="167" y="273"/>
			<point x="189" y="414"/>
		</contour>
	</outline>
</glyph>
<glyph name="v" format="2">
  <advance width="484"/>
  <unicode hex="0076"/>
  <note>
v
</note>
  <outline>
    <contour>
      <point x="194" y="114" type="line"/>
      <point x="209" y="510" type="line"/>
      <point x="78" y="510" type="line"/>
      <point x="68" y="0" type="line"/>
      <point x="294" y="0" type="line"/>
      <point x="522" y="510" type="line"/>
      <point x="385" y="510" type="line"/>
      <point x="219" y="114" type="line"/>
    </contour>
  </outline>
</glyph>
<glyph name="x" format="2">
  <advance width="459"/>
  <unicode hex="0078"/>
  <note>
x
</note>
  <outline>
    <contour>
      <point x="159" y="273" type="line"/>
      <point x="-41" y="0" type="line"/>
      <point x="92" y="0" type="line"/>
      <point x="200" y="162" type="line"/>
      <point x="253" y="0" type="line"/>
      <point x="385" y="0" type="line"/>
      <point x="295" y="245" type="line"/>
      <point x="508" y="510" type="line"/>
      <point x="368" y="510" type="line"/>
      <point x="253" y="350" type="line"/>
      <point x="203" y="510" type="line"/>
      <point x="68" y="510" type="line"/>
    </contour>
  </outline>
</glyph>
<glyph name="y" format="2">
  <advance width="483"/>
  <unicode hex="0079"/>
  <note>
y
</note>
  <outline>
    <contour>
      <point x="195" y="114" type="line"/>
      <point x="209" y="510" type="line"/>
      <point x="79" y="510" type="line"/>
      <point x="69" y="0" type="line"/>
      <point x="157" y="0" type="line"/>
      <point x="47" y="-230" type="line"/>
      <point x="185" y="-230" type="line"/>
      <point x="523" y="510" type="line"/>
      <point x="387" y="510" type="line"/>
      <point x="220" y="114" type="line"/>
    </contour>
  </outline>
</glyph>
<glyph name="braceleft" format="2">
	<advance width="376"/>
	<unicode hex="007B"/>
	<note>
		braceleft
	</note>
	<outline>
		<contour>
			<point x="256" y="173" type="curve" smooth="yes"/>
			<point x="273" y="253"/>
			<point x="266" y="290"/>
			<point x="162" y="314" type="curve"/>
			<point x="276" y="338"/>
			<point x="297" y="367"/>
			<point x="314" y="447" type="curve" smooth="yes"/>
			<point x="321" y="480"/>
			<point x="325" y="534"/>
			<point x="332" y="567" type="curve" smooth="yes"/>
			<point x="341" y="607"/>
			<point x="362" y="635"/>
			<point x="424" y="640" type="curve"/>
			<point x="445" y="754" type="line"/>
			<point x="294" y="749"/>
			<point x="231" y="715"/>
			<point x="203" y="586" type="curve" smooth="yes"/>
			<point x="195" y="549"/>
			<point x="192" y="492"/>
			<point x="185" y="460" type="curve" smooth="yes"/>
			<point x="176" y="414"/>
			<point x="133" y="379"/>
			<point x="53" y="361" type="curve"/>
			<point x="33" y="267" type="line"/>
			<point x="104" y="247"/>
			<point x="131" y="206"/>
			<point x="122" y="160" type="curve" smooth="yes"/>
			<point x="115" y="131"/>
			<point x="98" y="101"/>
			<point x="90" y="62" type="curve" smooth="yes"/>
			<point x="64" y="-57"/>
			<point x="103" y="-124"/>
			<point x="263" y="-129" type="curve"/>
			<point x="284" y="-15" type="line"/>
			<point x="224" y="-10"/>
			<point x="217" y="20"/>
			<point x="225" y="60" type="curve" smooth="yes"/>
			<point x="232" y="93"/>
			<point x="249" y="140"/>
		</contour>
	</outline>
</glyph>
<glyph name="bar" format="2">
	<advance width="280"/>
	<unicode hex="007C"/>
	<note>
		bar
	</note>
	<outline>
		<contour>
			<point x="308" y="730" type="line"/>
			<point x="174" y="730" type="line"/>
			<point x="-30" y="-230" type="line"/>
			<point x="104" y="-230" type="line"/>
		</contour>
	</outline>
</glyph>
<glyph name="braceright" format="2">
	<advance width="376"/>
	<unicode hex="007D"/>
	<note>
		braceright
	</note>
	<outline>
		<contour>
			<point x="145" y="452" type="curve" smooth="yes"/>
			<point x="128" y="372"/>
			<point x="135" y="335"/>
			<point x="239" y="311" type="curve"/>
			<point x="125" y="287"/>
			<point x="104" y="258"/>
			<point x="87" y="178" type="curve" smooth="yes"/>
			<point x="80" y="145"/>
			<point x="76" y="91"/>
			<point x="69" y="58" type="curve" smooth="yes"/>
			<point x="60" y="18"/>
			<point x="39" y="-10"/>
			<point x="-23" y="-15" type="curve"/>
			<point x="-44" y="-129" type="line"/>
			<point x="107" y="-124"/>
			<point x="170" y="-90"/>
			<point x="198" y="39" type="curve" smooth="yes"/>
			<point x="206" y="76"/>
			<point x="209" y="133"/>
			<point x="216" y="165" type="curve" smooth="yes"/>
			<point x="225" y="211"/>
			<point x="268" y="246"/>
			<point x="348" y="264" type="curve"/>
			<point x="368" y="358" type="line"/>
			<point x="297" y="378"/>
			<point x="270" y="419"/>
			<point x="279" y="465" type="curve" smooth="yes"/>
			<point x="286" y="494"/>
			<point x="303" y="524"/>
			<point x="311" y="563" type="curve" smooth="yes"/>
			<point x="337" y="682"/>
			<point x="298" y="749"/>
			<point x="138" y="754" type="curve"/>
			<point x="117" y="640" type="line"/>
			<point x="177" y="635"/>
			<point x="184" y="605"/>
			<point x="176" y="565" type="curve" smooth="yes"/>
			<point x="169" y="532"/>
			<point x="152" y="485"/>
		</contour>
	</outline>
</glyph>
<glyph name="asciitilde" format="2">
  <advance width="560"/>
  <unicode hex="007E"/>
  <note>
asciitilde
</note>
  <outline>
    <contour>
      <point x="533" y="267" type="curve"/>
      <point x="511" y="354" type="line"/>
      <point x="511" y="354"/>
      <point x="439" y="316"/>
      <point x="400" y="316" type="curve" smooth="yes"/>
      <point x="352" y="316"/>
      <point x="260" y="360"/>
      <point x="206" y="360" type="curve" smooth="yes"/>
      <point x="146" y="360"/>
      <point x="37" y="288"/>
      <point x="37" y="288" type="curve"/>
      <point x="59" y="201" type="line"/>
      <point x="59" y="201"/>
      <point x="129" y="240"/>
      <point x="177" y="240" type="curve" smooth="yes"/>
      <point x="215" y="240"/>
      <point x="318" y="196"/>
      <point x="372" y="196" type="curve" smooth="yes"/>
      <point x="432" y="196"/>
      <point x="533" y="267"/>
    </contour>
  </outline>
</glyph>
<glyph name="exclamdown" format="2">
	<advance width="257"/>
	<unicode hex="00A1"/>
	<note>
		exclamdown
	</note>
	<outline>
		<contour>
			<point x="75" y="345" type="line"/>
			<point x="219" y="345" type="line"/>
			<point x="252" y="500" type="line"/>
			<point x="108" y="500" type="line"/>
		</contour>
		<contour>
			<point x="-45" y="-210" type="line"/>
			<point x="101" y="-210" type="line"/>
			<point x="186" y="240" type="line"/>
			<point x="68" y="240" type="line"/>
		</contour>
	</outline>
</glyph>
<glyph name="cent" format="2">
  <advance width="462"/>
  <unicode hex="00A2"/>
  <note>
cent
</note>
  <outline>
    <contour>
      <point x="190" y="57" type="curve"/>
      <point x="165" y="-57" type="line"/>
      <point x="271" y="-57" type="line"/>
      <point x="297" y="62" type="line"/>
      <point x="339" y="65"/>
      <point x="380" y="73"/>
      <point x="380" y="73" type="curve"/>
      <point x="398" y="175" type="line"/>
      <point x="398" y="175"/>
      <point x="319" y="171"/>
      <point x="281" y="171" type="curve" smooth="yes"/>
      <point x="212" y="171"/>
      <point x="184" y="192"/>
      <point x="184" y="239" type="curve" smooth="yes"/>
      <point x="184" y="279"/>
      <point x="191" y="384"/>
      <point x="321" y="384" type="curve" smooth="yes"/>
      <point x="359" y="384"/>
      <point x="432" y="381"/>
      <point x="432" y="381" type="curve"/>
      <point x="457" y="481" type="line"/>
      <point x="457" y="481"/>
      <point x="427" y="490"/>
      <point x="385" y="494" type="curve"/>
      <point x="409" y="609" type="line"/>
      <point x="303" y="609" type="line"/>
      <point x="279" y="498" type="line"/>
      <point x="113" y="485"/>
      <point x="44" y="335"/>
      <point x="44" y="212" type="curve" smooth="yes"/>
      <point x="44" y="118"/>
      <point x="97" y="63"/>
    </contour>
  </outline>
</glyph>
<glyph name="sterling" format="2">
  <advance width="491"/>
  <unicode hex="00A3"/>
  <note>
sterling
</note>
  <outline>
    <contour>
      <point x="492" y="544" type="curve"/>
      <point x="518" y="648" type="line"/>
      <point x="518" y="648"/>
      <point x="445" y="672"/>
      <point x="370" y="672" type="curve" smooth="yes"/>
      <point x="263" y="672"/>
      <point x="197" y="639"/>
      <point x="172" y="520" type="curve" smooth="yes"/>
      <point x="154" y="433" type="line"/>
      <point x="90" y="433" type="line"/>
      <point x="65" y="319" type="line"/>
      <point x="129" y="319" type="line"/>
      <point x="86" y="114" type="line"/>
      <point x="12" y="114" type="line"/>
      <point x="-12" y="0" type="line"/>
      <point x="327" y="0" type="line"/>
      <point x="411" y="18" type="line"/>
      <point x="414" y="130" type="line"/>
      <point x="342" y="114" type="line"/>
      <point x="218" y="114" type="line"/>
      <point x="261" y="319" type="line"/>
      <point x="414" y="319" type="line"/>
      <point x="439" y="433" type="line"/>
      <point x="286" y="433" type="line"/>
      <point x="297" y="487" type="line" smooth="yes"/>
      <point x="307" y="532"/>
      <point x="327" y="552"/>
      <point x="363" y="552" type="curve" smooth="yes"/>
      <point x="426" y="552"/>
      <point x="492" y="544"/>
    </contour>
  </outline>
</glyph>
<glyph name="currency" format="2">
	<advance width="572"/>
	<unicode hex="00A4"/>
	<note>
		currency
	</note>
	<outline>
		<contour>
			<point x="344" y="105" type="curve"/>
			<point x="402" y="32" type="line"/>
			<point x="501" y="115" type="line"/>
			<point x="443" y="187" type="line"/>
			<point x="475" y="231"/>
			<point x="494" y="270"/>
			<point x="494" y="323" type="curve" smooth="yes"/>
			<point x="494" y="336"/>
			<point x="492" y="348"/>
			<point x="489" y="361" type="curve"/>
			<point x="577" y="434" type="line"/>
			<point x="502" y="530" type="line"/>
			<point x="413" y="457" type="line"/>
			<point x="390" y="470"/>
			<point x="364" y="475"/>
			<point x="334" y="475" type="curve" smooth="yes"/>
			<point x="303" y="475"/>
			<point x="266" y="463"/>
			<point x="237" y="450" type="curve"/>
			<point x="181" y="523" type="line"/>
			<point x="81" y="442" type="line"/>
			<point x="138" y="369" type="line"/>
			<point x="110" y="328"/>
			<point x="90" y="283"/>
			<point x="90" y="233" type="curve" smooth="yes"/>
			<point x="90" y="220"/>
			<point x="91" y="207"/>
			<point x="94" y="195" type="curve"/>
			<point x="7" y="123" type="line"/>
			<point x="82" y="26" type="line"/>
			<point x="170" y="99" type="line"/>
			<point x="193" y="86"/>
			<point x="219" y="81"/>
			<point x="250" y="81" type="curve" smooth="yes"/>
			<point x="280" y="81"/>
			<point x="315" y="92"/>
		</contour>
		<contour>
			<point x="273" y="192" type="curve" smooth="yes"/>
			<point x="232" y="192"/>
			<point x="204" y="222"/>
			<point x="204" y="260" type="curve" smooth="yes"/>
			<point x="204" y="315"/>
			<point x="257" y="364"/>
			<point x="310" y="364" type="curve" smooth="yes"/>
			<point x="351" y="364"/>
			<point x="380" y="334"/>
			<point x="380" y="295" type="curve" smooth="yes"/>
			<point x="380" y="241"/>
			<point x="326" y="192"/>
		</contour>
	</outline>
</glyph>
<glyph name="yen" format="2">
	<advance width="611"/>
	<unicode hex="00A5"/>
	<note>
		yen
	</note>
	<outline>
		<contour>
			<point x="182" y="0" type="line"/>
			<point x="316" y="0" type="line"/>
			<point x="335" y="88" type="line"/>
			<point x="482" y="88" type="line"/>
			<point x="505" y="198" type="line"/>
			<point x="358" y="198" type="line"/>
			<point x="372" y="262" type="line"/>
			<point x="519" y="262" type="line"/>
			<point x="542" y="372" type="line"/>
			<point x="453" y="372" type="line"/>
			<point x="676" y="660" type="line"/>
			<point x="520" y="660" type="line"/>
			<point x="327" y="392" type="line"/>
			<point x="240" y="660" type="line"/>
			<point x="100" y="660" type="line"/>
			<point x="202" y="372" type="line"/>
			<point x="114" y="372" type="line"/>
			<point x="91" y="262" type="line"/>
			<point x="238" y="262" type="line"/>
			<point x="224" y="198" type="line"/>
			<point x="77" y="198" type="line"/>
			<point x="54" y="88" type="line"/>
			<point x="201" y="88" type="line"/>
		</contour>
	</outline>
</glyph>
<glyph name="brokenbar" format="2">
	<advance width="280"/>
	<unicode hex="00A6"/>
	<note>
		brokenbar
	</note>
	<outline>
		<contour>
			<point x="309" y="730" type="line"/>
			<point x="175" y="730" type="line"/>
			<point x="96" y="360" type="line"/>
			<point x="230" y="360" type="line"/>
		</contour>
		<contour>
			<point x="184" y="140" type="line"/>
			<point x="50" y="140" type="line"/>
			<point x="-29" y="-230" type="line"/>
			<point x="105" y="-230" type="line"/>
		</contour>
	</outline>
</glyph>
<glyph name="section" format="2">
	<advance width="517"/>
	<unicode hex="00A7"/>
	<note>
		section
	</note>
	<outline>
		<contour>
			<point x="483" y="591" type="curve"/>
			<point x="513" y="701" type="line"/>
			<point x="513" y="701"/>
			<point x="445" y="726"/>
			<point x="363" y="726" type="curve" smooth="yes"/>
			<point x="208" y="726"/>
			<point x="112" y="654"/>
			<point x="112" y="521" type="curve" smooth="yes"/>
			<point x="112" y="483"/>
			<point x="127" y="454"/>
			<point x="147" y="435" type="curve"/>
			<point x="98" y="397"/>
			<point x="47" y="342"/>
			<point x="47" y="265" type="curve" smooth="yes"/>
			<point x="47" y="192"/>
			<point x="88" y="158"/>
			<point x="171" y="134" type="curve" smooth="yes"/>
			<point x="263" y="108"/>
			<point x="296" y="100"/>
			<point x="296" y="66" type="curve" smooth="yes"/>
			<point x="296" y="17"/>
			<point x="245" y="0"/>
			<point x="188" y="0" type="curve" smooth="yes"/>
			<point x="131" y="0"/>
			<point x="28" y="16"/>
			<point x="28" y="16" type="curve"/>
			<point x="-8" y="-95" type="line"/>
			<point x="-8" y="-95"/>
			<point x="97" y="-118"/>
			<point x="184" y="-118" type="curve" smooth="yes"/>
			<point x="371" y="-118"/>
			<point x="438" y="-8"/>
			<point x="438" y="93" type="curve" smooth="yes"/>
			<point x="438" y="130"/>
			<point x="422" y="165"/>
			<point x="399" y="179" type="curve"/>
			<point x="461" y="236"/>
			<point x="493" y="290"/>
			<point x="493" y="356" type="curve" smooth="yes"/>
			<point x="493" y="415"/>
			<point x="457" y="446"/>
			<point x="371" y="476" type="curve" smooth="yes"/>
			<point x="292" y="504"/>
			<point x="253" y="506"/>
			<point x="253" y="548" type="curve" smooth="yes"/>
			<point x="253" y="593"/>
			<point x="298" y="607"/>
			<point x="351" y="607" type="curve" smooth="yes"/>
			<point x="407" y="607"/>
			<point x="483" y="591"/>
		</contour>
		<contour>
			<point x="284" y="366" type="curve" smooth="yes"/>
			<point x="335" y="351"/>
			<point x="352" y="338"/>
			<point x="352" y="308" type="curve" smooth="yes"/>
			<point x="352" y="276"/>
			<point x="334" y="244"/>
			<point x="316" y="229" type="curve"/>
			<point x="296" y="236"/>
			<point x="268" y="248"/>
			<point x="236" y="258" type="curve" smooth="yes"/>
			<point x="201" y="269"/>
			<point x="185" y="286"/>
			<point x="185" y="309" type="curve" smooth="yes"/>
			<point x="185" y="344"/>
			<point x="201" y="363"/>
			<point x="221" y="384" type="curve"/>
			<point x="238" y="378"/>
			<point x="264" y="372"/>
		</contour>
	</outline>
</glyph>
<glyph name="dieresis" format="2">
	<advance width="444"/>
	<unicode hex="00A8"/>
	<note>
		dieresis
	</note>
	<outline>
		<contour>
			<point x="227" y="720" type="line"/>
			<point x="99" y="720" type="line"/>
			<point x="71" y="587" type="line"/>
			<point x="199" y="587" type="line"/>
		</contour>
		<contour>
			<point x="435" y="720" type="line"/>
			<point x="307" y="720" type="line"/>
			<point x="279" y="587" type="line"/>
			<point x="407" y="587" type="line"/>
		</contour>
	</outline>
</glyph>
<glyph name="copyright" format="2">
	<advance width="649"/>
	<unicode hex="00A9"/>
	<note>
		copyright
	</note>
	<outline>
		<contour>
			<point x="409" y="740" type="curve" smooth="yes"/>
			<point x="209" y="740"/>
			<point x="84" y="583"/>
			<point x="84" y="403" type="curve" smooth="yes"/>
			<point x="84" y="267"/>
			<point x="181" y="172"/>
			<point x="326" y="172" type="curve" smooth="yes"/>
			<point x="524" y="172"/>
			<point x="652" y="328"/>
			<point x="652" y="510" type="curve" smooth="yes"/>
			<point x="652" y="644"/>
			<point x="558" y="740"/>
		</contour>
		<contour>
			<point x="404" y="680" type="curve" smooth="yes"/>
			<point x="520" y="680"/>
			<point x="586" y="614"/>
			<point x="586" y="499" type="curve" smooth="yes"/>
			<point x="586" y="358"/>
			<point x="490" y="232"/>
			<point x="330" y="232" type="curve" smooth="yes"/>
			<point x="205" y="232"/>
			<point x="150" y="308"/>
			<point x="150" y="414" type="curve" smooth="yes"/>
			<point x="150" y="546"/>
			<point x="244" y="680"/>
		</contour>
		<contour>
			<point x="428" y="314" type="curve"/>
			<point x="439" y="396" type="line"/>
			<point x="439" y="396"/>
			<point x="403" y="391"/>
			<point x="371" y="391" type="curve" smooth="yes"/>
			<point x="354" y="391"/>
			<point x="346" y="400"/>
			<point x="346" y="428" type="curve" smooth="yes"/>
			<point x="346" y="470"/>
			<point x="361" y="522"/>
			<point x="399" y="522" type="curve" smooth="yes"/>
			<point x="431" y="522"/>
			<point x="464" y="516"/>
			<point x="464" y="516" type="curve"/>
			<point x="490" y="602" type="line"/>
			<point x="490" y="602"/>
			<point x="461" y="617"/>
			<point x="413" y="617" type="curve" smooth="yes"/>
			<point x="291" y="617"/>
			<point x="238" y="517"/>
			<point x="238" y="403" type="curve" smooth="yes"/>
			<point x="238" y="334"/>
			<point x="273" y="296"/>
			<point x="341" y="296" type="curve" smooth="yes"/>
			<point x="397" y="296"/>
			<point x="428" y="314"/>
		</contour>
	</outline>
</glyph>
<glyph name="ordfeminine" format="2">
  <advance width="432"/>
  <unicode hex="00AA"/>
  <note>
ordfeminine
</note>
  <outline>
    <contour>
      <point x="404" y="480" type="curve" smooth="yes"/>
      <point x="432" y="600" type="line" smooth="yes"/>
      <point x="449" y="671"/>
      <point x="417" y="726"/>
      <point x="295" y="726" type="curve" smooth="yes"/>
      <point x="224" y="726"/>
      <point x="158" y="700"/>
      <point x="158" y="700" type="curve"/>
      <point x="145" y="622" type="line"/>
      <point x="145" y="622"/>
      <point x="234" y="632"/>
      <point x="278" y="632" type="curve" smooth="yes"/>
      <point x="307" y="632"/>
      <point x="319" y="627"/>
      <point x="316" y="605" type="curve" smooth="yes"/>
      <point x="314" y="591" type="line"/>
      <point x="236" y="590" type="line" smooth="yes"/>
      <point x="142" y="589"/>
      <point x="99" y="556"/>
      <point x="99" y="485" type="curve" smooth="yes"/>
      <point x="99" y="423"/>
      <point x="138" y="382"/>
      <point x="197" y="382" type="curve" smooth="yes"/>
      <point x="244" y="382"/>
      <point x="287" y="413"/>
      <point x="287" y="413" type="curve"/>
      <point x="312" y="384"/>
      <point x="341" y="378"/>
      <point x="400" y="380" type="curve"/>
      <point x="417" y="462" type="line"/>
      <point x="403" y="464"/>
      <point x="402" y="470"/>
    </contour>
    <contour>
      <point x="251" y="522" type="curve" smooth="yes"/>
      <point x="299" y="522" type="line"/>
      <point x="290" y="485" type="line"/>
      <point x="290" y="485"/>
      <point x="259" y="469"/>
      <point x="239" y="469" type="curve" smooth="yes"/>
      <point x="220" y="469"/>
      <point x="212" y="480"/>
      <point x="212" y="493" type="curve" smooth="yes"/>
      <point x="212" y="517"/>
      <point x="227" y="522"/>
    </contour>
    <contour>
      <point x="391" y="331" type="line"/>
      <point x="82" y="331" type="line"/>
      <point x="62" y="241" type="line"/>
      <point x="371" y="241" type="line"/>
    </contour>
  </outline>
</glyph>
<glyph name="guillemetleft" format="2">
  <advance width="613"/>
  <unicode hex="00AB"/>
  <note>
guillemetleft
</note>
  <outline>
    <contour>
      <point x="306" y="126" type="line"/>
      <point x="152" y="262" type="line"/>
      <point x="360" y="420" type="line"/>
      <point x="300" y="508" type="line"/>
      <point x="57" y="327" type="line"/>
      <point x="36" y="227" type="line"/>
      <point x="230" y="46" type="line"/>
    </contour>
    <contour>
      <point x="556" y="130" type="line"/>
      <point x="405" y="263" type="line"/>
      <point x="609" y="418" type="line"/>
      <point x="550" y="504" type="line"/>
      <point x="312" y="327" type="line"/>
      <point x="292" y="229" type="line"/>
      <point x="482" y="51" type="line"/>
    </contour>
  </outline>
</glyph>
<glyph name="logicalnot" format="2">
  <advance width="560"/>
  <unicode hex="00AC"/>
  <note>
logicalnot
</note>
  <outline>
    <contour>
      <point x="470" y="141" type="line"/>
      <point x="524" y="393" type="line"/>
      <point x="88" y="393" type="line"/>
      <point x="63" y="277" type="line"/>
      <point x="379" y="277" type="line"/>
      <point x="350" y="141" type="line"/>
    </contour>
  </outline>
</glyph>
<glyph name="softhyphen" format="2">
  <advance width="0"/>
  <unicode hex="00AD"/>
  <note>
softhyphen
</note>
  <outline>
    <contour>
      <point x="178" y="337" type="line"/>
      <point x="-142" y="337" type="line"/>
      <point x="-168" y="217" type="line"/>
      <point x="152" y="217" type="line"/>
    </contour>
  </outline>
</glyph>
<glyph name="registered" format="2">
  <advance width="649"/>
  <unicode hex="00AE"/>
  <note>
registered
</note>
  <outline>
    <contour>
      <point x="409" y="740" type="curve" smooth="yes"/>
      <point x="209" y="740"/>
      <point x="84" y="583"/>
      <point x="84" y="403" type="curve" smooth="yes"/>
      <point x="84" y="267"/>
      <point x="181" y="172"/>
      <point x="326" y="172" type="curve" smooth="yes"/>
      <point x="524" y="172"/>
      <point x="652" y="328"/>
      <point x="652" y="510" type="curve" smooth="yes"/>
      <point x="652" y="644"/>
      <point x="558" y="740"/>
    </contour>
    <contour>
      <point x="404" y="680" type="curve" smooth="yes"/>
      <point x="520" y="680"/>
      <point x="586" y="614"/>
      <point x="586" y="499" type="curve" smooth="yes"/>
      <point x="586" y="358"/>
      <point x="490" y="232"/>
      <point x="330" y="232" type="curve" smooth="yes"/>
      <point x="205" y="232"/>
      <point x="150" y="308"/>
      <point x="150" y="414" type="curve" smooth="yes"/>
      <point x="150" y="546"/>
      <point x="244" y="680"/>
    </contour>
    <contour>
      <point x="334" y="394" type="line"/>
      <point x="361" y="394" type="line"/>
      <point x="373" y="305" type="line"/>
      <point x="469" y="305" type="line"/>
      <point x="450" y="411" type="line"/>
      <point x="491" y="440"/>
      <point x="515" y="468"/>
      <point x="515" y="527" type="curve" smooth="yes"/>
      <point x="515" y="583"/>
      <point x="474" y="608"/>
      <point x="419" y="608" type="curve" smooth="yes"/>
      <point x="283" y="608" type="line"/>
      <point x="219" y="305" type="line"/>
      <point x="315" y="305" type="line"/>
    </contour>
    <contour>
      <point x="375" y="461" type="curve" smooth="yes"/>
      <point x="347" y="461" type="line"/>
      <point x="363" y="538" type="line"/>
      <point x="390" y="538" type="line" smooth="yes"/>
      <point x="409" y="538"/>
      <point x="418" y="530"/>
      <point x="418" y="512" type="curve" smooth="yes"/>
      <point x="418" y="485"/>
      <point x="404" y="461"/>
    </contour>
  </outline>
</glyph>
<glyph name="macron" format="2">
  <advance width="387"/>
  <unicode hex="00AF"/>
  <note>
macron
</note>
  <outline>
    <contour>
      <point x="380" y="687" type="line"/>
      <point x="93" y="687" type="line"/>
      <point x="71" y="587" type="line"/>
      <point x="358" y="587" type="line"/>
    </contour>
  </outline>
</glyph>
<glyph name="degree" format="2">
	<advance width="404"/>
	<unicode hex="00B0"/>
	<note>
		degree
	</note>
	<outline>
		<contour>
			<point x="293" y="726" type="curve" smooth="yes"/>
			<point x="186" y="726"/>
			<point x="106" y="643"/>
			<point x="106" y="546" type="curve" smooth="yes"/>
			<point x="106" y="466"/>
			<point x="159" y="415"/>
			<point x="244" y="415" type="curve" smooth="yes"/>
			<point x="354" y="415"/>
			<point x="430" y="501"/>
			<point x="430" y="595" type="curve" smooth="yes"/>
			<point x="430" y="675"/>
			<point x="377" y="726"/>
		</contour>
		<contour>
			<point x="282" y="635" type="curve" smooth="yes"/>
			<point x="315" y="635"/>
			<point x="335" y="615"/>
			<point x="335" y="586" type="curve" smooth="yes"/>
			<point x="335" y="539"/>
			<point x="298" y="506"/>
			<point x="254" y="506" type="curve" smooth="yes"/>
			<point x="221" y="506"/>
			<point x="201" y="525"/>
			<point x="201" y="555" type="curve" smooth="yes"/>
			<point x="201" y="600"/>
			<point x="239" y="635"/>
		</contour>
	</outline>
</glyph>
<glyph name="plusminus" format="2">
	<advance width="560"/>
	<unicode hex="00B1"/>
	<note>
		plusminus
	</note>
	<outline>
		<contour>
			<point x="256" y="422" type="line"/>
			<point x="86" y="422" type="line"/>
			<point x="61" y="306" type="line"/>
			<point x="231" y="306" type="line"/>
			<point x="208" y="196" type="line"/>
			<point x="328" y="196" type="line"/>
			<point x="351" y="306" type="line"/>
			<point x="521" y="306" type="line"/>
			<point x="546" y="422" type="line"/>
			<point x="376" y="422" type="line"/>
			<point x="399" y="532" type="line"/>
			<point x="279" y="532" type="line"/>
		</contour>
		<contour>
			<point x="461" y="22" type="line"/>
			<point x="485" y="138" type="line"/>
			<point x="25" y="138" type="line"/>
			<point x="1" y="22" type="line"/>
		</contour>
	</outline>
</glyph>
<glyph name="twosuperior" format="2">
  <advance width="284"/>
  <unicode hex="00B2"/>
  <note>
twosuperior
</note>
  <outline>
    <contour>
      <point x="79" y="500" type="line"/>
      <point x="62" y="416" type="line"/>
      <point x="293" y="416" type="line"/>
      <point x="312" y="506" type="line"/>
      <point x="212" y="506" type="line"/>
      <point x="254" y="544" type="line" smooth="yes"/>
      <point x="316" y="601"/>
      <point x="345" y="618"/>
      <point x="345" y="670" type="curve" smooth="yes"/>
      <point x="345" y="714"/>
      <point x="318" y="746"/>
      <point x="250" y="746" type="curve" smooth="yes"/>
      <point x="205" y="746"/>
      <point x="130" y="737"/>
      <point x="130" y="737" type="curve"/>
      <point x="115" y="644" type="line"/>
      <point x="115" y="644"/>
      <point x="172" y="650"/>
      <point x="194" y="650" type="curve" smooth="yes"/>
      <point x="219" y="650"/>
      <point x="225" y="643"/>
      <point x="225" y="631" type="curve" smooth="yes"/>
      <point x="225" y="615"/>
      <point x="211" y="604"/>
      <point x="180" y="579" type="curve" smooth="yes"/>
    </contour>
  </outline>
</glyph>
<glyph name="threesuperior" format="2">
	<advance width="291"/>
	<unicode hex="00B3"/>
	<note>
		threesuperior
	</note>
	<outline>
		<contour>
			<point x="128" y="737" type="curve"/>
			<point x="115" y="648" type="line"/>
			<point x="115" y="648"/>
			<point x="165" y="653"/>
			<point x="202" y="653" type="curve" smooth="yes"/>
			<point x="216" y="653"/>
			<point x="226" y="651"/>
			<point x="226" y="637" type="curve" smooth="yes"/>
			<point x="226" y="625"/>
			<point x="217" y="616"/>
			<point x="202" y="616" type="curve" smooth="yes"/>
			<point x="136" y="616" type="line"/>
			<point x="120" y="543" type="line"/>
			<point x="188" y="543" type="line" smooth="yes"/>
			<point x="203" y="543"/>
			<point x="209" y="539"/>
			<point x="209" y="521" type="curve" smooth="yes"/>
			<point x="209" y="501"/>
			<point x="199" y="494"/>
			<point x="175" y="494" type="curve" smooth="yes"/>
			<point x="142" y="494"/>
			<point x="82" y="500"/>
			<point x="82" y="500" type="curve"/>
			<point x="57" y="410" type="line"/>
			<point x="57" y="410"/>
			<point x="132" y="402"/>
			<point x="173" y="402" type="curve" smooth="yes"/>
			<point x="267" y="402"/>
			<point x="322" y="439"/>
			<point x="322" y="517" type="curve" smooth="yes"/>
			<point x="322" y="554"/>
			<point x="309" y="576"/>
			<point x="270" y="586" type="curve"/>
			<point x="322" y="600"/>
			<point x="341" y="634"/>
			<point x="341" y="673" type="curve" smooth="yes"/>
			<point x="341" y="720"/>
			<point x="311" y="746"/>
			<point x="238" y="746" type="curve" smooth="yes"/>
			<point x="195" y="746"/>
			<point x="128" y="737"/>
		</contour>
	</outline>
</glyph>
<glyph name="acute" format="2">
	<advance width="406"/>
	<unicode hex="00B4"/>
	<note>
		acute
	</note>
	<outline>
		<contour>
			<point x="374" y="753" type="line"/>
			<point x="84" y="651" type="line"/>
			<point x="108" y="564" type="line"/>
			<point x="402" y="638" type="line"/>
		</contour>
	</outline>
</glyph>
<glyph name="micro" format="2">
	<advance width="536"/>
	<unicode hex="00B5"/>
	<note>
		micro
	</note>
	<outline>
		<contour>
			<point x="416" y="0" type="line"/>
			<point x="523" y="510" type="line"/>
			<point x="389" y="510" type="line"/>
			<point x="321" y="167" type="line"/>
			<point x="321" y="167"/>
			<point x="278" y="100"/>
			<point x="225" y="100" type="curve" smooth="yes"/>
			<point x="182" y="100"/>
			<point x="176" y="131"/>
			<point x="186" y="182" type="curve" smooth="yes"/>
			<point x="248" y="510" type="line"/>
			<point x="118" y="510" type="line"/>
			<point x="-31" y="-230" type="line"/>
			<point x="99" y="-230" type="line"/>
			<point x="142" y="15" type="line"/>
			<point x="155" y="1"/>
			<point x="175" y="-8"/>
			<point x="201" y="-8" type="curve" smooth="yes"/>
			<point x="259" y="-8"/>
			<point x="305" y="58"/>
			<point x="305" y="58" type="curve"/>
			<point x="297" y="0" type="line"/>
		</contour>
	</outline>
</glyph>
<glyph name="paragraph" format="2">
  <advance width="629"/>
  <unicode hex="00B6"/>
  <note>
paragraph
</note>
  <outline>
    <contour>
      <point x="418" y="600" type="line"/>
      <point x="490" y="600" type="line"/>
      <point x="365" y="0" type="line"/>
      <point x="483" y="0" type="line"/>
      <point x="608" y="600" type="line"/>
      <point x="664" y="600" type="line"/>
      <point x="687" y="710" type="line"/>
      <point x="318" y="710" type="line" smooth="yes"/>
      <point x="151" y="710"/>
      <point x="73" y="601"/>
      <point x="73" y="488" type="curve" smooth="yes"/>
      <point x="73" y="386"/>
      <point x="136" y="316"/>
      <point x="233" y="316" type="curve" smooth="yes"/>
      <point x="240" y="316" type="line"/>
      <point x="175" y="0" type="line"/>
      <point x="293" y="0" type="line"/>
    </contour>
  </outline>
</glyph>
<glyph name="periodcentered" format="2">
	<advance width="255"/>
	<unicode hex="00B7"/>
	<note>
		periodcentered
	</note>
	<outline>
		<contour>
			<point x="222" y="359" type="line"/>
			<point x="78" y="359" type="line"/>
			<point x="42" y="194" type="line"/>
			<point x="186" y="194" type="line"/>
		</contour>
	</outline>
</glyph>
<glyph name="onesuperior" format="2">
  <advance width="243"/>
  <unicode hex="00B9"/>
  <note>
onesuperior
</note>
  <outline>
    <contour>
      <point x="307" y="737" type="line"/>
      <point x="211" y="737" type="line"/>
      <point x="91" y="664" type="line"/>
      <point x="116" y="594" type="line"/>
      <point x="179" y="630" type="line"/>
      <point x="135" y="416" type="line"/>
      <point x="241" y="416" type="line"/>
    </contour>
  </outline>
</glyph>
<glyph name="ordmasculine" format="2">
	<advance width="447"/>
	<unicode hex="00BA"/>
	<note>
		ordmasculine
	</note>
	<outline>
		<contour>
			<point x="313" y="726" type="curve" smooth="yes"/>
			<point x="155" y="726"/>
			<point x="111" y="610"/>
			<point x="111" y="518" type="curve" smooth="yes"/>
			<point x="111" y="429"/>
			<point x="165" y="381"/>
			<point x="262" y="381" type="curve" smooth="yes"/>
			<point x="416" y="381"/>
			<point x="465" y="499"/>
			<point x="465" y="592" type="curve" smooth="yes"/>
			<point x="465" y="681"/>
			<point x="411" y="726"/>
		</contour>
		<contour>
			<point x="273" y="484" type="curve" smooth="yes"/>
			<point x="244" y="484"/>
			<point x="234" y="497"/>
			<point x="234" y="521" type="curve" smooth="yes"/>
			<point x="234" y="555"/>
			<point x="251" y="624"/>
			<point x="303" y="624" type="curve" smooth="yes"/>
			<point x="331" y="624"/>
			<point x="341" y="612"/>
			<point x="341" y="589" type="curve" smooth="yes"/>
			<point x="341" y="556"/>
			<point x="331" y="484"/>
		</contour>
		<contour>
			<point x="400" y="331" type="line"/>
			<point x="80" y="331" type="line"/>
			<point x="61" y="241" type="line"/>
			<point x="381" y="241" type="line"/>
		</contour>
	</outline>
</glyph>
<glyph name="guillemetright" format="2">
	<advance width="614"/>
	<unicode hex="00BB"/>
	<note>
		guillemetright
	</note>
	<outline>
		<contour>
			<point x="318" y="428" type="line"/>
			<point x="472" y="292" type="line"/>
			<point x="264" y="134" type="line"/>
			<point x="324" y="46" type="line"/>
			<point x="567" y="227" type="line"/>
			<point x="588" y="327" type="line"/>
			<point x="394" y="508" type="line"/>
		</contour>
		<contour>
			<point x="68" y="424" type="line"/>
			<point x="219" y="291" type="line"/>
			<point x="15" y="136" type="line"/>
			<point x="74" y="50" type="line"/>
			<point x="312" y="227" type="line"/>
			<point x="332" y="325" type="line"/>
			<point x="142" y="503" type="line"/>
		</contour>
	</outline>
</glyph>
<glyph name="onequarter" format="2">
  <advance width="625"/>
  <unicode hex="00BC"/>
  <note>
onequarter
</note>
  <outline>
    <contour>
      <point x="633" y="657" type="line"/>
      <point x="574" y="710" type="line"/>
      <point x="1" y="43" type="line"/>
      <point x="57" y="-11" type="line"/>
    </contour>
    <contour>
      <point x="320" y="707" type="line"/>
      <point x="224" y="707" type="line"/>
      <point x="104" y="634" type="line"/>
      <point x="129" y="564" type="line"/>
      <point x="192" y="600" type="line"/>
      <point x="148" y="386" type="line"/>
      <point x="254" y="386" type="line"/>
    </contour>
    <contour>
      <point x="302" y="49" type="line"/>
      <point x="436" y="49" type="line"/>
      <point x="426" y="0" type="line"/>
      <point x="520" y="0" type="line"/>
      <point x="530" y="49" type="line"/>
      <point x="554" y="49" type="line"/>
      <point x="573" y="139" type="line"/>
      <point x="549" y="139" type="line"/>
      <point x="566" y="227" type="line"/>
      <point x="489" y="227" type="line"/>
      <point x="457" y="139" type="line"/>
      <point x="411" y="139" type="line"/>
      <point x="517" y="321" type="line"/>
      <point x="399" y="321" type="line"/>
      <point x="320" y="137" type="line"/>
    </contour>
  </outline>
</glyph>
<glyph name="onehalf" format="2">
	<advance width="623"/>
	<unicode hex="00BD"/>
	<note>
		onehalf
	</note>
	<outline>
		<contour>
			<point x="633" y="657" type="line"/>
			<point x="574" y="710" type="line"/>
			<point x="1" y="43" type="line"/>
			<point x="57" y="-11" type="line"/>
		</contour>
		<contour>
			<point x="320" y="707" type="line"/>
			<point x="224" y="707" type="line"/>
			<point x="104" y="634" type="line"/>
			<point x="129" y="564" type="line"/>
			<point x="192" y="600" type="line"/>
			<point x="148" y="386" type="line"/>
			<point x="254" y="386" type="line"/>
		</contour>
		<contour>
			<point x="316" y="84" type="line"/>
			<point x="299" y="0" type="line"/>
			<point x="530" y="0" type="line"/>
			<point x="549" y="90" type="line"/>
			<point x="449" y="90" type="line"/>
			<point x="491" y="128" type="line" smooth="yes"/>
			<point x="553" y="185"/>
			<point x="582" y="202"/>
			<point x="582" y="254" type="curve" smooth="yes"/>
			<point x="582" y="298"/>
			<point x="555" y="330"/>
			<point x="487" y="330" type="curve" smooth="yes"/>
			<point x="442" y="330"/>
			<point x="367" y="321"/>
			<point x="367" y="321" type="curve"/>
			<point x="352" y="228" type="line"/>
			<point x="352" y="228"/>
			<point x="409" y="234"/>
			<point x="431" y="234" type="curve" smooth="yes"/>
			<point x="456" y="234"/>
			<point x="462" y="227"/>
			<point x="462" y="215" type="curve" smooth="yes"/>
			<point x="462" y="199"/>
			<point x="448" y="188"/>
			<point x="417" y="163" type="curve" smooth="yes"/>
		</contour>
	</outline>
</glyph>
<glyph name="threequarters" format="2">
	<advance width="662"/>
	<unicode hex="00BE"/>
	<note>
		threequarters
	</note>
	<outline>
		<contour>
			<point x="134" y="707" type="curve"/>
			<point x="121" y="618" type="line"/>
			<point x="121" y="618"/>
			<point x="171" y="623"/>
			<point x="208" y="623" type="curve" smooth="yes"/>
			<point x="222" y="623"/>
			<point x="232" y="621"/>
			<point x="232" y="607" type="curve" smooth="yes"/>
			<point x="232" y="595"/>
			<point x="223" y="586"/>
			<point x="208" y="586" type="curve" smooth="yes"/>
			<point x="142" y="586" type="line"/>
			<point x="126" y="513" type="line"/>
			<point x="194" y="513" type="line" smooth="yes"/>
			<point x="209" y="513"/>
			<point x="215" y="509"/>
			<point x="215" y="491" type="curve" smooth="yes"/>
			<point x="215" y="471"/>
			<point x="205" y="464"/>
			<point x="181" y="464" type="curve" smooth="yes"/>
			<point x="148" y="464"/>
			<point x="88" y="470"/>
			<point x="88" y="470" type="curve"/>
			<point x="63" y="380" type="line"/>
			<point x="63" y="380"/>
			<point x="138" y="372"/>
			<point x="179" y="372" type="curve" smooth="yes"/>
			<point x="273" y="372"/>
			<point x="328" y="409"/>
			<point x="328" y="487" type="curve" smooth="yes"/>
			<point x="328" y="524"/>
			<point x="315" y="546"/>
			<point x="276" y="556" type="curve"/>
			<point x="328" y="570"/>
			<point x="347" y="604"/>
			<point x="347" y="643" type="curve" smooth="yes"/>
			<point x="347" y="690"/>
			<point x="317" y="716"/>
			<point x="244" y="716" type="curve" smooth="yes"/>
			<point x="201" y="716"/>
			<point x="134" y="707"/>
		</contour>
		<contour>
			<point x="672" y="657" type="line"/>
			<point x="613" y="710" type="line"/>
			<point x="40" y="43" type="line"/>
			<point x="96" y="-11" type="line"/>
		</contour>
		<contour>
			<point x="341" y="49" type="line"/>
			<point x="475" y="49" type="line"/>
			<point x="465" y="0" type="line"/>
			<point x="559" y="0" type="line"/>
			<point x="569" y="49" type="line"/>
			<point x="593" y="49" type="line"/>
			<point x="612" y="139" type="line"/>
			<point x="588" y="139" type="line"/>
			<point x="605" y="227" type="line"/>
			<point x="528" y="227" type="line"/>
			<point x="496" y="139" type="line"/>
			<point x="450" y="139" type="line"/>
			<point x="556" y="321" type="line"/>
			<point x="438" y="321" type="line"/>
			<point x="359" y="137" type="line"/>
		</contour>
	</outline>
</glyph>
<glyph name="questiondown" format="2">
	<advance width="419"/>
	<unicode hex="00BF"/>
	<note>
		questiondown
	</note>
	<outline>
		<contour>
			<point x="180" y="355" type="line"/>
			<point x="324" y="355" type="line"/>
			<point x="357" y="510" type="line"/>
			<point x="213" y="510" type="line"/>
		</contour>
		<contour>
			<point x="-40" y="-60" type="curve" smooth="yes"/>
			<point x="-40" y="-155"/>
			<point x="28" y="-200"/>
			<point x="124" y="-200" type="curve" smooth="yes"/>
			<point x="238" y="-200"/>
			<point x="312" y="-165"/>
			<point x="312" y="-165" type="curve"/>
			<point x="326" y="-64" type="line"/>
			<point x="326" y="-64"/>
			<point x="248" y="-82"/>
			<point x="183" y="-82" type="curve" smooth="yes"/>
			<point x="125" y="-82"/>
			<point x="105" y="-66"/>
			<point x="105" y="-36" type="curve" smooth="yes"/>
			<point x="105" y="0"/>
			<point x="129" y="31"/>
			<point x="214" y="90" type="curve" smooth="yes"/>
			<point x="288" y="141"/>
			<point x="309" y="173"/>
			<point x="309" y="218" type="curve" smooth="yes"/>
			<point x="309" y="249"/>
			<point x="299" y="275"/>
			<point x="299" y="275" type="curve"/>
			<point x="188" y="275" type="line"/>
			<point x="184" y="244" type="line" smooth="yes"/>
			<point x="180" y="216"/>
			<point x="168" y="197"/>
			<point x="84" y="143" type="curve" smooth="yes"/>
			<point x="-2" y="88"/>
			<point x="-40" y="24"/>
		</contour>
	</outline>
</glyph>
<glyph name="Agrave" format="2">
  <advance width="623"/>
  <unicode hex="00C0"/>
  <note>
Agrave
</note>
  <outline>
    <contour>
      <point x="564" y="763" type="line"/>
      <point x="592" y="850" type="line"/>
      <point x="324" y="952" type="line"/>
      <point x="286" y="837" type="line"/>
    </contour>
    <contour>
      <point x="301" y="710" type="line"/>
      <point x="-49" y="0" type="line"/>
      <point x="90" y="0" type="line"/>
      <point x="163" y="158" type="line"/>
      <point x="407" y="158" type="line"/>
      <point x="407" y="0" type="line"/>
      <point x="541" y="0" type="line"/>
      <point x="541" y="710" type="line"/>
    </contour>
    <contour>
      <point x="377" y="596" type="line"/>
      <point x="407" y="596" type="line"/>
      <point x="407" y="278" type="line"/>
      <point x="220" y="278" type="line"/>
    </contour>
  </outline>
</glyph>
<glyph name="Aacute" format="2">
	<advance width="623"/>
	<unicode hex="00C1"/>
	<note>
		Aacute
	</note>
	<outline>
		<contour>
			<point x="543" y="952" type="line"/>
			<point x="297" y="850" type="line"/>
			<point x="331" y="763" type="line"/>
			<point x="589" y="837" type="line"/>
		</contour>
		<contour>
			<point x="301" y="710" type="line"/>
			<point x="-49" y="0" type="line"/>
			<point x="90" y="0" type="line"/>
			<point x="163" y="158" type="line"/>
			<point x="407" y="158" type="line"/>
			<point x="407" y="0" type="line"/>
			<point x="541" y="0" type="line"/>
			<point x="541" y="710" type="line"/>
		</contour>
		<contour>
			<point x="377" y="596" type="line"/>
			<point x="407" y="596" type="line"/>
			<point x="407" y="278" type="line"/>
			<point x="220" y="278" type="line"/>
		</contour>
	</outline>
</glyph>
<glyph name="Acircumflex" format="2">
	<advance width="623"/>
	<unicode hex="00C2"/>
	<note>
		Acircumflex
	</note>
	<outline>
		<contour>
			<point x="365" y="769" type="line"/>
			<point x="455" y="867" type="line"/>
			<point x="503" y="769" type="line"/>
			<point x="613" y="769" type="line"/>
			<point x="520" y="946" type="line"/>
			<point x="404" y="946" type="line"/>
			<point x="235" y="769" type="line"/>
		</contour>
		<contour>
			<point x="301" y="710" type="line"/>
			<point x="-49" y="0" type="line"/>
			<point x="90" y="0" type="line"/>
			<point x="163" y="158" type="line"/>
			<point x="407" y="158" type="line"/>
			<point x="407" y="0" type="line"/>
			<point x="541" y="0" type="line"/>
			<point x="541" y="710" type="line"/>
		</contour>
		<contour>
			<point x="377" y="596" type="line"/>
			<point x="407" y="596" type="line"/>
			<point x="407" y="278" type="line"/>
			<point x="220" y="278" type="line"/>
		</contour>
	</outline>
</glyph>
<glyph name="Atilde" format="2">
	<advance width="623"/>
	<unicode hex="00C3"/>
	<note>
		Atilde
	</note>
	<outline>
		<contour>
			<point x="631" y="848" type="curve"/>
			<point x="601" y="918" type="line"/>
			<point x="601" y="918"/>
			<point x="540" y="884"/>
			<point x="514" y="884" type="curve" smooth="yes"/>
			<point x="486" y="884"/>
			<point x="426" y="920"/>
			<point x="385" y="920" type="curve" smooth="yes"/>
			<point x="333" y="920"/>
			<point x="252" y="855"/>
			<point x="252" y="855" type="curve"/>
			<point x="281" y="785" type="line"/>
			<point x="281" y="785"/>
			<point x="337" y="816"/>
			<point x="365" y="816" type="curve" smooth="yes"/>
			<point x="398" y="816"/>
			<point x="454" y="780"/>
			<point x="496" y="780" type="curve" smooth="yes"/>
			<point x="548" y="780"/>
			<point x="631" y="848"/>
		</contour>
		<contour>
			<point x="301" y="710" type="line"/>
			<point x="-49" y="0" type="line"/>
			<point x="90" y="0" type="line"/>
			<point x="163" y="158" type="line"/>
			<point x="407" y="158" type="line"/>
			<point x="407" y="0" type="line"/>
			<point x="541" y="0" type="line"/>
			<point x="541" y="710" type="line"/>
		</contour>
		<contour>
			<point x="377" y="596" type="line"/>
			<point x="407" y="596" type="line"/>
			<point x="407" y="278" type="line"/>
			<point x="220" y="278" type="line"/>
		</contour>
	</outline>
</glyph>
<glyph name="Adieresis" format="2">
  <advance width="623"/>
  <unicode hex="00C4"/>
  <note>
Adieresis
</note>
  <outline>
    <contour>
      <point x="409" y="910" type="line"/>
      <point x="281" y="910" type="line"/>
      <point x="253" y="777" type="line"/>
      <point x="381" y="777" type="line"/>
    </contour>
    <contour>
      <point x="625" y="910" type="line"/>
      <point x="497" y="910" type="line"/>
      <point x="469" y="777" type="line"/>
      <point x="597" y="777" type="line"/>
    </contour>
    <contour>
      <point x="301" y="710" type="line"/>
      <point x="-49" y="0" type="line"/>
      <point x="90" y="0" type="line"/>
      <point x="163" y="158" type="line"/>
      <point x="407" y="158" type="line"/>
      <point x="407" y="0" type="line"/>
      <point x="541" y="0" type="line"/>
      <point x="541" y="710" type="line"/>
    </contour>
    <contour>
      <point x="377" y="596" type="line"/>
      <point x="407" y="596" type="line"/>
      <point x="407" y="278" type="line"/>
      <point x="220" y="278" type="line"/>
    </contour>
  </outline>
</glyph>
<glyph name="Aring" format="2">
	<advance width="623"/>
	<unicode hex="00C5"/>
	<note>
		Aring
	</note>
	<outline>
		<contour>
			<point x="323" y="847" type="curve" smooth="yes"/>
			<point x="323" y="786"/>
			<point x="365" y="747"/>
			<point x="429" y="747" type="curve" smooth="yes"/>
			<point x="510" y="747"/>
			<point x="563" y="808"/>
			<point x="563" y="874" type="curve" smooth="yes"/>
			<point x="563" y="931"/>
			<point x="520" y="973"/>
			<point x="454" y="973" type="curve" smooth="yes"/>
			<point x="379" y="973"/>
			<point x="323" y="917"/>
		</contour>
		<contour>
			<point x="400" y="850" type="curve" smooth="yes"/>
			<point x="400" y="879"/>
			<point x="425" y="902"/>
			<point x="453" y="902" type="curve" smooth="yes"/>
			<point x="474" y="902"/>
			<point x="487" y="889"/>
			<point x="487" y="869" type="curve" smooth="yes"/>
			<point x="487" y="840"/>
			<point x="462" y="817"/>
			<point x="435" y="817" type="curve" smooth="yes"/>
			<point x="413" y="817"/>
			<point x="400" y="830"/>
		</contour>
		<contour>
			<point x="301" y="710" type="line"/>
			<point x="-49" y="0" type="line"/>
			<point x="90" y="0" type="line"/>
			<point x="163" y="158" type="line"/>
			<point x="407" y="158" type="line"/>
			<point x="407" y="0" type="line"/>
			<point x="541" y="0" type="line"/>
			<point x="541" y="710" type="line"/>
		</contour>
		<contour>
			<point x="377" y="596" type="line"/>
			<point x="407" y="596" type="line"/>
			<point x="407" y="278" type="line"/>
			<point x="220" y="278" type="line"/>
		</contour>
	</outline>
</glyph>
<glyph name="AE" format="2">
	<advance width="861"/>
	<unicode hex="00C6"/>
	<note>
		AE
	</note>
	<outline>
		<contour>
			<point x="357" y="148" type="line"/>
			<point x="326" y="0" type="line"/>
			<point x="766" y="0" type="line"/>
			<point x="791" y="120" type="line"/>
			<point x="489" y="120" type="line"/>
			<point x="527" y="298" type="line"/>
			<point x="769" y="298" type="line"/>
			<point x="794" y="416" type="line"/>
			<point x="552" y="416" type="line"/>
			<point x="589" y="590" type="line"/>
			<point x="891" y="590" type="line"/>
			<point x="916" y="710" type="line"/>
			<point x="321" y="710" type="line"/>
			<point x="-56" y="0" type="line"/>
			<point x="84" y="0" type="line"/>
			<point x="161" y="148" type="line"/>
		</contour>
		<contour>
			<point x="391" y="590" type="line"/>
			<point x="451" y="590" type="line"/>
			<point x="383" y="268" type="line"/>
			<point x="223" y="268" type="line"/>
		</contour>
	</outline>
</glyph>
<glyph name="Ccedilla" format="2">
  <advance width="539"/>
  <unicode hex="00C7"/>
  <note>
Ccedilla
</note>
  <outline>
    <contour>
      <point x="354" y="-127" type="curve" smooth="yes"/>
      <point x="354" y="-77"/>
      <point x="326" y="-49"/>
      <point x="263" y="-47" type="curve"/>
      <point x="273" y="-14" type="line"/>
      <point x="278" y="-14"/>
      <point x="284" y="-14"/>
      <point x="289" y="-14" type="curve" smooth="yes"/>
      <point x="339" y="-14"/>
      <point x="407" y="-7"/>
      <point x="454" y="0" type="curve"/>
      <point x="475" y="118" type="line"/>
      <point x="435" y="112"/>
      <point x="360" y="108"/>
      <point x="312" y="108" type="curve" smooth="yes"/>
      <point x="230" y="108"/>
      <point x="189" y="122"/>
      <point x="189" y="200" type="curve" smooth="yes"/>
      <point x="189" y="309"/>
      <point x="242" y="604"/>
      <point x="413" y="604" type="curve" smooth="yes"/>
      <point x="445" y="604"/>
      <point x="525" y="596"/>
      <point x="569" y="589" type="curve"/>
      <point x="596" y="699" type="line"/>
      <point x="557" y="709"/>
      <point x="485" y="726"/>
      <point x="417" y="726" type="curve" smooth="yes"/>
      <point x="129" y="726"/>
      <point x="47" y="364"/>
      <point x="47" y="198" type="curve" smooth="yes"/>
      <point x="47" y="55"/>
      <point x="100" y="2"/>
      <point x="220" y="-11" type="curve"/>
      <point x="182" y="-105" type="line"/>
      <point x="206" y="-105" type="line" smooth="yes"/>
      <point x="229" y="-105"/>
      <point x="240" y="-112"/>
      <point x="240" y="-128" type="curve" smooth="yes"/>
      <point x="240" y="-146"/>
      <point x="226" y="-154"/>
      <point x="196" y="-154" type="curve" smooth="yes"/>
      <point x="179" y="-154"/>
      <point x="148" y="-153"/>
      <point x="138" y="-153" type="curve"/>
      <point x="118" y="-229" type="line"/>
      <point x="128" y="-229"/>
      <point x="175" y="-240"/>
      <point x="218" y="-240" type="curve" smooth="yes"/>
      <point x="309" y="-240"/>
      <point x="354" y="-198"/>
    </contour>
  </outline>
</glyph>
<glyph name="Egrave" format="2">
	<advance width="548"/>
	<unicode hex="00C8"/>
	<note>
		Egrave
	</note>
	<outline>
		<contour>
			<point x="539" y="763" type="line"/>
			<point x="567" y="850" type="line"/>
			<point x="299" y="952" type="line"/>
			<point x="261" y="837" type="line"/>
		</contour>
		<contour>
			<point x="601" y="710" type="line"/>
			<point x="169" y="710" type="line"/>
			<point x="18" y="0" type="line"/>
			<point x="451" y="0" type="line"/>
			<point x="476" y="120" type="line"/>
			<point x="180" y="120" type="line"/>
			<point x="218" y="297" type="line"/>
			<point x="456" y="297" type="line"/>
			<point x="481" y="415" type="line"/>
			<point x="243" y="415" type="line"/>
			<point x="280" y="590" type="line"/>
			<point x="576" y="590" type="line"/>
		</contour>
	</outline>
</glyph>
<glyph name="Eacute" format="2">
  <advance width="548"/>
  <unicode hex="00C9"/>
  <note>
Eacute
</note>
  <outline>
    <contour>
      <point x="518" y="952" type="line"/>
      <point x="272" y="850" type="line"/>
      <point x="306" y="763" type="line"/>
      <point x="564" y="837" type="line"/>
    </contour>
    <contour>
      <point x="601" y="710" type="line"/>
      <point x="169" y="710" type="line"/>
      <point x="18" y="0" type="line"/>
      <point x="451" y="0" type="line"/>
      <point x="476" y="120" type="line"/>
      <point x="180" y="120" type="line"/>
      <point x="218" y="297" type="line"/>
      <point x="456" y="297" type="line"/>
      <point x="481" y="415" type="line"/>
      <point x="243" y="415" type="line"/>
      <point x="280" y="590" type="line"/>
      <point x="576" y="590" type="line"/>
    </contour>
  </outline>
</glyph>
<glyph name="Ecircumflex" format="2">
  <advance width="548"/>
  <unicode hex="00CA"/>
  <note>
Ecircumflex
</note>
  <outline>
    <contour>
      <point x="340" y="769" type="line"/>
      <point x="430" y="867" type="line"/>
      <point x="478" y="769" type="line"/>
      <point x="588" y="769" type="line"/>
      <point x="495" y="946" type="line"/>
      <point x="379" y="946" type="line"/>
      <point x="210" y="769" type="line"/>
    </contour>
    <contour>
      <point x="601" y="710" type="line"/>
      <point x="169" y="710" type="line"/>
      <point x="18" y="0" type="line"/>
      <point x="451" y="0" type="line"/>
      <point x="476" y="120" type="line"/>
      <point x="180" y="120" type="line"/>
      <point x="218" y="297" type="line"/>
      <point x="456" y="297" type="line"/>
      <point x="481" y="415" type="line"/>
      <point x="243" y="415" type="line"/>
      <point x="280" y="590" type="line"/>
      <point x="576" y="590" type="line"/>
    </contour>
  </outline>
</glyph>
<glyph name="Edieresis" format="2">
	<advance width="548"/>
	<unicode hex="00CB"/>
	<note>
		Edieresis
	</note>
	<outline>
		<contour>
			<point x="384" y="910" type="line"/>
			<point x="256" y="910" type="line"/>
			<point x="228" y="777" type="line"/>
			<point x="356" y="777" type="line"/>
		</contour>
		<contour>
			<point x="600" y="910" type="line"/>
			<point x="472" y="910" type="line"/>
			<point x="444" y="777" type="line"/>
			<point x="572" y="777" type="line"/>
		</contour>
		<contour>
			<point x="601" y="710" type="line"/>
			<point x="169" y="710" type="line"/>
			<point x="18" y="0" type="line"/>
			<point x="451" y="0" type="line"/>
			<point x="476" y="120" type="line"/>
			<point x="180" y="120" type="line"/>
			<point x="218" y="297" type="line"/>
			<point x="456" y="297" type="line"/>
			<point x="481" y="415" type="line"/>
			<point x="243" y="415" type="line"/>
			<point x="280" y="590" type="line"/>
			<point x="576" y="590" type="line"/>
		</contour>
	</outline>
</glyph>
<glyph name="Igrave" format="2">
	<advance width="282"/>
	<unicode hex="00CC"/>
	<note>
		Igrave
	</note>
	<outline>
		<contour>
			<point x="389" y="763" type="line"/>
			<point x="417" y="850" type="line"/>
			<point x="149" y="952" type="line"/>
			<point x="111" y="837" type="line"/>
		</contour>
		<contour>
			<point x="307" y="710" type="line"/>
			<point x="170" y="710" type="line"/>
			<point x="18" y="0" type="line"/>
			<point x="155" y="0" type="line"/>
		</contour>
	</outline>
</glyph>
<glyph name="Iacute" format="2">
  <advance width="282"/>
  <unicode hex="00CD"/>
  <note>
Iacute
</note>
  <outline>
    <contour>
      <point x="368" y="952" type="line"/>
      <point x="122" y="850" type="line"/>
      <point x="156" y="763" type="line"/>
      <point x="414" y="837" type="line"/>
    </contour>
    <contour>
      <point x="307" y="710" type="line"/>
      <point x="170" y="710" type="line"/>
      <point x="18" y="0" type="line"/>
      <point x="155" y="0" type="line"/>
    </contour>
  </outline>
</glyph>
<glyph name="Icircumflex" format="2">
	<advance width="282"/>
	<unicode hex="00CE"/>
	<note>
		Icircumflex
	</note>
	<outline>
		<contour>
			<point x="190" y="769" type="line"/>
			<point x="280" y="867" type="line"/>
			<point x="328" y="769" type="line"/>
			<point x="438" y="769" type="line"/>
			<point x="345" y="946" type="line"/>
			<point x="229" y="946" type="line"/>
			<point x="60" y="769" type="line"/>
		</contour>
		<contour>
			<point x="307" y="710" type="line"/>
			<point x="170" y="710" type="line"/>
			<point x="18" y="0" type="line"/>
			<point x="155" y="0" type="line"/>
		</contour>
	</outline>
</glyph>
<glyph name="Idieresis" format="2">
  <advance width="282"/>
  <unicode hex="00CF"/>
  <note>
Idieresis
</note>
  <outline>
    <contour>
      <point x="234" y="910" type="line"/>
      <point x="106" y="910" type="line"/>
      <point x="78" y="777" type="line"/>
      <point x="206" y="777" type="line"/>
    </contour>
    <contour>
      <point x="450" y="910" type="line"/>
      <point x="322" y="910" type="line"/>
      <point x="294" y="777" type="line"/>
      <point x="422" y="777" type="line"/>
    </contour>
    <contour>
      <point x="307" y="710" type="line"/>
      <point x="170" y="710" type="line"/>
      <point x="18" y="0" type="line"/>
      <point x="155" y="0" type="line"/>
    </contour>
  </outline>
</glyph>
<glyph name="Eth" format="2">
	<advance width="670"/>
	<unicode hex="00D0"/>
	<note>
		Eth
	</note>
	<outline>
		<contour>
			<point x="111" y="298" type="line"/>
			<point x="47" y="0" type="line"/>
			<point x="308" y="0" type="line" smooth="yes"/>
			<point x="581" y="0"/>
			<point x="659" y="300"/>
			<point x="659" y="485" type="curve" smooth="yes"/>
			<point x="659" y="627"/>
			<point x="593" y="710"/>
			<point x="432" y="710" type="curve" smooth="yes"/>
			<point x="199" y="710" type="line"/>
			<point x="135" y="412" type="line"/>
			<point x="69" y="412" type="line"/>
			<point x="45" y="298" type="line"/>
		</contour>
		<contour>
			<point x="298" y="120" type="curve" smooth="yes"/>
			<point x="210" y="120" type="line"/>
			<point x="248" y="298" type="line"/>
			<point x="392" y="298" type="line"/>
			<point x="416" y="412" type="line"/>
			<point x="272" y="412" type="line"/>
			<point x="310" y="590" type="line"/>
			<point x="399" y="590" type="line" smooth="yes"/>
			<point x="480" y="590"/>
			<point x="517" y="560"/>
			<point x="517" y="472" type="curve" smooth="yes"/>
			<point x="517" y="362"/>
			<point x="466" y="120"/>
		</contour>
	</outline>
</glyph>
<glyph name="Ntilde" format="2">
  <advance width="704"/>
  <unicode hex="00D1"/>
  <note>
Ntilde
</note>
  <outline>
    <contour>
      <point x="670" y="848" type="curve"/>
      <point x="640" y="918" type="line"/>
      <point x="640" y="918"/>
      <point x="579" y="884"/>
      <point x="553" y="884" type="curve" smooth="yes"/>
      <point x="525" y="884"/>
      <point x="465" y="920"/>
      <point x="424" y="920" type="curve" smooth="yes"/>
      <point x="372" y="920"/>
      <point x="291" y="855"/>
      <point x="291" y="855" type="curve"/>
      <point x="320" y="785" type="line"/>
      <point x="320" y="785"/>
      <point x="376" y="816"/>
      <point x="404" y="816" type="curve" smooth="yes"/>
      <point x="437" y="816"/>
      <point x="493" y="780"/>
      <point x="535" y="780" type="curve" smooth="yes"/>
      <point x="587" y="780"/>
      <point x="670" y="848"/>
    </contour>
    <contour>
      <point x="411" y="710" type="line"/>
      <point x="170" y="710" type="line"/>
      <point x="18" y="0" type="line"/>
      <point x="151" y="0" type="line"/>
      <point x="277" y="590" type="line"/>
      <point x="307" y="590" type="line"/>
      <point x="342" y="0" type="line"/>
      <point x="578" y="0" type="line"/>
      <point x="729" y="710" type="line"/>
      <point x="596" y="710" type="line"/>
      <point x="470" y="120" type="line"/>
      <point x="440" y="120" type="line"/>
    </contour>
  </outline>
</glyph>
<glyph name="Otilde" format="2">
	<advance width="679"/>
	<unicode hex="00D5"/>
	<note>
		Otilde
	</note>
	<outline>
		<contour>
			<point x="647" y="848" type="curve"/>
			<point x="617" y="918" type="line"/>
			<point x="617" y="918"/>
			<point x="556" y="884"/>
			<point x="530" y="884" type="curve" smooth="yes"/>
			<point x="502" y="884"/>
			<point x="442" y="920"/>
			<point x="401" y="920" type="curve" smooth="yes"/>
			<point x="349" y="920"/>
			<point x="268" y="855"/>
			<point x="268" y="855" type="curve"/>
			<point x="297" y="785" type="line"/>
			<point x="297" y="785"/>
			<point x="353" y="816"/>
			<point x="381" y="816" type="curve" smooth="yes"/>
			<point x="414" y="816"/>
			<point x="470" y="780"/>
			<point x="512" y="780" type="curve" smooth="yes"/>
			<point x="564" y="780"/>
			<point x="647" y="848"/>
		</contour>
		<contour>
			<point x="300" y="-14" type="curve" smooth="yes"/>
			<point x="558" y="-14"/>
			<point x="669" y="257"/>
			<point x="669" y="481" type="curve" smooth="yes"/>
			<point x="669" y="632"/>
			<point x="588" y="726"/>
			<point x="423" y="726" type="curve" smooth="yes"/>
			<point x="156" y="726"/>
			<point x="53" y="450"/>
			<point x="53" y="227" type="curve" smooth="yes"/>
			<point x="53" y="79"/>
			<point x="135" y="-14"/>
		</contour>
		<contour>
			<point x="304" y="106" type="curve" smooth="yes"/>
			<point x="231" y="106"/>
			<point x="195" y="142"/>
			<point x="195" y="224" type="curve" smooth="yes"/>
			<point x="195" y="390"/>
			<point x="260" y="606"/>
			<point x="418" y="606" type="curve" smooth="yes"/>
			<point x="491" y="606"/>
			<point x="527" y="566"/>
			<point x="527" y="483" type="curve" smooth="yes"/>
			<point x="527" y="382"/>
			<point x="481" y="106"/>
		</contour>
	</outline>
</glyph>
<glyph name="multiply" format="2">
  <advance width="560"/>
  <unicode hex="00D7"/>
  <note>
multiply
</note>
  <outline>
    <contour>
      <point x="302" y="359" type="line"/>
      <point x="191" y="500" type="line"/>
      <point x="92" y="418" type="line"/>
      <point x="203" y="277" type="line"/>
      <point x="32" y="136" type="line"/>
      <point x="97" y="54" type="line"/>
      <point x="268" y="195" type="line"/>
      <point x="379" y="54" type="line"/>
      <point x="478" y="136" type="line"/>
      <point x="367" y="277" type="line"/>
      <point x="538" y="418" type="line"/>
      <point x="473" y="500" type="line"/>
    </contour>
  </outline>
</glyph>
<glyph name="Ugrave" format="2">
  <advance width="643"/>
  <unicode hex="00D9"/>
  <note>
Ugrave
</note>
  <outline>
    <contour>
      <point x="567" y="763" type="line"/>
      <point x="595" y="850" type="line"/>
      <point x="327" y="952" type="line"/>
      <point x="289" y="837" type="line"/>
    </contour>
    <contour>
      <point x="199" y="234" type="curve" smooth="yes"/>
      <point x="301" y="710" type="line"/>
      <point x="164" y="710" type="line"/>
      <point x="66" y="251" type="line" smooth="yes"/>
      <point x="31" y="88"/>
      <point x="104" y="-14"/>
      <point x="295" y="-14" type="curve" smooth="yes"/>
      <point x="461" y="-14"/>
      <point x="532" y="52"/>
      <point x="567" y="218" type="curve" smooth="yes"/>
      <point x="672" y="710" type="line"/>
      <point x="535" y="710" type="line"/>
      <point x="432" y="227" type="line" smooth="yes"/>
      <point x="413" y="137"/>
      <point x="373" y="106"/>
      <point x="301" y="106" type="curve" smooth="yes"/>
      <point x="213" y="106"/>
      <point x="181" y="151"/>
    </contour>
  </outline>
</glyph>
<glyph name="Uacute" format="2">
  <advance width="643"/>
  <unicode hex="00DA"/>
  <note>
Uacute
</note>
  <outline>
    <contour>
      <point x="546" y="952" type="line"/>
      <point x="300" y="850" type="line"/>
      <point x="334" y="763" type="line"/>
      <point x="592" y="837" type="line"/>
    </contour>
    <contour>
      <point x="199" y="234" type="curve" smooth="yes"/>
      <point x="301" y="710" type="line"/>
      <point x="164" y="710" type="line"/>
      <point x="66" y="251" type="line" smooth="yes"/>
      <point x="31" y="88"/>
      <point x="104" y="-14"/>
      <point x="295" y="-14" type="curve" smooth="yes"/>
      <point x="461" y="-14"/>
      <point x="532" y="52"/>
      <point x="567" y="218" type="curve" smooth="yes"/>
      <point x="672" y="710" type="line"/>
      <point x="535" y="710" type="line"/>
      <point x="432" y="227" type="line" smooth="yes"/>
      <point x="413" y="137"/>
      <point x="373" y="106"/>
      <point x="301" y="106" type="curve" smooth="yes"/>
      <point x="213" y="106"/>
      <point x="181" y="151"/>
    </contour>
  </outline>
</glyph>
<glyph name="Ucircumflex" format="2">
	<advance width="643"/>
	<unicode hex="00DB"/>
	<note>
		Ucircumflex
	</note>
	<outline>
		<contour>
			<point x="368" y="769" type="line"/>
			<point x="458" y="867" type="line"/>
			<point x="506" y="769" type="line"/>
			<point x="616" y="769" type="line"/>
			<point x="523" y="946" type="line"/>
			<point x="407" y="946" type="line"/>
			<point x="238" y="769" type="line"/>
		</contour>
		<contour>
			<point x="199" y="234" type="curve" smooth="yes"/>
			<point x="301" y="710" type="line"/>
			<point x="164" y="710" type="line"/>
			<point x="66" y="251" type="line" smooth="yes"/>
			<point x="31" y="88"/>
			<point x="104" y="-14"/>
			<point x="295" y="-14" type="curve" smooth="yes"/>
			<point x="461" y="-14"/>
			<point x="532" y="52"/>
			<point x="567" y="218" type="curve" smooth="yes"/>
			<point x="672" y="710" type="line"/>
			<point x="535" y="710" type="line"/>
			<point x="432" y="227" type="line" smooth="yes"/>
			<point x="413" y="137"/>
			<point x="373" y="106"/>
			<point x="301" y="106" type="curve" smooth="yes"/>
			<point x="213" y="106"/>
			<point x="181" y="151"/>
		</contour>
	</outline>
</glyph>
<glyph name="Yacute" format="2">
  <advance width="547"/>
  <unicode hex="00DD"/>
  <note>
Yacute
</note>
  <outline>
    <contour>
      <point x="486" y="952" type="line"/>
      <point x="240" y="850" type="line"/>
      <point x="274" y="763" type="line"/>
      <point x="532" y="837" type="line"/>
    </contour>
    <contour>
      <point x="215" y="298" type="line"/>
      <point x="154" y="0" type="line"/>
      <point x="289" y="0" type="line"/>
      <point x="350" y="298" type="line"/>
      <point x="641" y="710" type="line"/>
      <point x="484" y="710" type="line"/>
      <point x="306" y="434" type="line"/>
      <point x="236" y="710" type="line"/>
      <point x="97" y="710" type="line"/>
    </contour>
  </outline>
</glyph>
<glyph name="Thorn" format="2">
  <advance width="605"/>
  <unicode hex="00DE"/>
  <note>
Thorn
</note>
  <outline>
    <contour>
      <point x="307" y="710" type="line"/>
      <point x="170" y="710" type="line"/>
      <point x="18" y="0" type="line"/>
      <point x="155" y="0" type="line"/>
      <point x="181" y="121" type="line"/>
      <point x="293" y="121" type="line" smooth="yes"/>
      <point x="490" y="121"/>
      <point x="594" y="251"/>
      <point x="594" y="405" type="curve" smooth="yes"/>
      <point x="594" y="528"/>
      <point x="527" y="593"/>
      <point x="394" y="593" type="curve" smooth="yes"/>
      <point x="282" y="593" type="line"/>
    </contour>
    <contour>
      <point x="317" y="239" type="curve" smooth="yes"/>
      <point x="207" y="239" type="line"/>
      <point x="258" y="475" type="line"/>
      <point x="376" y="475" type="line" smooth="yes"/>
      <point x="423" y="475"/>
      <point x="451" y="449"/>
      <point x="451" y="386" type="curve" smooth="yes"/>
      <point x="451" y="312"/>
      <point x="413" y="239"/>
    </contour>
  </outline>
</glyph>
<glyph name="germandbls" format="2">
	<advance width="634"/>
	<unicode hex="00DF"/>
	<note>
		germandbls
	</note>
	<outline>
		<contour>
			<point x="121" y="530" type="curve" smooth="yes"/>
			<point x="9" y="0" type="line"/>
			<point x="143" y="0" type="line"/>
			<point x="255" y="527" type="line" smooth="yes"/>
			<point x="270" y="596"/>
			<point x="304" y="626"/>
			<point x="383" y="626" type="curve" smooth="yes"/>
			<point x="440" y="626"/>
			<point x="471" y="612"/>
			<point x="471" y="583" type="curve" smooth="yes"/>
			<point x="471" y="550"/>
			<point x="449" y="540"/>
			<point x="386" y="502" type="curve" smooth="yes"/>
			<point x="319" y="461"/>
			<point x="272" y="423"/>
			<point x="272" y="350" type="curve" smooth="yes"/>
			<point x="272" y="305"/>
			<point x="297" y="285"/>
			<point x="349" y="254" type="curve" smooth="yes"/>
			<point x="417" y="214" type="line" smooth="yes"/>
			<point x="442" y="199"/>
			<point x="453" y="191"/>
			<point x="453" y="166" type="curve" smooth="yes"/>
			<point x="453" y="131"/>
			<point x="431" y="106"/>
			<point x="359" y="106" type="curve" smooth="yes"/>
			<point x="309" y="106"/>
			<point x="225" y="118"/>
			<point x="225" y="118" type="curve"/>
			<point x="198" y="11" type="line"/>
			<point x="198" y="11"/>
			<point x="281" y="-12"/>
			<point x="361" y="-12" type="curve" smooth="yes"/>
			<point x="514" y="-12"/>
			<point x="594" y="72"/>
			<point x="594" y="184" type="curve" smooth="yes"/>
			<point x="594" y="243"/>
			<point x="572" y="279"/>
			<point x="527" y="304" type="curve" smooth="yes"/>
			<point x="448" y="348" type="line" smooth="yes"/>
			<point x="421" y="363"/>
			<point x="410" y="370"/>
			<point x="410" y="388" type="curve" smooth="yes"/>
			<point x="410" y="414"/>
			<point x="443" y="429"/>
			<point x="490" y="456" type="curve" smooth="yes"/>
			<point x="577" y="506"/>
			<point x="612" y="542"/>
			<point x="612" y="601" type="curve" smooth="yes"/>
			<point x="612" y="687"/>
			<point x="559" y="740"/>
			<point x="397" y="740" type="curve" smooth="yes"/>
			<point x="246" y="740"/>
			<point x="156" y="696"/>
		</contour>
	</outline>
</glyph>
<glyph name="agrave" format="2">
  <advance width="542"/>
  <unicode hex="00E0"/>
  <note>
agrave
</note>
  <outline>
    <contour>
      <point x="476" y="564" type="line"/>
      <point x="510" y="651" type="line"/>
      <point x="264" y="753" type="line"/>
      <point x="218" y="638" type="line"/>
    </contour>
    <contour>
      <point x="161" y="-14" type="curve" smooth="yes"/>
      <point x="253" y="-14"/>
      <point x="318" y="78"/>
      <point x="318" y="78" type="curve"/>
      <point x="314" y="59"/>
      <point x="309" y="0"/>
      <point x="309" y="0" type="curve"/>
      <point x="439" y="0" type="line"/>
      <point x="439" y="0"/>
      <point x="444" y="94"/>
      <point x="460" y="165" type="curve" smooth="yes"/>
      <point x="531" y="489" type="line"/>
      <point x="531" y="489"/>
      <point x="366" y="526"/>
      <point x="287" y="526" type="curve" smooth="yes"/>
      <point x="115" y="526"/>
      <point x="29" y="318"/>
      <point x="29" y="168" type="curve" smooth="yes"/>
      <point x="29" y="62"/>
      <point x="74" y="-14"/>
    </contour>
    <contour>
      <point x="286" y="414" type="curve" smooth="yes"/>
      <point x="315" y="414"/>
      <point x="379" y="400"/>
      <point x="379" y="400" type="curve"/>
      <point x="334" y="192" type="line"/>
      <point x="334" y="192"/>
      <point x="268" y="97"/>
      <point x="208" y="97" type="curve" smooth="yes"/>
      <point x="176" y="97"/>
      <point x="161" y="117"/>
      <point x="161" y="177" type="curve" smooth="yes"/>
      <point x="161" y="284"/>
      <point x="198" y="414"/>
    </contour>
  </outline>
</glyph>
<glyph name="atilde" format="2">
  <advance width="542"/>
  <unicode hex="00E3"/>
  <note>
atilde
</note>
  <outline>
    <contour>
      <point x="558" y="643" type="curve"/>
      <point x="528" y="713" type="line"/>
      <point x="528" y="713"/>
      <point x="467" y="679"/>
      <point x="441" y="679" type="curve" smooth="yes"/>
      <point x="413" y="679"/>
      <point x="353" y="715"/>
      <point x="312" y="715" type="curve" smooth="yes"/>
      <point x="260" y="715"/>
      <point x="179" y="650"/>
      <point x="179" y="650" type="curve"/>
      <point x="208" y="580" type="line"/>
      <point x="208" y="580"/>
      <point x="264" y="611"/>
      <point x="292" y="611" type="curve" smooth="yes"/>
      <point x="325" y="611"/>
      <point x="381" y="575"/>
      <point x="423" y="575" type="curve" smooth="yes"/>
      <point x="475" y="575"/>
      <point x="558" y="643"/>
    </contour>
    <contour>
      <point x="161" y="-14" type="curve" smooth="yes"/>
      <point x="253" y="-14"/>
      <point x="318" y="78"/>
      <point x="318" y="78" type="curve"/>
      <point x="314" y="59"/>
      <point x="309" y="0"/>
      <point x="309" y="0" type="curve"/>
      <point x="439" y="0" type="line"/>
      <point x="439" y="0"/>
      <point x="444" y="94"/>
      <point x="460" y="165" type="curve" smooth="yes"/>
      <point x="531" y="489" type="line"/>
      <point x="531" y="489"/>
      <point x="366" y="526"/>
      <point x="287" y="526" type="curve" smooth="yes"/>
      <point x="115" y="526"/>
      <point x="29" y="318"/>
      <point x="29" y="168" type="curve" smooth="yes"/>
      <point x="29" y="62"/>
      <point x="74" y="-14"/>
    </contour>
    <contour>
      <point x="286" y="414" type="curve" smooth="yes"/>
      <point x="315" y="414"/>
      <point x="379" y="400"/>
      <point x="379" y="400" type="curve"/>
      <point x="334" y="192" type="line"/>
      <point x="334" y="192"/>
      <point x="268" y="97"/>
      <point x="208" y="97" type="curve" smooth="yes"/>
      <point x="176" y="97"/>
      <point x="161" y="117"/>
      <point x="161" y="177" type="curve" smooth="yes"/>
      <point x="161" y="284"/>
      <point x="198" y="414"/>
    </contour>
  </outline>
</glyph>
<glyph name="aring" format="2">
  <advance width="542"/>
  <unicode hex="00E5"/>
  <note>
aring
</note>
  <outline>
    <contour>
      <point x="247" y="649" type="curve" smooth="yes"/>
      <point x="247" y="596"/>
      <point x="290" y="557"/>
      <point x="348" y="557" type="curve" smooth="yes"/>
      <point x="429" y="557"/>
      <point x="487" y="619"/>
      <point x="487" y="689" type="curve" smooth="yes"/>
      <point x="487" y="742"/>
      <point x="444" y="783"/>
      <point x="387" y="783" type="curve" smooth="yes"/>
      <point x="309" y="783"/>
      <point x="247" y="727"/>
    </contour>
    <contour>
      <point x="321" y="659" type="curve" smooth="yes"/>
      <point x="321" y="690"/>
      <point x="347" y="715"/>
      <point x="378" y="715" type="curve" smooth="yes"/>
      <point x="400" y="715"/>
      <point x="414" y="701"/>
      <point x="414" y="681" type="curve" smooth="yes"/>
      <point x="414" y="648"/>
      <point x="387" y="624"/>
      <point x="358" y="624" type="curve" smooth="yes"/>
      <point x="335" y="624"/>
      <point x="321" y="638"/>
    </contour>
    <contour>
      <point x="161" y="-14" type="curve" smooth="yes"/>
      <point x="253" y="-14"/>
      <point x="318" y="78"/>
      <point x="318" y="78" type="curve"/>
      <point x="314" y="59"/>
      <point x="309" y="0"/>
      <point x="309" y="0" type="curve"/>
      <point x="439" y="0" type="line"/>
      <point x="439" y="0"/>
      <point x="444" y="94"/>
      <point x="460" y="165" type="curve" smooth="yes"/>
      <point x="531" y="489" type="line"/>
      <point x="531" y="489"/>
      <point x="366" y="526"/>
      <point x="287" y="526" type="curve" smooth="yes"/>
      <point x="115" y="526"/>
      <point x="29" y="318"/>
      <point x="29" y="168" type="curve" smooth="yes"/>
      <point x="29" y="62"/>
      <point x="74" y="-14"/>
    </contour>
    <contour>
      <point x="286" y="414" type="curve" smooth="yes"/>
      <point x="315" y="414"/>
      <point x="379" y="400"/>
      <point x="379" y="400" type="curve"/>
      <point x="334" y="192" type="line"/>
      <point x="334" y="192"/>
      <point x="268" y="97"/>
      <point x="208" y="97" type="curve" smooth="yes"/>
      <point x="176" y="97"/>
      <point x="161" y="117"/>
      <point x="161" y="177" type="curve" smooth="yes"/>
      <point x="161" y="284"/>
      <point x="198" y="414"/>
    </contour>
  </outline>
</glyph>
<glyph name="ae" format="2">
  <advance width="800"/>
  <unicode hex="00E6"/>
  <note>
ae
</note>
  <outline>
    <contour>
      <point x="521" y="108" type="curve" smooth="yes"/>
      <point x="458" y="108"/>
      <point x="436" y="132"/>
      <point x="436" y="170" type="curve" smooth="yes"/>
      <point x="436" y="180"/>
      <point x="437" y="191"/>
      <point x="440" y="204" type="curve"/>
      <point x="740" y="204" type="line"/>
      <point x="770" y="290" type="line"/>
      <point x="801" y="434"/>
      <point x="759" y="526"/>
      <point x="593" y="526" type="curve" smooth="yes"/>
      <point x="535" y="526"/>
      <point x="479" y="514"/>
      <point x="437" y="474" type="curve"/>
      <point x="415" y="513"/>
      <point x="359" y="526"/>
      <point x="303" y="526" type="curve" smooth="yes"/>
      <point x="198" y="526"/>
      <point x="101" y="489"/>
      <point x="101" y="489" type="curve"/>
      <point x="85" y="394" type="line"/>
      <point x="85" y="394"/>
      <point x="223" y="410"/>
      <point x="288" y="410" type="curve" smooth="yes"/>
      <point x="328" y="410"/>
      <point x="343" y="390"/>
      <point x="337" y="354" type="curve" smooth="yes"/>
      <point x="329" y="309" type="line"/>
      <point x="217" y="309" type="line" smooth="yes"/>
      <point x="79" y="309"/>
      <point x="11" y="261"/>
      <point x="11" y="132" type="curve" smooth="yes"/>
      <point x="11" y="50"/>
      <point x="59" y="-12"/>
      <point x="154" y="-12" type="curve" smooth="yes"/>
      <point x="228" y="-12"/>
      <point x="264" y="4"/>
      <point x="310" y="23" type="curve" smooth="yes"/>
      <point x="339" y="35" type="line"/>
      <point x="363" y="6"/>
      <point x="428" y="-14"/>
      <point x="498" y="-14" type="curve" smooth="yes"/>
      <point x="593" y="-14"/>
      <point x="696" y="15"/>
      <point x="696" y="15" type="curve"/>
      <point x="715" y="116" type="line"/>
      <point x="715" y="116"/>
      <point x="605" y="108"/>
    </contour>
    <contour>
      <point x="638" y="299" type="curve"/>
      <point x="462" y="299" type="line"/>
      <point x="478" y="373"/>
      <point x="507" y="414"/>
      <point x="577" y="414" type="curve" smooth="yes"/>
      <point x="655" y="414"/>
      <point x="652" y="366"/>
    </contour>
    <contour>
      <point x="209" y="99" type="curve" smooth="yes"/>
      <point x="172" y="99"/>
      <point x="154" y="116"/>
      <point x="154" y="152" type="curve" smooth="yes"/>
      <point x="154" y="194"/>
      <point x="173" y="214"/>
      <point x="225" y="214" type="curve" smooth="yes"/>
      <point x="312" y="214" type="line"/>
      <point x="309" y="188"/>
      <point x="304" y="164"/>
      <point x="304" y="136" type="curve" smooth="yes"/>
      <point x="304" y="129"/>
      <point x="304" y="122"/>
      <point x="305" y="116" type="curve"/>
      <point x="286" y="110"/>
      <point x="248" y="99"/>
    </contour>
  </outline>
</glyph>
<glyph name="ccedilla" format="2">
	<advance width="435"/>
	<unicode hex="00E7"/>
	<note>
		ccedilla
	</note>
	<outline>
		<contour>
			<point x="314" y="-127" type="curve" smooth="yes"/>
			<point x="314" y="-77"/>
			<point x="286" y="-49"/>
			<point x="223" y="-47" type="curve"/>
			<point x="234" y="-13" type="line"/>
			<point x="295" y="-9"/>
			<point x="352" y="6"/>
			<point x="352" y="6" type="curve"/>
			<point x="369" y="111" type="line"/>
			<point x="369" y="111"/>
			<point x="293" y="100"/>
			<point x="238" y="100" type="curve" smooth="yes"/>
			<point x="178" y="100"/>
			<point x="164" y="119"/>
			<point x="164" y="184" type="curve" smooth="yes"/>
			<point x="164" y="304"/>
			<point x="203" y="411"/>
			<point x="311" y="411" type="curve" smooth="yes"/>
			<point x="361" y="411"/>
			<point x="418" y="399"/>
			<point x="418" y="399" type="curve"/>
			<point x="444" y="504" type="line"/>
			<point x="444" y="504"/>
			<point x="376" y="526"/>
			<point x="303" y="526" type="curve" smooth="yes"/>
			<point x="94" y="526"/>
			<point x="32" y="328"/>
			<point x="32" y="170" type="curve" smooth="yes"/>
			<point x="32" y="64"/>
			<point x="84" y="-2"/>
			<point x="180" y="-13" type="curve"/>
			<point x="142" y="-105" type="line"/>
			<point x="166" y="-105" type="line" smooth="yes"/>
			<point x="189" y="-105"/>
			<point x="200" y="-112"/>
			<point x="200" y="-128" type="curve" smooth="yes"/>
			<point x="200" y="-146"/>
			<point x="186" y="-154"/>
			<point x="156" y="-154" type="curve" smooth="yes"/>
			<point x="139" y="-154"/>
			<point x="108" y="-153"/>
			<point x="98" y="-153" type="curve"/>
			<point x="78" y="-229" type="line"/>
			<point x="88" y="-229"/>
			<point x="135" y="-240"/>
			<point x="178" y="-240" type="curve" smooth="yes"/>
			<point x="269" y="-240"/>
			<point x="314" y="-198"/>
		</contour>
	</outline>
</glyph>
<glyph name="eacute" format="2">
	<advance width="491"/>
	<unicode hex="00E9"/>
	<note>
		eacute
	</note>
	<outline>
		<contour>
			<point x="450" y="753" type="line"/>
			<point x="160" y="651" type="line"/>
			<point x="184" y="564" type="line"/>
			<point x="478" y="638" type="line"/>
		</contour>
		<contour>
			<point x="250" y="96" type="curve" smooth="yes"/>
			<point x="182" y="96"/>
			<point x="163" y="133"/>
			<point x="163" y="177" type="curve" smooth="yes"/>
			<point x="163" y="189"/>
			<point x="165" y="208"/>
			<point x="167" y="216" type="curve"/>
			<point x="212" y="216" type="line" smooth="yes"/>
			<point x="393" y="216"/>
			<point x="482" y="247"/>
			<point x="482" y="378" type="curve" smooth="yes"/>
			<point x="482" y="485"/>
			<point x="415" y="526"/>
			<point x="307" y="526" type="curve" smooth="yes"/>
			<point x="119" y="526"/>
			<point x="33" y="353"/>
			<point x="33" y="198" type="curve" smooth="yes"/>
			<point x="33" y="61"/>
			<point x="94" y="-14"/>
			<point x="223" y="-14" type="curve" smooth="yes"/>
			<point x="305" y="-14"/>
			<point x="391" y="12"/>
			<point x="391" y="12" type="curve"/>
			<point x="406" y="111" type="line"/>
			<point x="406" y="111"/>
			<point x="307" y="96"/>
		</contour>
		<contour>
			<point x="223" y="308" type="curve" smooth="yes"/>
			<point x="182" y="308" type="line"/>
			<point x="199" y="385"/>
			<point x="241" y="424"/>
			<point x="300" y="424" type="curve" smooth="yes"/>
			<point x="332" y="424"/>
			<point x="352" y="413"/>
			<point x="352" y="376" type="curve" smooth="yes"/>
			<point x="352" y="329"/>
			<point x="317" y="308"/>
		</contour>
	</outline>
</glyph>
<glyph name="igrave" format="2">
  <advance width="257"/>
  <unicode hex="00EC"/>
  <note>
igrave
</note>
  <outline>
    <contour>
      <point x="314" y="554" type="line"/>
      <point x="348" y="641" type="line"/>
      <point x="102" y="743" type="line"/>
      <point x="56" y="628" type="line"/>
    </contour>
    <contour>
      <point x="247" y="500" type="line"/>
      <point x="114" y="500" type="line"/>
      <point x="8" y="0" type="line"/>
      <point x="141" y="0" type="line"/>
    </contour>
  </outline>
</glyph>
<glyph name="iacute" format="2">
  <advance width="257"/>
  <unicode hex="00ED"/>
  <note>
iacute
</note>
  <outline>
    <contour>
      <point x="329" y="753" type="line"/>
      <point x="39" y="651" type="line"/>
      <point x="63" y="564" type="line"/>
      <point x="357" y="638" type="line"/>
    </contour>
    <contour>
      <point x="247" y="500" type="line"/>
      <point x="114" y="500" type="line"/>
      <point x="8" y="0" type="line"/>
      <point x="141" y="0" type="line"/>
    </contour>
  </outline>
</glyph>
<glyph name="icircumflex" format="2">
  <advance width="257"/>
  <unicode hex="00EE"/>
  <note>
icircumflex
</note>
  <outline>
    <contour>
      <point x="133" y="569" type="line"/>
      <point x="223" y="667" type="line"/>
      <point x="271" y="569" type="line"/>
      <point x="381" y="569" type="line"/>
      <point x="288" y="746" type="line"/>
      <point x="172" y="746" type="line"/>
      <point x="3" y="569" type="line"/>
    </contour>
    <contour>
      <point x="247" y="500" type="line"/>
      <point x="114" y="500" type="line"/>
      <point x="8" y="0" type="line"/>
      <point x="141" y="0" type="line"/>
    </contour>
  </outline>
</glyph>
<glyph name="idieresis" format="2">
  <advance width="257"/>
  <unicode hex="00EF"/>
  <note>
idieresis
</note>
  <outline>
    <contour>
      <point x="176" y="720" type="line"/>
      <point x="48" y="720" type="line"/>
      <point x="20" y="587" type="line"/>
      <point x="148" y="587" type="line"/>
    </contour>
    <contour>
      <point x="384" y="720" type="line"/>
      <point x="256" y="720" type="line"/>
      <point x="228" y="587" type="line"/>
      <point x="356" y="587" type="line"/>
    </contour>
    <contour>
      <point x="247" y="500" type="line"/>
      <point x="114" y="500" type="line"/>
      <point x="8" y="0" type="line"/>
      <point x="141" y="0" type="line"/>
    </contour>
  </outline>
</glyph>
<glyph name="eth" format="2">
	<advance width="592"/>
	<unicode hex="00F0"/>
	<note>
		eth
	</note>
	<outline>
		<contour>
			<point x="276" y="622" type="curve"/>
			<point x="189" y="571" type="line"/>
			<point x="227" y="495" type="line"/>
			<point x="374" y="581" type="line"/>
			<point x="442" y="538"/>
			<point x="436" y="469"/>
			<point x="428" y="414" type="curve"/>
			<point x="428" y="414"/>
			<point x="372" y="438"/>
			<point x="291" y="438" type="curve" smooth="yes"/>
			<point x="109" y="438"/>
			<point x="30" y="347"/>
			<point x="30" y="204" type="curve" smooth="yes"/>
			<point x="30" y="62"/>
			<point x="125" y="-9"/>
			<point x="266" y="-9" type="curve" smooth="yes"/>
			<point x="508" y="-9"/>
			<point x="569" y="224"/>
			<point x="569" y="434" type="curve" smooth="yes"/>
			<point x="569" y="530"/>
			<point x="536" y="604"/>
			<point x="490" y="653" type="curve"/>
			<point x="559" y="689" type="line"/>
			<point x="521" y="765" type="line"/>
			<point x="412" y="701" type="line"/>
			<point x="357" y="721"/>
			<point x="290" y="734"/>
			<point x="211" y="740" type="curve"/>
			<point x="173" y="646" type="line"/>
			<point x="212" y="638"/>
			<point x="247" y="630"/>
		</contour>
		<contour>
			<point x="294" y="322" type="curve" smooth="yes"/>
			<point x="347" y="322"/>
			<point x="403" y="298"/>
			<point x="403" y="298" type="curve"/>
			<point x="382" y="162"/>
			<point x="336" y="111"/>
			<point x="266" y="111" type="curve" smooth="yes"/>
			<point x="210" y="111"/>
			<point x="175" y="143"/>
			<point x="175" y="201" type="curve" smooth="yes"/>
			<point x="175" y="265"/>
			<point x="214" y="322"/>
		</contour>
	</outline>
</glyph>
<glyph name="ntilde" format="2">
	<advance width="523"/>
	<unicode hex="00F1"/>
	<note>
		ntilde
	</note>
	<outline>
		<contour>
			<point x="571" y="643" type="curve"/>
			<point x="541" y="713" type="line"/>
			<point x="541" y="713"/>
			<point x="480" y="679"/>
			<point x="454" y="679" type="curve" smooth="yes"/>
			<point x="426" y="679"/>
			<point x="366" y="715"/>
			<point x="325" y="715" type="curve" smooth="yes"/>
			<point x="273" y="715"/>
			<point x="192" y="650"/>
			<point x="192" y="650" type="curve"/>
			<point x="221" y="580" type="line"/>
			<point x="221" y="580"/>
			<point x="277" y="611"/>
			<point x="305" y="611" type="curve" smooth="yes"/>
			<point x="338" y="611"/>
			<point x="394" y="575"/>
			<point x="436" y="575" type="curve" smooth="yes"/>
			<point x="488" y="575"/>
			<point x="571" y="643"/>
		</contour>
		<contour>
			<point x="117" y="510" type="line"/>
			<point x="8" y="0" type="line"/>
			<point x="139" y="0" type="line"/>
			<point x="212" y="341" type="line"/>
			<point x="212" y="341"/>
			<point x="249" y="410"/>
			<point x="312" y="410" type="curve" smooth="yes"/>
			<point x="340" y="410"/>
			<point x="350" y="394"/>
			<point x="350" y="367" type="curve" smooth="yes"/>
			<point x="350" y="324"/>
			<point x="342" y="290"/>
			<point x="335" y="255" type="curve" smooth="yes"/>
			<point x="285" y="0" type="line"/>
			<point x="415" y="0" type="line"/>
			<point x="467" y="261" type="line" smooth="yes"/>
			<point x="473" y="291"/>
			<point x="486" y="357"/>
			<point x="486" y="407" type="curve" smooth="yes"/>
			<point x="486" y="468"/>
			<point x="457" y="526"/>
			<point x="379" y="526" type="curve" smooth="yes"/>
			<point x="291" y="526"/>
			<point x="228" y="451"/>
			<point x="228" y="451" type="curve"/>
			<point x="237" y="510" type="line"/>
		</contour>
	</outline>
</glyph>
<glyph name="ograve" format="2">
	<advance width="518"/>
	<unicode hex="00F2"/>
	<note>
		ograve
	</note>
	<outline>
		<contour>
			<point x="438" y="564" type="line"/>
			<point x="472" y="651" type="line"/>
			<point x="226" y="753" type="line"/>
			<point x="180" y="638" type="line"/>
		</contour>
		<contour>
			<point x="299" y="526" type="curve" smooth="yes"/>
			<point x="108" y="526"/>
			<point x="31" y="346"/>
			<point x="31" y="158" type="curve" smooth="yes"/>
			<point x="31" y="50"/>
			<point x="94" y="-14"/>
			<point x="220" y="-14" type="curve" smooth="yes"/>
			<point x="411" y="-14"/>
			<point x="488" y="169"/>
			<point x="488" y="353" type="curve" smooth="yes"/>
			<point x="488" y="463"/>
			<point x="424" y="526"/>
		</contour>
		<contour>
			<point x="228" y="100" type="curve" smooth="yes"/>
			<point x="186" y="100"/>
			<point x="166" y="118"/>
			<point x="166" y="168" type="curve" smooth="yes"/>
			<point x="166" y="241"/>
			<point x="194" y="412"/>
			<point x="293" y="412" type="curve" smooth="yes"/>
			<point x="334" y="412"/>
			<point x="355" y="392"/>
			<point x="355" y="342" type="curve" smooth="yes"/>
			<point x="355" y="265"/>
			<point x="328" y="100"/>
		</contour>
	</outline>
</glyph>
<glyph name="ocircumflex" format="2">
	<advance width="518"/>
	<unicode hex="00F4"/>
	<note>
		ocircumflex
	</note>
	<outline>
		<contour>
			<point x="255" y="569" type="line"/>
			<point x="345" y="667" type="line"/>
			<point x="393" y="569" type="line"/>
			<point x="503" y="569" type="line"/>
			<point x="410" y="746" type="line"/>
			<point x="294" y="746" type="line"/>
			<point x="125" y="569" type="line"/>
		</contour>
		<contour>
			<point x="299" y="526" type="curve" smooth="yes"/>
			<point x="108" y="526"/>
			<point x="31" y="346"/>
			<point x="31" y="158" type="curve" smooth="yes"/>
			<point x="31" y="50"/>
			<point x="94" y="-14"/>
			<point x="220" y="-14" type="curve" smooth="yes"/>
			<point x="411" y="-14"/>
			<point x="488" y="169"/>
			<point x="488" y="353" type="curve" smooth="yes"/>
			<point x="488" y="463"/>
			<point x="424" y="526"/>
		</contour>
		<contour>
			<point x="228" y="100" type="curve" smooth="yes"/>
			<point x="186" y="100"/>
			<point x="166" y="118"/>
			<point x="166" y="168" type="curve" smooth="yes"/>
			<point x="166" y="241"/>
			<point x="194" y="412"/>
			<point x="293" y="412" type="curve" smooth="yes"/>
			<point x="334" y="412"/>
			<point x="355" y="392"/>
			<point x="355" y="342" type="curve" smooth="yes"/>
			<point x="355" y="265"/>
			<point x="328" y="100"/>
		</contour>
	</outline>
</glyph>
<glyph name="otilde" format="2">
	<advance width="518"/>
	<unicode hex="00F5"/>
	<note>
		otilde
	</note>
	<outline>
		<contour>
			<point x="520" y="643" type="curve"/>
			<point x="490" y="713" type="line"/>
			<point x="490" y="713"/>
			<point x="429" y="679"/>
			<point x="403" y="679" type="curve" smooth="yes"/>
			<point x="375" y="679"/>
			<point x="315" y="715"/>
			<point x="274" y="715" type="curve" smooth="yes"/>
			<point x="222" y="715"/>
			<point x="141" y="650"/>
			<point x="141" y="650" type="curve"/>
			<point x="170" y="580" type="line"/>
			<point x="170" y="580"/>
			<point x="226" y="611"/>
			<point x="254" y="611" type="curve" smooth="yes"/>
			<point x="287" y="611"/>
			<point x="343" y="575"/>
			<point x="385" y="575" type="curve" smooth="yes"/>
			<point x="437" y="575"/>
			<point x="520" y="643"/>
		</contour>
		<contour>
			<point x="299" y="526" type="curve" smooth="yes"/>
			<point x="108" y="526"/>
			<point x="31" y="346"/>
			<point x="31" y="158" type="curve" smooth="yes"/>
			<point x="31" y="50"/>
			<point x="94" y="-14"/>
			<point x="220" y="-14" type="curve" smooth="yes"/>
			<point x="411" y="-14"/>
			<point x="488" y="169"/>
			<point x="488" y="353" type="curve" smooth="yes"/>
			<point x="488" y="463"/>
			<point x="424" y="526"/>
		</contour>
		<contour>
			<point x="228" y="100" type="curve" smooth="yes"/>
			<point x="186" y="100"/>
			<point x="166" y="118"/>
			<point x="166" y="168" type="curve" smooth="yes"/>
			<point x="166" y="241"/>
			<point x="194" y="412"/>
			<point x="293" y="412" type="curve" smooth="yes"/>
			<point x="334" y="412"/>
			<point x="355" y="392"/>
			<point x="355" y="342" type="curve" smooth="yes"/>
			<point x="355" y="265"/>
			<point x="328" y="100"/>
		</contour>
	</outline>
</glyph>
<glyph name="odieresis" format="2">
  <advance width="518"/>
  <unicode hex="00F6"/>
  <note>
odieresis
</note>
  <outline>
    <contour>
      <point x="298" y="720" type="line"/>
      <point x="170" y="720" type="line"/>
      <point x="142" y="587" type="line"/>
      <point x="270" y="587" type="line"/>
    </contour>
    <contour>
      <point x="506" y="720" type="line"/>
      <point x="378" y="720" type="line"/>
      <point x="350" y="587" type="line"/>
      <point x="478" y="587" type="line"/>
    </contour>
    <contour>
      <point x="299" y="526" type="curve" smooth="yes"/>
      <point x="108" y="526"/>
      <point x="31" y="346"/>
      <point x="31" y="158" type="curve" smooth="yes"/>
      <point x="31" y="50"/>
      <point x="94" y="-14"/>
      <point x="220" y="-14" type="curve" smooth="yes"/>
      <point x="411" y="-14"/>
      <point x="488" y="169"/>
      <point x="488" y="353" type="curve" smooth="yes"/>
      <point x="488" y="463"/>
      <point x="424" y="526"/>
    </contour>
    <contour>
      <point x="228" y="100" type="curve" smooth="yes"/>
      <point x="186" y="100"/>
      <point x="166" y="118"/>
      <point x="166" y="168" type="curve" smooth="yes"/>
      <point x="166" y="241"/>
      <point x="194" y="412"/>
      <point x="293" y="412" type="curve" smooth="yes"/>
      <point x="334" y="412"/>
      <point x="355" y="392"/>
      <point x="355" y="342" type="curve" smooth="yes"/>
      <point x="355" y="265"/>
      <point x="328" y="100"/>
    </contour>
  </outline>
</glyph>
<glyph name="divide" format="2">
  <advance width="560"/>
  <unicode hex="00F7"/>
  <note>
divide
</note>
  <outline>
    <contour>
      <point x="402" y="517" type="line"/>
      <point x="270" y="517" type="line"/>
      <point x="245" y="397" type="line"/>
      <point x="377" y="397" type="line"/>
    </contour>
    <contour>
      <point x="77" y="335" type="line"/>
      <point x="53" y="219" type="line"/>
      <point x="493" y="219" type="line"/>
      <point x="517" y="335" type="line"/>
    </contour>
    <contour>
      <point x="325" y="157" type="line"/>
      <point x="193" y="157" type="line"/>
      <point x="168" y="37" type="line"/>
      <point x="300" y="37" type="line"/>
    </contour>
  </outline>
</glyph>
<glyph name="oslash" format="2">
	<advance width="518"/>
	<unicode hex="00F8"/>
	<note>
		oslash
	</note>
	<outline>
		<contour>
			<point x="299" y="526" type="curve" smooth="yes"/>
			<point x="108" y="526"/>
			<point x="31" y="346"/>
			<point x="31" y="158" type="curve" smooth="yes"/>
			<point x="31" y="98"/>
			<point x="50" y="52"/>
			<point x="89" y="22" type="curve"/>
			<point x="63" y="-30" type="line"/>
			<point x="155" y="-74" type="line"/>
			<point x="186" y="-12" type="line"/>
			<point x="197" y="-13"/>
			<point x="208" y="-14"/>
			<point x="220" y="-14" type="curve" smooth="yes"/>
			<point x="411" y="-14"/>
			<point x="488" y="169"/>
			<point x="488" y="353" type="curve" smooth="yes"/>
			<point x="488" y="411"/>
			<point x="470" y="457"/>
			<point x="434" y="486" type="curve"/>
			<point x="456" y="530" type="line"/>
			<point x="364" y="574" type="line"/>
			<point x="339" y="524" type="line"/>
			<point x="326" y="525"/>
			<point x="313" y="526"/>
		</contour>
		<contour>
			<point x="176" y="259" type="curve" smooth="yes"/>
			<point x="189" y="324"/>
			<point x="217" y="411"/>
			<point x="270" y="411" type="curve" smooth="yes"/>
			<point x="274" y="411"/>
			<point x="279" y="411"/>
			<point x="283" y="411" type="curve"/>
			<point x="166" y="177" type="line"/>
			<point x="167" y="199"/>
			<point x="170" y="229"/>
		</contour>
		<contour>
			<point x="254" y="101" type="curve" smooth="yes"/>
			<point x="249" y="101"/>
			<point x="247" y="101"/>
			<point x="242" y="101" type="curve"/>
			<point x="355" y="327" type="line"/>
			<point x="353" y="297"/>
			<point x="349" y="258"/>
			<point x="338" y="221" type="curve" smooth="yes"/>
			<point x="324" y="168"/>
			<point x="296" y="101"/>
		</contour>
	</outline>
</glyph>
<glyph name="yacute" format="2">
	<advance width="483"/>
	<unicode hex="00FD"/>
	<note>
		yacute
	</note>
	<outline>
		<contour>
			<point x="437" y="753" type="line"/>
			<point x="147" y="651" type="line"/>
			<point x="171" y="564" type="line"/>
			<point x="465" y="638" type="line"/>
		</contour>
		<contour>
			<point x="195" y="114" type="line"/>
			<point x="209" y="510" type="line"/>
			<point x="79" y="510" type="line"/>
			<point x="69" y="0" type="line"/>
			<point x="157" y="0" type="line"/>
			<point x="47" y="-230" type="line"/>
			<point x="185" y="-230" type="line"/>
			<point x="523" y="510" type="line"/>
			<point x="387" y="510" type="line"/>
			<point x="220" y="114" type="line"/>
		</contour>
	</outline>
</glyph>
<glyph name="thorn" format="2">
  <advance width="540"/>
  <unicode hex="00FE"/>
  <note>
thorn
</note>
  <outline>
    <contour>
      <point x="294" y="730" type="line"/>
      <point x="164" y="730" type="line"/>
      <point x="-42" y="-230" type="line"/>
      <point x="89" y="-230" type="line"/>
      <point x="140" y="7" type="line"/>
      <point x="140" y="7"/>
      <point x="209" y="-14"/>
      <point x="269" y="-14" type="curve" smooth="yes"/>
      <point x="400" y="-14"/>
      <point x="511" y="143"/>
      <point x="511" y="349" type="curve" smooth="yes"/>
      <point x="511" y="454"/>
      <point x="461" y="526"/>
      <point x="381" y="526" type="curve" smooth="yes"/>
      <point x="295" y="526"/>
      <point x="231" y="445"/>
      <point x="231" y="445" type="curve"/>
    </contour>
    <contour>
      <point x="333" y="415" type="curve" smooth="yes"/>
      <point x="364" y="415"/>
      <point x="380" y="397"/>
      <point x="380" y="338" type="curve" smooth="yes"/>
      <point x="380" y="191"/>
      <point x="327" y="98"/>
      <point x="266" y="98" type="curve" smooth="yes"/>
      <point x="227" y="98"/>
      <point x="161" y="112"/>
      <point x="161" y="112" type="curve"/>
      <point x="206" y="318" type="line"/>
      <point x="206" y="318"/>
      <point x="273" y="415"/>
    </contour>
  </outline>
</glyph>
<glyph name="ydieresis" format="2">
	<advance width="483"/>
	<unicode hex="00FF"/>
	<note>
		ydieresis
	</note>
	<outline>
		<contour>
			<point x="284" y="720" type="line"/>
			<point x="156" y="720" type="line"/>
			<point x="128" y="587" type="line"/>
			<point x="256" y="587" type="line"/>
		</contour>
		<contour>
			<point x="492" y="720" type="line"/>
			<point x="364" y="720" type="line"/>
			<point x="336" y="587" type="line"/>
			<point x="464" y="587" type="line"/>
		</contour>
		<contour>
			<point x="195" y="114" type="line"/>
			<point x="209" y="510" type="line"/>
			<point x="79" y="510" type="line"/>
			<point x="69" y="0" type="line"/>
			<point x="157" y="0" type="line"/>
			<point x="47" y="-230" type="line"/>
			<point x="185" y="-230" type="line"/>
			<point x="523" y="510" type="line"/>
			<point x="387" y="510" type="line"/>
			<point x="220" y="114" type="line"/>
		</contour>
	</outline>
</glyph>
<glyph name="Amacron" format="2">
	<advance width="623"/>
	<unicode hex="0100"/>
	<note>
		Amacron
	</note>
	<outline>
		<contour>
			<point x="592" y="887" type="line"/>
			<point x="305" y="887" type="line"/>
			<point x="283" y="787" type="line"/>
			<point x="570" y="787" type="line"/>
		</contour>
		<contour>
			<point x="301" y="710" type="line"/>
			<point x="-49" y="0" type="line"/>
			<point x="90" y="0" type="line"/>
			<point x="163" y="158" type="line"/>
			<point x="407" y="158" type="line"/>
			<point x="407" y="0" type="line"/>
			<point x="541" y="0" type="line"/>
			<point x="541" y="710" type="line"/>
		</contour>
		<contour>
			<point x="377" y="596" type="line"/>
			<point x="407" y="596" type="line"/>
			<point x="407" y="278" type="line"/>
			<point x="220" y="278" type="line"/>
		</contour>
	</outline>
</glyph>
<glyph name="Abreve" format="2">
	<advance width="623"/>
	<unicode hex="0102"/>
	<note>
		Abreve
	</note>
	<outline>
		<contour>
			<point x="377" y="929" type="curve"/>
			<point x="280" y="929" type="line"/>
			<point x="264" y="839"/>
			<point x="307" y="763"/>
			<point x="423" y="763" type="curve" smooth="yes"/>
			<point x="539" y="763"/>
			<point x="593" y="831"/>
			<point x="618" y="929" type="curve"/>
			<point x="515" y="929" type="line"/>
			<point x="502" y="880"/>
			<point x="474" y="853"/>
			<point x="429" y="853" type="curve" smooth="yes"/>
			<point x="384" y="853"/>
			<point x="368" y="880"/>
		</contour>
		<contour>
			<point x="301" y="710" type="line"/>
			<point x="-49" y="0" type="line"/>
			<point x="90" y="0" type="line"/>
			<point x="163" y="158" type="line"/>
			<point x="407" y="158" type="line"/>
			<point x="407" y="0" type="line"/>
			<point x="541" y="0" type="line"/>
			<point x="541" y="710" type="line"/>
		</contour>
		<contour>
			<point x="377" y="596" type="line"/>
			<point x="407" y="596" type="line"/>
			<point x="407" y="278" type="line"/>
			<point x="220" y="278" type="line"/>
		</contour>
	</outline>
</glyph>
<glyph name="abreve" format="2">
	<advance width="542"/>
	<unicode hex="0103"/>
	<note>
		abreve
	</note>
	<outline>
		<contour>
			<point x="312" y="730" type="curve"/>
			<point x="211" y="730" type="line"/>
			<point x="201" y="640"/>
			<point x="243" y="564"/>
			<point x="359" y="564" type="curve" smooth="yes"/>
			<point x="475" y="564"/>
			<point x="532" y="632"/>
			<point x="555" y="730" type="curve"/>
			<point x="450" y="730" type="line"/>
			<point x="437" y="681"/>
			<point x="409" y="654"/>
			<point x="364" y="654" type="curve" smooth="yes"/>
			<point x="319" y="654"/>
			<point x="303" y="681"/>
		</contour>
		<contour>
			<point x="161" y="-14" type="curve" smooth="yes"/>
			<point x="253" y="-14"/>
			<point x="318" y="78"/>
			<point x="318" y="78" type="curve"/>
			<point x="314" y="59"/>
			<point x="309" y="0"/>
			<point x="309" y="0" type="curve"/>
			<point x="439" y="0" type="line"/>
			<point x="439" y="0"/>
			<point x="444" y="94"/>
			<point x="460" y="165" type="curve" smooth="yes"/>
			<point x="531" y="489" type="line"/>
			<point x="531" y="489"/>
			<point x="366" y="526"/>
			<point x="287" y="526" type="curve" smooth="yes"/>
			<point x="115" y="526"/>
			<point x="29" y="318"/>
			<point x="29" y="168" type="curve" smooth="yes"/>
			<point x="29" y="62"/>
			<point x="74" y="-14"/>
		</contour>
		<contour>
			<point x="286" y="414" type="curve" smooth="yes"/>
			<point x="315" y="414"/>
			<point x="379" y="400"/>
			<point x="379" y="400" type="curve"/>
			<point x="334" y="192" type="line"/>
			<point x="334" y="192"/>
			<point x="268" y="97"/>
			<point x="208" y="97" type="curve" smooth="yes"/>
			<point x="176" y="97"/>
			<point x="161" y="117"/>
			<point x="161" y="177" type="curve" smooth="yes"/>
			<point x="161" y="284"/>
			<point x="198" y="414"/>
		</contour>
	</outline>
</glyph>
<glyph name="Aogonek" format="2">
	<advance width="623"/>
	<unicode hex="0104"/>
	<note>
		Aogonek
	</note>
	<outline>
		<contour>
			<point x="301" y="710" type="line"/>
			<point x="-49" y="0" type="line"/>
			<point x="90" y="0" type="line"/>
			<point x="163" y="158" type="line"/>
			<point x="407" y="158" type="line"/>
			<point x="407" y="0" type="line"/>
			<point x="428" y="0" type="line"/>
			<point x="364" y="-53"/>
			<point x="331" y="-99"/>
			<point x="331" y="-139" type="curve" smooth="yes"/>
			<point x="331" y="-188"/>
			<point x="368" y="-216"/>
			<point x="422" y="-216" type="curve" smooth="yes"/>
			<point x="465" y="-216"/>
			<point x="526" y="-205"/>
			<point x="526" y="-205" type="curve"/>
			<point x="534" y="-110" type="line"/>
			<point x="534" y="-110"/>
			<point x="500" y="-114"/>
			<point x="493" y="-114" type="curve" smooth="yes"/>
			<point x="475" y="-114"/>
			<point x="465" y="-106"/>
			<point x="465" y="-92" type="curve" smooth="yes"/>
			<point x="465" y="-63"/>
			<point x="541" y="0"/>
			<point x="541" y="0" type="curve"/>
			<point x="541" y="710" type="line"/>
		</contour>
		<contour>
			<point x="377" y="596" type="line"/>
			<point x="407" y="596" type="line"/>
			<point x="407" y="278" type="line"/>
			<point x="220" y="278" type="line"/>
		</contour>
	</outline>
</glyph>
<glyph name="aogonek" format="2">
	<advance width="542"/>
	<unicode hex="0105"/>
	<note>
		aogonek
	</note>
	<outline>
		<contour>
			<point x="161" y="-14" type="curve" smooth="yes"/>
			<point x="253" y="-14"/>
			<point x="318" y="78"/>
			<point x="318" y="78" type="curve"/>
			<point x="315" y="62"/>
			<point x="311" y="19"/>
			<point x="309" y="5" type="curve"/>
			<point x="241" y="-50"/>
			<point x="206" y="-98"/>
			<point x="206" y="-139" type="curve" smooth="yes"/>
			<point x="206" y="-188"/>
			<point x="243" y="-216"/>
			<point x="297" y="-216" type="curve" smooth="yes"/>
			<point x="340" y="-216"/>
			<point x="401" y="-205"/>
			<point x="401" y="-205" type="curve"/>
			<point x="409" y="-110" type="line"/>
			<point x="409" y="-110"/>
			<point x="375" y="-114"/>
			<point x="368" y="-114" type="curve" smooth="yes"/>
			<point x="350" y="-114"/>
			<point x="340" y="-106"/>
			<point x="340" y="-92" type="curve" smooth="yes"/>
			<point x="340" y="-63"/>
			<point x="416" y="0"/>
			<point x="416" y="0" type="curve"/>
			<point x="439" y="0" type="line"/>
			<point x="439" y="0"/>
			<point x="444" y="94"/>
			<point x="460" y="165" type="curve" smooth="yes"/>
			<point x="531" y="489" type="line"/>
			<point x="531" y="489"/>
			<point x="366" y="526"/>
			<point x="287" y="526" type="curve" smooth="yes"/>
			<point x="115" y="526"/>
			<point x="29" y="318"/>
			<point x="29" y="168" type="curve" smooth="yes"/>
			<point x="29" y="62"/>
			<point x="74" y="-14"/>
		</contour>
		<contour>
			<point x="286" y="414" type="curve" smooth="yes"/>
			<point x="315" y="414"/>
			<point x="379" y="400"/>
			<point x="379" y="400" type="curve"/>
			<point x="334" y="192" type="line"/>
			<point x="334" y="192"/>
			<point x="268" y="97"/>
			<point x="208" y="97" type="curve" smooth="yes"/>
			<point x="176" y="97"/>
			<point x="161" y="117"/>
			<point x="161" y="177" type="curve" smooth="yes"/>
			<point x="161" y="284"/>
			<point x="198" y="414"/>
		</contour>
	</outline>
</glyph>
<glyph name="cacute" format="2">
  <advance width="435"/>
  <unicode hex="0107"/>
  <note>
cacute
</note>
  <outline>
    <contour>
      <point x="447" y="753" type="line"/>
      <point x="157" y="651" type="line"/>
      <point x="181" y="564" type="line"/>
      <point x="475" y="638" type="line"/>
    </contour>
    <contour>
      <point x="303" y="526" type="curve" smooth="yes"/>
      <point x="94" y="526"/>
      <point x="32" y="328"/>
      <point x="32" y="170" type="curve" smooth="yes"/>
      <point x="32" y="54"/>
      <point x="94" y="-14"/>
      <point x="207" y="-14" type="curve" smooth="yes"/>
      <point x="277" y="-14"/>
      <point x="352" y="6"/>
      <point x="352" y="6" type="curve"/>
      <point x="369" y="111" type="line"/>
      <point x="369" y="111"/>
      <point x="293" y="100"/>
      <point x="238" y="100" type="curve" smooth="yes"/>
      <point x="178" y="100"/>
      <point x="164" y="119"/>
      <point x="164" y="184" type="curve" smooth="yes"/>
      <point x="164" y="304"/>
      <point x="203" y="411"/>
      <point x="311" y="411" type="curve" smooth="yes"/>
      <point x="361" y="411"/>
      <point x="418" y="399"/>
      <point x="418" y="399" type="curve"/>
      <point x="444" y="504" type="line"/>
      <point x="444" y="504"/>
      <point x="376" y="526"/>
    </contour>
  </outline>
</glyph>
<glyph name="Cdotaccent" format="2">
  <advance width="539"/>
  <unicode hex="010A"/>
  <note>
Cdotaccent
</note>
  <outline>
    <contour>
      <point x="533" y="920" type="line"/>
      <point x="399" y="920" type="line"/>
      <point x="369" y="777" type="line"/>
      <point x="503" y="777" type="line"/>
    </contour>
    <contour>
      <point x="454" y="0" type="curve"/>
      <point x="475" y="118" type="line"/>
      <point x="435" y="112"/>
      <point x="360" y="108"/>
      <point x="312" y="108" type="curve" smooth="yes"/>
      <point x="230" y="108"/>
      <point x="189" y="122"/>
      <point x="189" y="200" type="curve" smooth="yes"/>
      <point x="189" y="309"/>
      <point x="242" y="604"/>
      <point x="413" y="604" type="curve" smooth="yes"/>
      <point x="445" y="604"/>
      <point x="525" y="596"/>
      <point x="569" y="589" type="curve"/>
      <point x="596" y="699" type="line"/>
      <point x="557" y="709"/>
      <point x="485" y="726"/>
      <point x="417" y="726" type="curve" smooth="yes"/>
      <point x="129" y="726"/>
      <point x="47" y="364"/>
      <point x="47" y="198" type="curve" smooth="yes"/>
      <point x="47" y="30"/>
      <point x="120" y="-14"/>
      <point x="289" y="-14" type="curve" smooth="yes"/>
      <point x="339" y="-14"/>
      <point x="407" y="-7"/>
    </contour>
  </outline>
</glyph>
<glyph name="Ccaron" format="2">
  <advance width="539"/>
  <unicode hex="010C"/>
  <note>
Ccaron
</note>
  <outline>
    <contour>
      <point x="534" y="946" type="line"/>
      <point x="444" y="848" type="line"/>
      <point x="396" y="946" type="line"/>
      <point x="286" y="946" type="line"/>
      <point x="379" y="769" type="line"/>
      <point x="495" y="769" type="line"/>
      <point x="664" y="946" type="line"/>
    </contour>
    <contour>
      <point x="454" y="0" type="curve"/>
      <point x="475" y="118" type="line"/>
      <point x="435" y="112"/>
      <point x="360" y="108"/>
      <point x="312" y="108" type="curve" smooth="yes"/>
      <point x="230" y="108"/>
      <point x="189" y="122"/>
      <point x="189" y="200" type="curve" smooth="yes"/>
      <point x="189" y="309"/>
      <point x="242" y="604"/>
      <point x="413" y="604" type="curve" smooth="yes"/>
      <point x="445" y="604"/>
      <point x="525" y="596"/>
      <point x="569" y="589" type="curve"/>
      <point x="596" y="699" type="line"/>
      <point x="557" y="709"/>
      <point x="485" y="726"/>
      <point x="417" y="726" type="curve" smooth="yes"/>
      <point x="129" y="726"/>
      <point x="47" y="364"/>
      <point x="47" y="198" type="curve" smooth="yes"/>
      <point x="47" y="30"/>
      <point x="120" y="-14"/>
      <point x="289" y="-14" type="curve" smooth="yes"/>
      <point x="339" y="-14"/>
      <point x="407" y="-7"/>
    </contour>
  </outline>
</glyph>
<glyph name="Dcaron" format="2">
	<advance width="641"/>
	<unicode hex="010E"/>
	<note>
		Dcaron
	</note>
	<outline>
		<contour>
			<point x="498" y="946" type="line"/>
			<point x="408" y="848" type="line"/>
			<point x="360" y="946" type="line"/>
			<point x="250" y="946" type="line"/>
			<point x="343" y="769" type="line"/>
			<point x="459" y="769" type="line"/>
			<point x="628" y="946" type="line"/>
		</contour>
		<contour>
			<point x="170" y="710" type="line"/>
			<point x="18" y="0" type="line"/>
			<point x="279" y="0" type="line" smooth="yes"/>
			<point x="552" y="0"/>
			<point x="630" y="300"/>
			<point x="630" y="485" type="curve" smooth="yes"/>
			<point x="630" y="627"/>
			<point x="564" y="710"/>
			<point x="403" y="710" type="curve" smooth="yes"/>
		</contour>
		<contour>
			<point x="269" y="120" type="curve" smooth="yes"/>
			<point x="181" y="120" type="line"/>
			<point x="281" y="590" type="line"/>
			<point x="370" y="590" type="line" smooth="yes"/>
			<point x="451" y="590"/>
			<point x="488" y="560"/>
			<point x="488" y="472" type="curve" smooth="yes"/>
			<point x="488" y="362"/>
			<point x="437" y="120"/>
		</contour>
	</outline>
</glyph>
<glyph name="dcaron" format="2">
	<advance width="559"/>
	<unicode hex="010F"/>
	<note>
		dcaron
	</note>
	<outline>
		<contour>
			<point x="305" y="0" type="line"/>
			<point x="423" y="0" type="line"/>
			<point x="579" y="730" type="line"/>
			<point x="448" y="730" type="line"/>
			<point x="400" y="506" type="line"/>
			<point x="400" y="506"/>
			<point x="313" y="526"/>
			<point x="271" y="526" type="curve" smooth="yes"/>
			<point x="115" y="526"/>
			<point x="32" y="339"/>
			<point x="30" y="165" type="curve" smooth="yes"/>
			<point x="29" y="54"/>
			<point x="79" y="-14"/>
			<point x="165" y="-14" type="curve" smooth="yes"/>
			<point x="250" y="-14"/>
			<point x="319" y="77"/>
			<point x="319" y="77" type="curve"/>
		</contour>
		<contour>
			<point x="575" y="574" type="curve"/>
			<point x="639" y="546" type="line"/>
			<point x="639" y="546"/>
			<point x="707" y="603"/>
			<point x="716" y="648" type="curve" smooth="yes"/>
			<point x="723" y="679"/>
			<point x="731" y="730"/>
			<point x="731" y="730" type="curve"/>
			<point x="630" y="730" type="line"/>
			<point x="630" y="730"/>
			<point x="621" y="675"/>
			<point x="617" y="659" type="curve" smooth="yes"/>
			<point x="613" y="637"/>
			<point x="575" y="574"/>
		</contour>
		<contour>
			<point x="379" y="400" type="curve"/>
			<point x="334" y="192" type="line"/>
			<point x="334" y="192"/>
			<point x="267" y="97"/>
			<point x="206" y="97" type="curve" smooth="yes"/>
			<point x="169" y="97"/>
			<point x="159" y="129"/>
			<point x="160" y="172" type="curve" smooth="yes"/>
			<point x="162" y="300"/>
			<point x="196" y="414"/>
			<point x="274" y="414" type="curve" smooth="yes"/>
			<point x="312" y="414"/>
			<point x="379" y="400"/>
		</contour>
	</outline>
</glyph>
<glyph name="Emacron" format="2">
  <advance width="548"/>
  <unicode hex="0112"/>
  <note>
Emacron
</note>
  <outline>
    <contour>
      <point x="567" y="887" type="line"/>
      <point x="280" y="887" type="line"/>
      <point x="258" y="787" type="line"/>
      <point x="545" y="787" type="line"/>
    </contour>
    <contour>
      <point x="601" y="710" type="line"/>
      <point x="169" y="710" type="line"/>
      <point x="18" y="0" type="line"/>
      <point x="451" y="0" type="line"/>
      <point x="476" y="120" type="line"/>
      <point x="180" y="120" type="line"/>
      <point x="218" y="297" type="line"/>
      <point x="456" y="297" type="line"/>
      <point x="481" y="415" type="line"/>
      <point x="243" y="415" type="line"/>
      <point x="280" y="590" type="line"/>
      <point x="576" y="590" type="line"/>
    </contour>
  </outline>
</glyph>
<glyph name="Ebreve" format="2">
	<advance width="548"/>
	<unicode hex="0114"/>
	<note>
		Ebreve
	</note>
	<outline>
		<contour>
			<point x="352" y="929" type="curve"/>
			<point x="255" y="929" type="line"/>
			<point x="239" y="839"/>
			<point x="282" y="763"/>
			<point x="398" y="763" type="curve" smooth="yes"/>
			<point x="514" y="763"/>
			<point x="568" y="831"/>
			<point x="593" y="929" type="curve"/>
			<point x="490" y="929" type="line"/>
			<point x="477" y="880"/>
			<point x="449" y="853"/>
			<point x="404" y="853" type="curve" smooth="yes"/>
			<point x="359" y="853"/>
			<point x="343" y="880"/>
		</contour>
		<contour>
			<point x="601" y="710" type="line"/>
			<point x="169" y="710" type="line"/>
			<point x="18" y="0" type="line"/>
			<point x="451" y="0" type="line"/>
			<point x="476" y="120" type="line"/>
			<point x="180" y="120" type="line"/>
			<point x="218" y="297" type="line"/>
			<point x="456" y="297" type="line"/>
			<point x="481" y="415" type="line"/>
			<point x="243" y="415" type="line"/>
			<point x="280" y="590" type="line"/>
			<point x="576" y="590" type="line"/>
		</contour>
	</outline>
</glyph>
<glyph name="ebreve" format="2">
  <advance width="491"/>
  <unicode hex="0115"/>
  <note>
ebreve
</note>
  <outline>
    <contour>
      <point x="273" y="730" type="curve"/>
      <point x="172" y="730" type="line"/>
      <point x="162" y="640"/>
      <point x="204" y="564"/>
      <point x="320" y="564" type="curve" smooth="yes"/>
      <point x="436" y="564"/>
      <point x="493" y="632"/>
      <point x="516" y="730" type="curve"/>
      <point x="411" y="730" type="line"/>
      <point x="398" y="681"/>
      <point x="370" y="654"/>
      <point x="325" y="654" type="curve" smooth="yes"/>
      <point x="280" y="654"/>
      <point x="264" y="681"/>
    </contour>
    <contour>
      <point x="250" y="96" type="curve" smooth="yes"/>
      <point x="182" y="96"/>
      <point x="163" y="133"/>
      <point x="163" y="177" type="curve" smooth="yes"/>
      <point x="163" y="189"/>
      <point x="165" y="208"/>
      <point x="167" y="216" type="curve"/>
      <point x="212" y="216" type="line" smooth="yes"/>
      <point x="393" y="216"/>
      <point x="482" y="247"/>
      <point x="482" y="378" type="curve" smooth="yes"/>
      <point x="482" y="485"/>
      <point x="415" y="526"/>
      <point x="307" y="526" type="curve" smooth="yes"/>
      <point x="119" y="526"/>
      <point x="33" y="353"/>
      <point x="33" y="198" type="curve" smooth="yes"/>
      <point x="33" y="61"/>
      <point x="94" y="-14"/>
      <point x="223" y="-14" type="curve" smooth="yes"/>
      <point x="305" y="-14"/>
      <point x="391" y="12"/>
      <point x="391" y="12" type="curve"/>
      <point x="406" y="111" type="line"/>
      <point x="406" y="111"/>
      <point x="307" y="96"/>
    </contour>
    <contour>
      <point x="223" y="308" type="curve" smooth="yes"/>
      <point x="182" y="308" type="line"/>
      <point x="199" y="385"/>
      <point x="241" y="424"/>
      <point x="300" y="424" type="curve" smooth="yes"/>
      <point x="332" y="424"/>
      <point x="352" y="413"/>
      <point x="352" y="376" type="curve" smooth="yes"/>
      <point x="352" y="329"/>
      <point x="317" y="308"/>
    </contour>
  </outline>
</glyph>
<glyph name="Edotaccent" format="2">
  <advance width="548"/>
  <unicode hex="0116"/>
  <note>
Edotaccent
</note>
  <outline>
    <contour>
      <point x="497" y="920" type="line"/>
      <point x="363" y="920" type="line"/>
      <point x="333" y="777" type="line"/>
      <point x="467" y="777" type="line"/>
    </contour>
    <contour>
      <point x="601" y="710" type="line"/>
      <point x="169" y="710" type="line"/>
      <point x="18" y="0" type="line"/>
      <point x="451" y="0" type="line"/>
      <point x="476" y="120" type="line"/>
      <point x="180" y="120" type="line"/>
      <point x="218" y="297" type="line"/>
      <point x="456" y="297" type="line"/>
      <point x="481" y="415" type="line"/>
      <point x="243" y="415" type="line"/>
      <point x="280" y="590" type="line"/>
      <point x="576" y="590" type="line"/>
    </contour>
  </outline>
</glyph>
<glyph name="Eogonek" format="2">
  <advance width="548"/>
  <unicode hex="0118"/>
  <note>
Eogonek
</note>
  <outline>
    <contour>
      <point x="411" y="0" type="curve"/>
      <point x="451" y="0" type="line"/>
      <point x="476" y="120" type="line"/>
      <point x="180" y="120" type="line"/>
      <point x="218" y="297" type="line"/>
      <point x="456" y="297" type="line"/>
      <point x="481" y="415" type="line"/>
      <point x="243" y="415" type="line"/>
      <point x="280" y="590" type="line"/>
      <point x="576" y="590" type="line"/>
      <point x="601" y="710" type="line"/>
      <point x="169" y="710" type="line"/>
      <point x="18" y="0" type="line"/>
      <point x="298" y="0" type="line"/>
      <point x="234" y="-53"/>
      <point x="201" y="-99"/>
      <point x="201" y="-139" type="curve" smooth="yes"/>
      <point x="201" y="-188"/>
      <point x="238" y="-216"/>
      <point x="292" y="-216" type="curve" smooth="yes"/>
      <point x="335" y="-216"/>
      <point x="396" y="-205"/>
      <point x="396" y="-205" type="curve"/>
      <point x="404" y="-110" type="line"/>
      <point x="404" y="-110"/>
      <point x="370" y="-114"/>
      <point x="363" y="-114" type="curve" smooth="yes"/>
      <point x="345" y="-114"/>
      <point x="335" y="-106"/>
      <point x="335" y="-92" type="curve" smooth="yes"/>
      <point x="335" y="-63"/>
      <point x="411" y="0"/>
    </contour>
  </outline>
</glyph>
<glyph name="eogonek" format="2">
  <advance width="491"/>
  <unicode hex="0119"/>
  <note>
eogonek
</note>
  <outline>
    <contour>
      <point x="250" y="96" type="curve" smooth="yes"/>
      <point x="182" y="96"/>
      <point x="163" y="133"/>
      <point x="163" y="177" type="curve" smooth="yes"/>
      <point x="163" y="189"/>
      <point x="165" y="208"/>
      <point x="167" y="216" type="curve"/>
      <point x="212" y="216" type="line" smooth="yes"/>
      <point x="393" y="216"/>
      <point x="482" y="247"/>
      <point x="482" y="378" type="curve" smooth="yes"/>
      <point x="482" y="485"/>
      <point x="415" y="526"/>
      <point x="307" y="526" type="curve" smooth="yes"/>
      <point x="119" y="526"/>
      <point x="33" y="353"/>
      <point x="33" y="198" type="curve" smooth="yes"/>
      <point x="33" y="73"/>
      <point x="83" y="-2"/>
      <point x="179" y="-12" type="curve" smooth="yes"/>
      <point x="187" y="-13"/>
      <point x="190" y="-13"/>
      <point x="197" y="-13" type="curve"/>
      <point x="143" y="-61"/>
      <point x="115" y="-102"/>
      <point x="115" y="-139" type="curve" smooth="yes"/>
      <point x="115" y="-188"/>
      <point x="152" y="-216"/>
      <point x="206" y="-216" type="curve" smooth="yes"/>
      <point x="249" y="-216"/>
      <point x="310" y="-205"/>
      <point x="310" y="-205" type="curve"/>
      <point x="318" y="-110" type="line"/>
      <point x="318" y="-110"/>
      <point x="284" y="-114"/>
      <point x="277" y="-114" type="curve" smooth="yes"/>
      <point x="259" y="-114"/>
      <point x="249" y="-106"/>
      <point x="249" y="-92" type="curve" smooth="yes"/>
      <point x="249" y="-68"/>
      <point x="289" y="-21"/>
      <point x="338" y="-5" type="curve" smooth="yes"/>
      <point x="359" y="2"/>
      <point x="391" y="12"/>
      <point x="391" y="12" type="curve"/>
      <point x="406" y="111" type="line"/>
      <point x="406" y="111"/>
      <point x="307" y="96"/>
    </contour>
    <contour>
      <point x="223" y="308" type="curve" smooth="yes"/>
      <point x="182" y="308" type="line"/>
      <point x="199" y="385"/>
      <point x="241" y="424"/>
      <point x="300" y="424" type="curve" smooth="yes"/>
      <point x="332" y="424"/>
      <point x="352" y="413"/>
      <point x="352" y="376" type="curve" smooth="yes"/>
      <point x="352" y="329"/>
      <point x="317" y="308"/>
    </contour>
  </outline>
</glyph>
<glyph name="Ecaron" format="2">
  <advance width="548"/>
  <unicode hex="011A"/>
  <note>
Ecaron
</note>
  <outline>
    <contour>
      <point x="498" y="946" type="line"/>
      <point x="408" y="848" type="line"/>
      <point x="360" y="946" type="line"/>
      <point x="250" y="946" type="line"/>
      <point x="343" y="769" type="line"/>
      <point x="459" y="769" type="line"/>
      <point x="628" y="946" type="line"/>
    </contour>
    <contour>
      <point x="601" y="710" type="line"/>
      <point x="169" y="710" type="line"/>
      <point x="18" y="0" type="line"/>
      <point x="451" y="0" type="line"/>
      <point x="476" y="120" type="line"/>
      <point x="180" y="120" type="line"/>
      <point x="218" y="297" type="line"/>
      <point x="456" y="297" type="line"/>
      <point x="481" y="415" type="line"/>
      <point x="243" y="415" type="line"/>
      <point x="280" y="590" type="line"/>
      <point x="576" y="590" type="line"/>
    </contour>
  </outline>
</glyph>
<glyph name="Gbreve" format="2">
	<advance width="604"/>
	<unicode hex="011E"/>
	<note>
		Gbreve
	</note>
	<outline>
		<contour>
			<point x="394" y="929" type="curve"/>
			<point x="297" y="929" type="line"/>
			<point x="281" y="839"/>
			<point x="324" y="763"/>
			<point x="440" y="763" type="curve" smooth="yes"/>
			<point x="556" y="763"/>
			<point x="610" y="831"/>
			<point x="635" y="929" type="curve"/>
			<point x="532" y="929" type="line"/>
			<point x="519" y="880"/>
			<point x="491" y="853"/>
			<point x="446" y="853" type="curve" smooth="yes"/>
			<point x="401" y="853"/>
			<point x="385" y="880"/>
		</contour>
		<contour>
			<point x="575" y="364" type="line"/>
			<point x="355" y="364" type="line"/>
			<point x="330" y="244" type="line"/>
			<point x="422" y="244" type="line"/>
			<point x="394" y="110" type="line"/>
			<point x="394" y="110"/>
			<point x="344" y="104"/>
			<point x="305" y="104" type="curve" smooth="yes"/>
			<point x="220" y="104"/>
			<point x="188" y="129"/>
			<point x="188" y="208" type="curve" smooth="yes"/>
			<point x="188" y="347"/>
			<point x="253" y="604"/>
			<point x="421" y="604" type="curve" smooth="yes"/>
			<point x="497" y="604"/>
			<point x="602" y="585"/>
			<point x="602" y="585" type="curve"/>
			<point x="629" y="692" type="line"/>
			<point x="629" y="692"/>
			<point x="522" y="726"/>
			<point x="421" y="726" type="curve" smooth="yes"/>
			<point x="141" y="726"/>
			<point x="48" y="392"/>
			<point x="48" y="195" type="curve" smooth="yes"/>
			<point x="48" y="63"/>
			<point x="105" y="-14"/>
			<point x="266" y="-14" type="curve" smooth="yes"/>
			<point x="356" y="-14"/>
			<point x="500" y="9"/>
			<point x="500" y="9" type="curve"/>
		</contour>
	</outline>
</glyph>
<glyph name="Hcircumflex" format="2">
  <advance width="669"/>
  <unicode hex="0124"/>
  <note>
Hcircumflex
</note>
  <outline>
    <contour>
      <point x="382" y="769" type="line"/>
      <point x="472" y="867" type="line"/>
      <point x="520" y="769" type="line"/>
      <point x="630" y="769" type="line"/>
      <point x="537" y="946" type="line"/>
      <point x="421" y="946" type="line"/>
      <point x="252" y="769" type="line"/>
    </contour>
    <contour>
      <point x="220" y="304" type="line"/>
      <point x="470" y="304" type="line"/>
      <point x="405" y="0" type="line"/>
      <point x="542" y="0" type="line"/>
      <point x="694" y="710" type="line"/>
      <point x="557" y="710" type="line"/>
      <point x="496" y="424" type="line"/>
      <point x="246" y="424" type="line"/>
      <point x="307" y="710" type="line"/>
      <point x="170" y="710" type="line"/>
      <point x="18" y="0" type="line"/>
      <point x="155" y="0" type="line"/>
    </contour>
  </outline>
</glyph>
<glyph name="hcircumflex" format="2">
  <advance width="521"/>
  <unicode hex="0125"/>
  <note>
hcircumflex
</note>
  <outline>
    <contour>
      <point x="177" y="789" type="line"/>
      <point x="267" y="887" type="line"/>
      <point x="315" y="789" type="line"/>
      <point x="425" y="789" type="line"/>
      <point x="332" y="966" type="line"/>
      <point x="216" y="966" type="line"/>
      <point x="47" y="789" type="line"/>
    </contour>
    <contour>
      <point x="164" y="730" type="line"/>
      <point x="8" y="0" type="line"/>
      <point x="139" y="0" type="line"/>
      <point x="212" y="343" type="line"/>
      <point x="212" y="343"/>
      <point x="248" y="410"/>
      <point x="305" y="410" type="curve" smooth="yes"/>
      <point x="338" y="410"/>
      <point x="346" y="395"/>
      <point x="346" y="363" type="curve" smooth="yes"/>
      <point x="346" y="323"/>
      <point x="333" y="285"/>
      <point x="327" y="250" type="curve" smooth="yes"/>
      <point x="283" y="0" type="line"/>
      <point x="416" y="0" type="line"/>
      <point x="463" y="261" type="line" smooth="yes"/>
      <point x="468" y="291"/>
      <point x="484" y="356"/>
      <point x="484" y="399" type="curve" smooth="yes"/>
      <point x="484" y="467"/>
      <point x="457" y="526"/>
      <point x="370" y="526" type="curve" smooth="yes"/>
      <point x="295" y="526"/>
      <point x="234" y="461"/>
      <point x="234" y="461" type="curve"/>
      <point x="292" y="730" type="line"/>
    </contour>
  </outline>
</glyph>
<glyph name="Hbar" format="2">
  <advance width="720"/>
  <unicode hex="0126"/>
  <note>
Hbar
</note>
  <outline>
    <contour>
      <point x="176" y="622" type="line"/>
      <point x="111" y="622" type="line"/>
      <point x="87" y="512" type="line"/>
      <point x="153" y="512" type="line"/>
      <point x="43" y="0" type="line"/>
      <point x="180" y="0" type="line"/>
      <point x="245" y="304" type="line"/>
      <point x="495" y="304" type="line"/>
      <point x="430" y="0" type="line"/>
      <point x="567" y="0" type="line"/>
      <point x="677" y="512" type="line"/>
      <point x="744" y="512" type="line"/>
      <point x="768" y="622" type="line"/>
      <point x="700" y="622" type="line"/>
      <point x="719" y="710" type="line"/>
      <point x="582" y="710" type="line"/>
      <point x="563" y="622" type="line"/>
      <point x="313" y="622" type="line"/>
      <point x="332" y="710" type="line"/>
      <point x="195" y="710" type="line"/>
    </contour>
    <contour>
      <point x="521" y="424" type="line"/>
      <point x="271" y="424" type="line"/>
      <point x="290" y="512" type="line"/>
      <point x="540" y="512" type="line"/>
    </contour>
  </outline>
</glyph>
<glyph name="Itilde" format="2">
	<advance width="282"/>
	<unicode hex="0128"/>
	<note>
		Itilde
	</note>
	<outline>
		<contour>
			<point x="456" y="848" type="curve"/>
			<point x="426" y="918" type="line"/>
			<point x="426" y="918"/>
			<point x="365" y="884"/>
			<point x="339" y="884" type="curve" smooth="yes"/>
			<point x="311" y="884"/>
			<point x="251" y="920"/>
			<point x="210" y="920" type="curve" smooth="yes"/>
			<point x="158" y="920"/>
			<point x="77" y="855"/>
			<point x="77" y="855" type="curve"/>
			<point x="106" y="785" type="line"/>
			<point x="106" y="785"/>
			<point x="162" y="816"/>
			<point x="190" y="816" type="curve" smooth="yes"/>
			<point x="223" y="816"/>
			<point x="279" y="780"/>
			<point x="321" y="780" type="curve" smooth="yes"/>
			<point x="373" y="780"/>
			<point x="456" y="848"/>
		</contour>
		<contour>
			<point x="307" y="710" type="line"/>
			<point x="170" y="710" type="line"/>
			<point x="18" y="0" type="line"/>
			<point x="155" y="0" type="line"/>
		</contour>
	</outline>
</glyph>
<glyph name="itilde" format="2">
  <advance width="257"/>
  <unicode hex="0129"/>
  <note>
itilde
</note>
  <outline>
    <contour>
      <point x="398" y="643" type="curve"/>
      <point x="368" y="713" type="line"/>
      <point x="368" y="713"/>
      <point x="307" y="679"/>
      <point x="281" y="679" type="curve" smooth="yes"/>
      <point x="253" y="679"/>
      <point x="193" y="715"/>
      <point x="152" y="715" type="curve" smooth="yes"/>
      <point x="100" y="715"/>
      <point x="19" y="650"/>
      <point x="19" y="650" type="curve"/>
      <point x="48" y="580" type="line"/>
      <point x="48" y="580"/>
      <point x="104" y="611"/>
      <point x="132" y="611" type="curve" smooth="yes"/>
      <point x="165" y="611"/>
      <point x="221" y="575"/>
      <point x="263" y="575" type="curve" smooth="yes"/>
      <point x="315" y="575"/>
      <point x="398" y="643"/>
    </contour>
    <contour>
      <point x="247" y="500" type="line"/>
      <point x="114" y="500" type="line"/>
      <point x="8" y="0" type="line"/>
      <point x="141" y="0" type="line"/>
    </contour>
  </outline>
</glyph>
<glyph name="Imacron" format="2">
	<advance width="282"/>
	<unicode hex="012A"/>
	<note>
		Imacron
	</note>
	<outline>
		<contour>
			<point x="417" y="887" type="line"/>
			<point x="130" y="887" type="line"/>
			<point x="108" y="787" type="line"/>
			<point x="395" y="787" type="line"/>
		</contour>
		<contour>
			<point x="307" y="710" type="line"/>
			<point x="170" y="710" type="line"/>
			<point x="18" y="0" type="line"/>
			<point x="155" y="0" type="line"/>
		</contour>
	</outline>
</glyph>
<glyph name="imacron" format="2">
  <advance width="257"/>
  <unicode hex="012B"/>
  <note>
imacron
</note>
  <outline>
    <contour>
      <point x="361" y="687" type="line"/>
      <point x="74" y="687" type="line"/>
      <point x="52" y="587" type="line"/>
      <point x="339" y="587" type="line"/>
    </contour>
    <contour>
      <point x="247" y="500" type="line"/>
      <point x="114" y="500" type="line"/>
      <point x="8" y="0" type="line"/>
      <point x="141" y="0" type="line"/>
    </contour>
  </outline>
</glyph>
<glyph name="Ibreve" format="2">
	<advance width="282"/>
	<unicode hex="012C"/>
	<note>
		Ibreve
	</note>
	<outline>
		<contour>
			<point x="202" y="929" type="curve"/>
			<point x="105" y="929" type="line"/>
			<point x="89" y="839"/>
			<point x="132" y="763"/>
			<point x="248" y="763" type="curve" smooth="yes"/>
			<point x="364" y="763"/>
			<point x="418" y="831"/>
			<point x="443" y="929" type="curve"/>
			<point x="340" y="929" type="line"/>
			<point x="327" y="880"/>
			<point x="299" y="853"/>
			<point x="254" y="853" type="curve" smooth="yes"/>
			<point x="209" y="853"/>
			<point x="193" y="880"/>
		</contour>
		<contour>
			<point x="307" y="710" type="line"/>
			<point x="170" y="710" type="line"/>
			<point x="18" y="0" type="line"/>
			<point x="155" y="0" type="line"/>
		</contour>
	</outline>
</glyph>
<glyph name="ibreve" format="2">
  <advance width="257"/>
  <unicode hex="012D"/>
  <note>
ibreve
</note>
  <outline>
    <contour>
      <point x="152" y="730" type="curve"/>
      <point x="51" y="730" type="line"/>
      <point x="41" y="640"/>
      <point x="83" y="564"/>
      <point x="199" y="564" type="curve" smooth="yes"/>
      <point x="315" y="564"/>
      <point x="372" y="632"/>
      <point x="395" y="730" type="curve"/>
      <point x="290" y="730" type="line"/>
      <point x="277" y="681"/>
      <point x="249" y="654"/>
      <point x="204" y="654" type="curve" smooth="yes"/>
      <point x="159" y="654"/>
      <point x="143" y="681"/>
    </contour>
    <contour>
      <point x="247" y="500" type="line"/>
      <point x="114" y="500" type="line"/>
      <point x="8" y="0" type="line"/>
      <point x="141" y="0" type="line"/>
    </contour>
  </outline>
</glyph>
<glyph name="Iogonek" format="2">
	<advance width="282"/>
	<unicode hex="012E"/>
	<note>
		Iogonek
	</note>
	<outline>
		<contour>
			<point x="155" y="0" type="curve"/>
			<point x="307" y="710" type="line"/>
			<point x="170" y="710" type="line"/>
			<point x="18" y="0" type="line"/>
			<point x="42" y="0" type="line"/>
			<point x="-22" y="-53"/>
			<point x="-55" y="-99"/>
			<point x="-55" y="-139" type="curve" smooth="yes"/>
			<point x="-55" y="-188"/>
			<point x="-18" y="-216"/>
			<point x="36" y="-216" type="curve" smooth="yes"/>
			<point x="79" y="-216"/>
			<point x="140" y="-205"/>
			<point x="140" y="-205" type="curve"/>
			<point x="148" y="-110" type="line"/>
			<point x="148" y="-110"/>
			<point x="114" y="-114"/>
			<point x="107" y="-114" type="curve" smooth="yes"/>
			<point x="89" y="-114"/>
			<point x="79" y="-106"/>
			<point x="79" y="-92" type="curve" smooth="yes"/>
			<point x="79" y="-63"/>
			<point x="155" y="0"/>
		</contour>
	</outline>
</glyph>
<glyph name="iogonek" format="2">
  <advance width="257"/>
  <unicode hex="012F"/>
  <note>
iogonek
</note>
  <outline>
    <contour>
      <point x="286" y="700" type="line"/>
      <point x="152" y="700" type="line"/>
      <point x="124" y="564" type="line"/>
      <point x="258" y="564" type="line"/>
    </contour>
    <contour>
      <point x="141" y="0" type="curve"/>
      <point x="247" y="500" type="line"/>
      <point x="114" y="500" type="line"/>
      <point x="8" y="0" type="line"/>
      <point x="29" y="0" type="line"/>
      <point x="-35" y="-53"/>
      <point x="-68" y="-99"/>
      <point x="-68" y="-139" type="curve" smooth="yes"/>
      <point x="-68" y="-188"/>
      <point x="-31" y="-216"/>
      <point x="23" y="-216" type="curve" smooth="yes"/>
      <point x="66" y="-216"/>
      <point x="127" y="-205"/>
      <point x="127" y="-205" type="curve"/>
      <point x="135" y="-110" type="line"/>
      <point x="135" y="-110"/>
      <point x="101" y="-114"/>
      <point x="94" y="-114" type="curve" smooth="yes"/>
      <point x="76" y="-114"/>
      <point x="66" y="-106"/>
      <point x="66" y="-92" type="curve" smooth="yes"/>
      <point x="66" y="-63"/>
      <point x="141" y="0"/>
    </contour>
  </outline>
</glyph>
<glyph name="Idotaccent" format="2">
	<advance width="282"/>
	<unicode hex="0130"/>
	<note>
		Idotaccent
	</note>
	<outline>
		<contour>
			<point x="347" y="920" type="line"/>
			<point x="213" y="920" type="line"/>
			<point x="183" y="777" type="line"/>
			<point x="317" y="777" type="line"/>
		</contour>
		<contour>
			<point x="307" y="710" type="line"/>
			<point x="170" y="710" type="line"/>
			<point x="18" y="0" type="line"/>
			<point x="155" y="0" type="line"/>
		</contour>
	</outline>
</glyph>
<glyph name="IJ" format="2">
  <advance width="598"/>
  <unicode hex="0132"/>
  <note>
IJ
</note>
  <outline>
    <contour>
      <point x="307" y="710" type="line"/>
      <point x="170" y="710" type="line"/>
      <point x="18" y="0" type="line"/>
      <point x="155" y="0" type="line"/>
    </contour>
    <contour>
      <point x="512" y="178" type="curve" smooth="yes"/>
      <point x="626" y="710" type="line"/>
      <point x="489" y="710" type="line"/>
      <point x="376" y="184" type="line" smooth="yes"/>
      <point x="364" y="127"/>
      <point x="335" y="113"/>
      <point x="286" y="113" type="curve"/>
      <point x="261" y="-7" type="line"/>
      <point x="437" y="-7"/>
      <point x="480" y="28"/>
    </contour>
  </outline>
</glyph>
<glyph name="ij" format="2">
	<advance width="496"/>
	<unicode hex="0133"/>
	<note>
		ij
	</note>
	<outline>
		<contour>
			<point x="283" y="700" type="line"/>
			<point x="152" y="700" type="line"/>
			<point x="124" y="564" type="line"/>
			<point x="255" y="564" type="line"/>
		</contour>
		<contour>
			<point x="523" y="700" type="line"/>
			<point x="392" y="700" type="line"/>
			<point x="364" y="564" type="line"/>
			<point x="495" y="564" type="line"/>
		</contour>
		<contour>
			<point x="244" y="500" type="line"/>
			<point x="114" y="500" type="line"/>
			<point x="8" y="0" type="line"/>
			<point x="138" y="0" type="line"/>
		</contour>
		<contour>
			<point x="486" y="500" type="line"/>
			<point x="355" y="500" type="line"/>
			<point x="251" y="14" type="line" smooth="yes"/>
			<point x="233" y="-71"/>
			<point x="215" y="-87"/>
			<point x="123" y="-141" type="curve"/>
			<point x="154" y="-240" type="line"/>
			<point x="305" y="-170"/>
			<point x="352" y="-126"/>
			<point x="382" y="13" type="curve" smooth="yes"/>
		</contour>
	</outline>
</glyph>
<glyph name="jcircumflex" format="2">
  <advance width="255"/>
  <unicode hex="0135"/>
  <note>
jcircumflex
</note>
  <outline>
    <contour>
      <point x="129" y="569" type="line"/>
      <point x="219" y="667" type="line"/>
      <point x="267" y="569" type="line"/>
      <point x="377" y="569" type="line"/>
      <point x="284" y="746" type="line"/>
      <point x="168" y="746" type="line"/>
      <point x="-1" y="569" type="line"/>
    </contour>
    <contour>
      <point x="245" y="500" type="line"/>
      <point x="114" y="500" type="line"/>
      <point x="10" y="14" type="line" smooth="yes"/>
      <point x="-8" y="-71"/>
      <point x="-26" y="-87"/>
      <point x="-118" y="-141" type="curve"/>
      <point x="-87" y="-240" type="line"/>
      <point x="64" y="-170"/>
      <point x="111" y="-126"/>
      <point x="141" y="13" type="curve" smooth="yes"/>
    </contour>
  </outline>
</glyph>
<glyph name="Kcommaaccent" format="2">
	<advance width="585"/>
	<unicode hex="0136"/>
	<note>
		Kcommaaccent
	</note>
	<outline>
		<contour>
			<point x="216" y="284" type="line"/>
			<point x="311" y="289" type="line"/>
			<point x="391" y="0" type="line"/>
			<point x="526" y="0" type="line"/>
			<point x="427" y="359" type="line"/>
			<point x="653" y="710" type="line"/>
			<point x="505" y="710" type="line"/>
			<point x="320" y="408" type="line"/>
			<point x="241" y="404" type="line"/>
			<point x="307" y="710" type="line"/>
			<point x="170" y="710" type="line"/>
			<point x="18" y="0" type="line"/>
			<point x="155" y="0" type="line"/>
		</contour>
		<contour>
			<point x="320" y="-125" type="line"/>
			<point x="229" y="-69" type="line"/>
			<point x="138" y="-239" type="line"/>
			<point x="211" y="-282" type="line"/>
		</contour>
	</outline>
</glyph>
<glyph name="kcommaaccent" format="2">
  <advance width="510"/>
  <unicode hex="0137"/>
  <note>
kcommaaccent
</note>
  <outline>
    <contour>
      <point x="164" y="730" type="line"/>
      <point x="8" y="0" type="line"/>
      <point x="139" y="0" type="line"/>
      <point x="182" y="203" type="line"/>
      <point x="257" y="212" type="line"/>
      <point x="319" y="0" type="line"/>
      <point x="450" y="0" type="line"/>
      <point x="366" y="280" type="line"/>
      <point x="541" y="500" type="line"/>
      <point x="392" y="500" type="line"/>
      <point x="259" y="328" type="line"/>
      <point x="207" y="319" type="line"/>
      <point x="295" y="730" type="line"/>
    </contour>
    <contour>
      <point x="288" y="-125" type="line"/>
      <point x="197" y="-69" type="line"/>
      <point x="106" y="-239" type="line"/>
      <point x="179" y="-282" type="line"/>
    </contour>
  </outline>
</glyph>
<glyph name="Lacute" format="2">
  <advance width="484"/>
  <unicode hex="0139"/>
  <note>
Lacute
</note>
  <outline>
    <contour>
      <point x="372" y="952" type="line"/>
      <point x="126" y="850" type="line"/>
      <point x="160" y="763" type="line"/>
      <point x="418" y="837" type="line"/>
    </contour>
    <contour>
      <point x="170" y="710" type="line"/>
      <point x="18" y="0" type="line"/>
      <point x="419" y="0" type="line"/>
      <point x="445" y="122" type="line"/>
      <point x="181" y="122" type="line"/>
      <point x="307" y="710" type="line"/>
    </contour>
  </outline>
</glyph>
